SplineFontDB: 3.2
FontName: UFSArabicFixup
FullName: UFSArabicFixup
FamilyName: UFSArabicFixup
Weight: Regular
Copyright: Copyrightc2025byLosketch.Allrightsreserved.
Version: 3.178
ItalicAngle: 0
UnderlinePosition: -100
UnderlineWidth: 50
Ascent: 800
Descent: 200
InvalidEm: 0
sfntRevision: 0x00032d91
LayerCount: 2
Layer: 0 0 "+BBcEMAQ0BD0EOAQ5 +BD8EOwQwBD0A" 1
Layer: 1 0 "+BB8ENQRABDUENAQ9BDgEOQAA +BD8EOwQwBD0A" 0
XUID: [1021 59 1751208496 21784]
StyleMap: 0x0040
FSType: 0
OS2Version: 4
OS2_WeightWidthSlopeOnly: 1
OS2_UseTypoMetrics: 1
CreationTime: 1752977242
ModificationTime: 1755346236
PfmFamily: 17
TTFWeight: 400
TTFWidth: 5
LineGap: 0
VLineGap: 0
Panose: 1 1 5 0 6 1 1 1 1 1
OS2TypoAscent: 1069
OS2TypoAOffset: 0
OS2TypoDescent: -634
OS2TypoDOffset: 0
OS2TypoLinegap: 0
OS2WinAscent: 1405
OS2WinAOffset: 0
OS2WinDescent: 634
OS2WinDOffset: 0
HheadAscent: 1069
HheadAOffset: 0
HheadDescent: -634
HheadDOffset: 0
OS2SubXSize: 700
OS2SubYSize: 650
OS2SubXOff: 0
OS2SubYOff: 150
OS2SupXSize: 700
OS2SupYSize: 650
OS2SupXOff: 0
OS2SupYOff: 450
OS2StrikeYSize: 50
OS2StrikeYPos: 272
OS2CapHeight: 712
OS2XHeight: 502
OS2Vendor: 'LOSK'
OS2CodePages: 00020001.00000000
OS2UnicodeRanges: 00002000.80002000.00000000.00000000
Lookup: 260 0 0 "My Blwm" { "My Blwm-1"  } ['blwm' ('DFLT' <'dflt' > 'arab' <'dflt' > ) ]
MarkAttachClasses: 1
DEI: 91125

StartChar: .notdef
Encoding: 1114112 -1 0
Width: 1000
GlyphClass: 1
Flags: W
HStem: 615 7<677.664 721> 680 148<704 809.238>
VStem: 303 22<265 279.286> 520 122<660.5 729>
LayerCount: 2
Fore
SplineSet
478 183 m 1
 511 183 l 1
 528 201 543 219 556 239 c 1
 478 239 l 1
 478 183 l 1
701 80 m 1
 730 49 771 22 823 0 c 1
 792 -19 774 -33 768 -41 c 1
 725 -20 690 5 663 35 c 1
 631 4 590 -22 541 -42 c 1
 536 -36 516 -23 481 -4 c 1
 507 6 l 1
 399 6 l 1
 399 -22 l 1
 342 -22 l 1
 342 183 l 1
 417 183 l 1
 417 239 l 1
 325 239 l 1
 325 294 l 1
 417 294 l 1
 417 373 l 1
 478 373 l 1
 478 294 l 1
 566 294 l 1
 566 255 l 1
 588 292 603 333 611 378 c 1
 670 372 l 1
 664 345 656 319 648 295 c 1
 798 295 l 1
 798 241 l 1
 764 241 l 1
 751 177 730 124 701 80 c 1
552 27 m 1
 583 43 609 62 629 82 c 0
 627 85 622 95 614 111 c 0
 606 128 597 151 588 182 c 1
 579 169 569 157 558 146 c 1
 556 148 554 150 552 152 c 1
 552 27 l 1
707 241 m 1
 626 241 l 1
 634 203 647 166 666 130 c 1
 685 162 699 199 707 241 c 1
495 130 m 1
 399 130 l 1
 399 60 l 1
 495 60 l 1
 495 130 l 1
364 365 m 1
 345 328 325 295 303 265 c 1
 303 -42 l 1
 244 -42 l 1
 244 194 l 1
 225 176 206 158 185 143 c 1
 179 154 165 169 143 190 c 1
 215 244 268 306 302 376 c 1
 364 365 l 1
315 587 m 1
 284 602 235 620 168 642 c 1
 218 685 l 1
 239 679 262 672 288 662 c 0
 313 654 338 643 362 632 c 1
 315 587 l 1
345 701 m 1
 315 716 266 736 199 760 c 1
 252 802 l 1
 295 787 343 769 394 746 c 1
 345 701 l 1
670 558 m 1
 496 558 l 1
 514 538 542 519 582 501 c 1
 618 517 647 536 670 558 c 1
461 792 m 1
 704 792 l 1
 704 683 l 2
 704 682 705 681 706 680 c 0
 708 680 710 680 712 680 c 0
 761 680 794 681 810 683 c 1
 810 680 810 676 811 673 c 0
 812 660 815 644 819 626 c 1
 802 623 765 622 708 622 c 0
 683 622 665 627 656 637 c 0
 647 647 642 663 642 685 c 2
 642 734 l 1
 520 734 l 1
 520 729 l 2
 520 717 518 705 514 692 c 0
 511 680 504 668 495 656 c 0
 486 645 473 634 456 623 c 2
 443 615 l 1
 706 615 l 1
 721 616 l 1
 731 617 l 1
 778 604 l 1
 747 550 705 507 653 474 c 1
 707 457 773 444 851 434 c 1
 810 407 787 389 784 381 c 1
 707 391 640 409 582 437 c 1
 517 410 447 391 371 381 c 1
 368 386 363 393 356 400 c 0
 348 408 335 419 317 434 c 1
 391 443 457 457 515 476 c 1
 481 499 451 527 425 558 c 1
 393 558 l 1
 393 601 l 1
 392 607 l 2
 392 624 387 639 377 652 c 1
 416 664 439 676 448 687 c 0
 457 698 461 711 461 725 c 2
 461 792 l 1
383 548 m 1
 337 484 294 431 254 388 c 1
 193 418 l 1
 246 471 292 524 332 577 c 1
 383 548 l 1
949 828 m 1
 51 828 l 1
 51 -69 l 1
 949 -69 l 1
 949 828 l 1
EndSplineSet
EndChar

StartChar: uni088F
Encoding: 2191 2191 1
Width: 586
GlyphClass: 1
Flags: W
HStem: -254 69<184.016 399.981> 148 51<249.975 316.025> 277 49<250.46 315.54>
VStem: 47 69<-125.801 50.1902> 194 48<206.908 269.052> 324 48<206.908 269.052> 488 68<-102.013 93.0165>
LayerCount: 2
Fore
SplineSet
254 210 m 0
 262 203 272 199 283 199 c 0
 294 199 304 203 312 210 c 0
 320 217 324 226 324 237 c 0
 324 248 320 258 312 266 c 0
 304 273 294 277 283 277 c 0
 272 277 262 273 254 266 c 0
 246 258 242 248 242 237 c 0
 242 226 246 217 254 210 c 0
346 174 m 0
 329 157 308 148 283 148 c 0
 258 148 237 157 220 174 c 0
 203 191 194 212 194 237 c 0
 194 262 203 283 220 300 c 0
 237 317 258 326 283 326 c 0
 308 326 329 317 346 300 c 0
 363 283 372 262 372 237 c 0
 372 212 363 191 346 174 c 0
80 -171 m 0
 58 -142 47 -106 47 -61 c 0
 47 -41 50 -19 55 6 c 0
 61 31 70 58 82 88 c 1
 143 64 l 1
 134 41 127 19 123 -1 c 0
 118 -20 116 -39 116 -55 c 0
 116 -85 124 -109 139 -128 c 0
 154 -147 175 -161 201 -171 c 0
 227 -180 257 -185 290 -185 c 0
 328 -185 359 -180 385 -170 c 0
 410 -160 431 -146 446 -130 c 0
 461 -113 472 -95 478 -75 c 0
 485 -55 488 -35 488 -15 c 0
 488 6 484 32 476 62 c 0
 468 93 453 130 431 175 c 1
 494 207 l 1
 510 175 525 141 537 105 c 0
 550 69 556 32 556 -6 c 0
 556 -33 552 -61 544 -90 c 0
 535 -119 521 -146 501 -171 c 0
 480 -195 453 -215 419 -231 c 0
 384 -246 341 -254 289 -254 c 0
 246 -254 205 -247 169 -234 c 0
 132 -220 102 -199 80 -171 c 0
EndSplineSet
EndChar

StartChar: uni0897
Encoding: 2199 2199 2
Width: 0
GlyphClass: 1
Flags: W
HStem: 766 89<19.2266 74.418> 834 90<-73.2043 -37.6191>
LayerCount: 2
Fore
SplineSet
63 780 m 0x80
 48 771 36 766 26 766 c 0x80
 17 766 8 769 -2 777 c 0
 -11 785 -21 794 -31 805 c 0
 -40 815 -51 825 -61 834 c 1x40
 -67 834 -77 830 -93 822 c 0
 -110 814 -128 802 -149 787 c 0
 -171 772 -192 755 -214 735 c 0
 -216 734 -217 736 -217 743 c 0
 -217 750 -216 758 -215 766 c 0x80
 -214 775 -212 781 -209 784 c 0
 -200 795 -187 808 -171 823 c 0
 -154 839 -136 854 -117 870 c 0
 -98 885 -80 898 -64 908 c 0
 -47 919 -34 924 -25 924 c 1x40
 -9 908 6 893 18 878 c 0
 31 863 44 855 58 855 c 0
 66 855 84 864 112 883 c 0
 140 901 169 925 201 954 c 0
 203 956 204 953 204 945 c 0
 204 938 204 929 203 919 c 0
 201 909 199 902 196 898 c 0
 187 888 175 876 160 861 c 0
 145 846 129 832 112 817 c 0
 95 802 78 790 63 780 c 0x80
EndSplineSet
EndChar

StartChar: uniFBC3
Encoding: 64451 64451 4
Width: 1301
VWidth: 900
GlyphClass: 1
Flags: HW
HStem: -98 49<545.132 711.95> -70 59<1012.1 1067.9> -51 48<253.542 331.872> 37 49.0005<829.478 1008.1> 80 47<310.415 398.542> 134 43<1121.35 1197> 201 48<917.546 1066.4> 237 48<320.13 388.515> 294 49<370.946 573.999 574 763.071 812.219 872.942 873 971.006> 301 47<112 159.967> 386 43<494.789 535.69> 412 41<583.014 623.273> 509 49<978.27 1087.35>
VStem: 259 47<133.191 223.899> 302 49<542.5 721> 310 53<439.791 593.5> 407 47<129.24 218.154> 454 40<429.454 492> 459 48<-12.001 131.832> 542 38<461.281 515> 626 42<462.282 537.579> 756 49<345.923 634> 764.262 47.957<102.852 294 343 422.663> 913 49<396.062 491.788> 1011 58<-69.086 -11.98>
LayerCount: 2
Fore
SplineSet
1045 631 m 1x04081980
 866 579 l 1
 866 624 l 1
 1045 677 l 1
 1045 631 l 1x04081980
739 181 m 1
 560 129 l 1
 560 174 l 1
 739 227 l 1
 739 181 l 1
636 604 m 1
 460 552 l 1
 460 597 l 1
 636 648 l 1
 636 604 l 1
545 397 m 0
 534 390 522 386 507 386 c 0x04283980
 486 386 472 393 465 407 c 0
 458 421 454 436 454 452 c 0
 454 458 455 464 456 470 c 0
 457 476 458 484 460 492 c 1
 499 504 l 1
 496 485 494 471 494 459 c 0
 494 439 501 429 514 429 c 0x04285980
 522 429 529 433 534 441 c 0
 539 449 542 466 542 491 c 2
 542 515 l 1
 580 529 l 1
 580 481 l 2
 580 473 582 467 585 461 c 0
 588 456 594 453 603 453 c 0
 613 453 619 456 622 462 c 0
 625 468 626 475 626 484 c 0
 626 493 625 502 623 512 c 0
 622 521 619 529 615 538 c 1
 651 550 l 1
 655 539 660 528 663 515 c 0
 666 503 668 491 668 481 c 0
 668 462 663 446 654 433 c 0
 644 419 629 412 609 412 c 0x04185980
 592 412 578 417 568 426 c 1
 563 414 555 404 545 397 c 0
306 168 m 0x0d0c9980
 306 143 320 127 359 127 c 0
 375 127 393 130 407 134 c 0
 407 137 407 140 407 143 c 0
 407 192 387 237 354 237 c 0
 326 237 306 200 306 168 c 0x0d0c9980
255 -51 m 1x2d0c9980
 245 -3 l 1
 320 7 378 26 399 86 c 1
 385 82 369 80 353 80 c 0
 293 80 259 105 259 156 c 0
 259 216 298 285 359 285 c 0
 422 285 454 214 454 139 c 0
 454 28 386 -37 255 -51 c 1x2d0c9980
459 40 m 0x96883b80
 459 68 466 103 484 145 c 1
 526 128 l 1
 514 95 507 68 507 44 c 0
 507 -17 562 -49 621 -49 c 0
 737 -49 772 19 769 99 c 2
 764.26171875 294 l 1
 717 294 l 1
 716 294 l 1
 568 294 l 1
 432 294 l 1
 419 294 l 1
 419.026367188 294.211914062 l 1
 346.243164062 296.681640625 322.62109375 320.8671875 316 371 c 1
 278 305 212 294 161 294 c 0x96883b80
 139 294 114 299 105 301 c 1
 112 348 l 1
 183.1015625 338.032226562 245.37109375 345.727539062 280.325195312 392.796875 c 1
 249.258789062 443.244140625 185.817382812 520.122070312 100 597 c 1
 132 630 l 1
 216.291992188 550.524414062 269.005859375 486.515625 302.040039062 439.009765625 c 1
 306.625976562 455.65234375 309.36328125 474.8828125 310 497 c 2x04493b80
 302 721 l 1
 351 721 l 1x044a1980
 363 415 l 2
 365 357 370 343 438 343 c 2
 573 343 l 2
 573.336914062 343 573.668945312 342.99609375 573.999023438 342.989257812 c 1
 573.999023438 342.993164062 574 342.99609375 574 343 c 1
 722 343 l 1
 763.071289062 343 l 1
 756 634 l 1
 805 634 l 1x04891d80
 811.178710938 343 l 1
 870 343 l 2
 871.029296875 343 872.026367188 342.966796875 872.987304688 342.8984375 c 2
 873 343 l 1
 948 343 966 345 974 346 c 1
 953 358 913 389 913 445 c 0
 913 512 965 558 1036 558 c 0
 1054 558 1076 554 1095 548 c 1
 1085 503 l 1
 1068 507 1050 509 1036 509 c 0
 992 509 962 484 962 445 c 0
 962 393 1024 363 1058 364 c 1
 1077 370 1086 371 1131 392 c 1
 1148 349 l 1
 1068 316 991 294 867 294 c 1
 867 294.021484375 867.0078125 294.04296875 867.0078125 294.065429688 c 1
 866.352539062 294.021484375 865.68359375 294 865 294 c 2
 812.21875 294 l 1
 815 163 l 2
 815.997070312 102.197265625 843.818359375 86.1044921875 880.640625 86.0009765625 c 0
 962.40625 86.1298828125 1040.16699219 111.114257812 1104 155 c 1
 1073 183 1027 201 973 201 c 0
 954 201 941 199 920 194 c 1
 910 239 l 1
 932 246 953 249 973 249 c 0
 1077 249 1122 177 1184 177 c 2
 1197 177 l 1
 1201 134 l 1
 1099 134 1060 37 875 37 c 0
 845 37 828 47 816 61 c 1
 806 -18 756 -98 618 -98 c 0
 535 -98 459 -47 459 40 c 0x96883b80
1040 -70 m 0x44081980
 1024 -70 1011 -57 1011 -41 c 0
 1011 -25 1024 -11 1040 -11 c 0
 1056 -11 1069 -25 1069 -41 c 0
 1069 -57 1056 -70 1040 -70 c 0x44081980
EndSplineSet
EndChar

StartChar: uniFBC4
Encoding: 64452 64452 5
Width: 1502
VWidth: 900
GlyphClass: 1
Flags: HW
HStem: -148 43<999.233 1033.34> -125 56<1255.74 1310.31> -83 46<447.694 1008.24> -20 47<1182.05 1299.32> 155 46<244.529 323.964> 163 46<436.008 617.207 757.472 828> 296 42<1203.5 1346.16> 319 51<223.527 298.777> 426 46<243.317 539.677> 435 46<697.562 814.595 879.458 985.084> 594 46<899.893 971.376> 623 56<359.914 414.155 437.848 492.09> 680 56<716.91 771.152 794.848 848.155>
VStem: 100 46<15.932 234.707> 167 46<500.065 622.732> 359 56<623.845 678.086> 382 47<217.305 393> 394 46<-28.102 163 217.305 319.794> 437 56<623.687 678.257> 628 37<222.48 243.892> 653 41<489.877 498> 697 34<81 140.691> 716 56<680.687 735.257> 794 55<680.687 735.257> 990 40<489.727 573.831> 1014 42<-25.743 51.642> 1094 46<397.545 654> 1105 46<251 507.455> 1183 41<527 666> 1255 56<-124.09 -69.9102> 1304 43<33.355 163.392>
LayerCount: 2
Fore
SplineSet
802 163 m 2
 748.620117188 163 731 137.678710938 731 48 c 1x150e9508
 699 18 l 1
 633.827148438 64.0048828125 621.189453125 160.595703125 620 182 c 1
 609 169 589 163 561 163 c 2
 436.008789062 163 l 1
 440 32 l 2
 442 -24 447 -37 512 -37 c 2
 917 -37 l 2
 1005 -37 1014 -16 1014 3 c 0
 1014 67.38671875 874 152.224609375 874 167 c 0
 874 184 878 201 886 209 c 0x350e5548
 916 241 981 270 1077 319 c 1
 1097 277 l 1
 994 228 956 208 920 183 c 1
 1008 111 1056 59 1056 0 c 0
 1056 -33 1042 -84 909 -84 c 2
 858 -84 l 1
 858.127929688 -83 l 1
 513.826171875 -83 l 2
 511.361328125 -83.6484375 508.739257812 -84 506 -84 c 0
 415 -84 396 -54 394 13 c 2
 389.213867188 164.557617188 l 1
 374.081054688 168.284179688 362.329101562 175.982421875 352 187 c 1
 338 165 316 155 293 155 c 0x390e5548
 292.342773438 154.984375 291.682617188 154.9765625 291.020507812 154.9765625 c 0
 249.408203125 154.9765625 199.530273438 185.861328125 170 240 c 1
 150 211 146 176 146 151 c 0
 146 108 167 12 183 -46 c 1
 138 -57 l 1
 114 29 100 119 100 151 c 0
 100 290 228 370 283 370 c 0
 349.727539062 370 342.329101562 250.302734375 387.547851562 217.3046875 c 1
 382 393 l 1
 429 393 l 1
 434.606445312 209 l 1
 566 209 l 2
 568.55859375 209 570.913085938 208.794921875 573.029296875 208.385742188 c 0
 596.612304688 210.71484375 613.374023438 215.434570312 628 252 c 1
 665 242 l 1
 663.2421875 235.318359375 658.864257812 216.201171875 658.864257812 191.48046875 c 0
 658.864257812 159.142578125 666.35546875 117.216796875 697 81 c 1
 697 184.487304688 746.594726562 208 807 208 c 2
 829 208 l 1
 828 163 l 1
 802 163 l 2
1402 256 m 1
 1279 220 l 1
 1279 251 l 1
 1402 287 l 1
 1402 256 l 1
1224 527 m 1
 1183 527 l 1
 1179 666 l 1
 1220 666 l 1
 1224 527 l 1
324.11328125 223.755859375 m 0
 324.11328125 230.350585938 301.91015625 319 275 319 c 0
 258 319 224 305 200 276 c 1
 225 226 270 201 298 201 c 0x190e0108
 313.901367188 201 324.11328125 208.584960938 324.11328125 223.755859375 c 0
744 680 m 0
 729 680 716 692 716 707 c 0
 716 723 729 736 744 736 c 0
 760 736 772 723 772 707 c 0x100e0308
 772 692 760 680 744 680 c 0
822 680 m 0
 806 680 794 692 794 707 c 0
 794 723 806 736 822 736 c 0
 837 736 849 723 849 707 c 0
 849 692 837 680 822 680 c 0
1002 -148 m 1x900e010a
 985 -105 l 1
 1095 -68 1127 -8 1127 44 c 0
 1127 80 1108 120 1088 154 c 1
 1129 175 l 1
 1150 135 1165 96 1173 68 c 0
 1184 36 1199 27 1229 27 c 0
 1284 27 1304 33 1304 75 c 0
 1304 103 1288 151 1272 194 c 1
 1317 211 l 1
 1332 174 1347 118 1347 84 c 0
 1347 8 1307 -20 1223 -20 c 0
 1194 -20 1176 -10 1164 5 c 1
 1148 -80 1058 -134 1002 -148 c 1x900e010a
1284 -125 m 0x500e010c
 1268 -125 1255 -112 1255 -97 c 0
 1255 -82 1268 -69 1284 -69 c 0
 1299 -69 1311 -82 1311 -97 c 0
 1311 -112 1299 -125 1284 -125 c 0x500e010c
388 623 m 0x101f0108
 372 623 359 635 359 650 c 0
 359 666 372 679 388 679 c 0
 403 679 415 666 415 650 c 0
 415 635 403 623 388 623 c 0x101f0108
465 623 m 0
 449 623 437 635 437 650 c 0
 437 666 449 679 465 679 c 0
 480 679 493 666 493 650 c 0x101e2108
 493 635 480 623 465 623 c 0
773 481 m 0
 850.126953125 481 837.9140625 640 939 640 c 0
 990 640 1030 581 1030 529 c 0
 1030 461 990 438 950 438 c 0
 928 438 896 441 845 473 c 1
 822 438 799 435 767 435 c 0x106e0988
 701 435 654 453 653 498 c 1
 591 450 486 426 370 426 c 0x108e0988
 236 426 167 458 167 541 c 0
 167 568 174 601 182 630 c 1
 225 619 l 1
 220 602 213 573 213 554 c 0
 213 495 250 472 385 472 c 0x108e0988
 476 472 597 492 667 571 c 1
 703 550 l 1
 696 532 694 523 694 515 c 0
 694 498 709 481 773 481 c 0
936 594 m 0x102e0188
 924.823242188 594 901 594 867 509 c 1
 900 490 927 484 945 484 c 0
 977 484 990 500 990 523 c 0
 990 556 963 594 936 594 c 0x102e0188
1105 251 m 1x100e0118
 1094 654 l 1
 1140 654 l 1x100e0128
 1151 251 l 1
 1105 251 l 1x100e0118
1288 557 m 1
 1353.81347656 494.744140625 1401.62304688 432.0390625 1401.62304688 381.249023438 c 0
 1401.62304688 312.504882812 1324.14453125 282.118164062 1258.32519531 282.118164062 c 0
 1232.18164062 282.118164062 1207.87792969 286.912109375 1191 296 c 1x120e0108
 1206 338 l 1
 1220.109375 332.190429688 1238.85742188 329.1796875 1258.28027344 329.1796875 c 0
 1304.70800781 329.1796875 1354.99121094 346.380859375 1354.99121094 383.671875 c 0
 1354.99121094 415.224609375 1325.03320312 456.565429688 1254 525 c 1
 1288 557 l 1
EndSplineSet
EndChar

StartChar: uniFBC5
Encoding: 64453 64453 6
Width: 1958
VWidth: 800
GlyphClass: 1
Flags: HW
HStem: -449 55<913.69 967.313 989.69 1043.31> -344 46<546.235 1046.29 1107.09 1248.58> -197.738 45.9962<634.369 753.606 833.482 981.594> -143 46<419.753 484 1253.95 1356.45> -100 45<183.087 333.86> -89 42.0008<1312.57 1387.62 1472.05 1545.5 1594.75 1713.15> -12 45<719.053 843.627> 2 40<1800.98 1854> 26 46.0006<412.157 494.759> 72 44<1470.97 1516.22 1652.84 1752.85> 86 55<842.69 896.313 918.69 972.313> 98 43<1357.4 1394.51> 113 44<1212.57 1257> 172 46.0004<780.543 893.764 954.804 1060.74> 214 55<1322.74 1376.26> 290 55<1323.69 1377.26> 373 47<654.753 719> 480 27<607.704 670.671> 587 28<675.906 708.601> 616 36<840.31 873.597> 637 33<911.809 944.227>
VStem: 100 46<-19.547 116.412> 343 44<-236.634 -172.583> 372 42<-19.958 25.701> 487 41<-197.111 -143 -98.853 -54 341.1 426> 492 45<-246.602 -217.556 74.682 203.6> 570 45<20 202> 578 44<-142.758 38.571 279.366 343.417> 645 28<543.112 583.906> 710 28<537.202 586.413> 719 43<318.889 373 416.306 462> 726 45<269.398 373> 809 31<652.512 703> 842 55<86.687 140.259> 846 44<-89.276 -17.522> 872 35<750 861> 879 31<677.188 720> 887 46<352.667 572> 896 46<229.751 509.111> 913 55<-448.259 -394.687 88.109 138.734> 947 34<677.235 738.672> 986 42<-146.439 -17.686> 989 55<-448.259 -394.687> 1039 46<-142.1 56> 1049 45<-285.331 -113.8 433 572> 1063 45<223.101 469.091> 1139 42<17.14 83.646> 1182 45<319.364 572> 1194 45<-249.286 -157.348 175 406.583> 1257 39<58.667 113 151.191 201> 1264 41<9.239 113> 1322 55<214.687 268.259 290.687 344.259> 1483 42<219.189 360.112>
LayerCount: 2
Fore
SplineSet
1181 46 m 0xe009e408800238
 1181 11 1231 7 1264 10 c 1
 1259 113 l 1
 1209 101 1181 69 1181 46 c 0xe009e408800238
1447 3 m 1
 1468 -30 1500 -52 1523 -52 c 0
 1546 -52 1550 -34 1543 -18 c 0
 1512 65 1508 72 1496 72 c 0xe041e408800218
 1482 72 1459 38 1447 3 c 1
692 587 m 0
 687.954472535 587 673 585.796476023 673 568 c 0
 673 552.100948623 688.127439917 540.80252575 697 537 c 1
 705 545 710 554 710 564 c 0xe001e40c800218
 710 569.051435827 707.673686974 587 692 587 c 0
693 615 m 0
 725.449676046 615 738 586.36359949 738 566 c 0
 738 506.675077337 667.510558937 483.079503102 609 480 c 1
 604 507 l 1
 620.780719281 508.118714619 651.307692308 510.153846154 675 522 c 1
 664.965909091 527.574494949 645 538.666666667 645 568 c 0
 645 598.274451808 668.488858016 615 693 615 c 0
907 750 m 1xe001e408900218
 872 750 l 1
 869 861 l 1
 904 861 l 1
 907 750 l 1xe001e408900218
899 648 m 1
 892.554560439 633.497760988 878.808482382 616 850 616 c 0
 840.685534591 616 809 616 809 669 c 0
 809 679 809 679 812 703 c 5
 843 711 l 1
 841 696 840 684 840 675 c 0
 840 660 845 652 856 652 c 0
 873.89463347 652 879 672.618969907 879 701 c 2
 879 720 l 1
 910 732 l 1
 910 693 l 2
 910 676.654016273 915.133460024 670 928 670 c 0
 932.794871795 670 947 670 947 696 c 0
 947 703.2528141 945.726283885 718.638670936 937 739 c 1
 966 748 l 1
 973.171493132 733.657013735 981 713.329494729 981 693 c 0
 981 689.956777592 980.320146234 637 933 637 c 0xe001ec08848218
 919 637 908 641 899 648 c 1
387 -210 m 0xf001e688800218
 387 -245 450 -252 492 -244 c 1xf001e648800218
 487 -143 l 1
 423 -150 387 -183 387 -210 c 0xf001e688800218
941 -449 m 0
 925 -449 913 -436 913 -421 c 0
 913 -406 925 -394 941 -394 c 0
 956 -394 968 -406 968 -421 c 0xe001e408810218
 968 -436 956 -449 941 -449 c 0
1017 -449 m 0
 1001 -449 989 -436 989 -421 c 0
 989 -406 1001 -394 1017 -394 c 0
 1032 -394 1044 -406 1044 -421 c 0xe001e408802218
 1044 -436 1032 -449 1017 -449 c 0
100 29 m 0
 100 55 107 87 123 127 c 1
 163 111 l 1
 152 80 146 55 146 32 c 0
 146 -29 206 -55 277 -55 c 0
 302 -55 372 -22 372 18 c 0
 372 37 341 50 288 65 c 1
 298 111 l 1
 374.643554688 81.138671875 414.62890625 72.083984375 437.6796875 72.0009765625 c 0
 499.993164062 72.1083984375 498.993164062 87.2021484375 497 143 c 2
 487 426 l 1
 532 426 l 1
 543 148 l 2
 546 69 532 26 432 26 c 2
 412 26 l 1
 413 20 414 17 414 10 c 0
 414 -44 336 -100 264 -100 c 0xe881e588800218
 176 -100 100 -58 100 29 c 0
714 -37 m 1
 743 -60 765 -81 795 -113 c 1
 828 -93 846 -67 846 -44 c 0
 846 -29 833 -12 793 -12 c 0xe201e408a00218
 768 -12 732 -23 714 -37 c 1
870 86 m 0xe021e408c00218
 854 86 842 98 842 113 c 0xe009e408c00218
 842 128 854 141 870 141 c 0xe021e408c00218
 885 141 897 128 897 113 c 0xe009e408c00218
 897 98 885 86 870 86 c 0xe021e408c00218
946 86 m 0xe021e408800218
 930 86 918 98 918 113 c 0xe009e408800218
 918 128 930 141 946 141 c 0xe021e408800218
 961 141 973 128 973 113 c 0xe009e408800218
 973 98 961 86 946 86 c 0xe021e408800218
622 306 m 0xe001e419800218
 622 271 685 264 726 272 c 1
 721 373 l 1
 657 366 622 333 622 306 c 0xe001e419800218
1193 175 m 1
 1182 572 l 1
 1227 572 l 1xe001e408800318
 1238 175 l 1
 1193 175 l 1
1323 317 m 0
 1323 333 1335 345 1350 345 c 0
 1365 345 1378 332 1378 317 c 0
 1378 302 1365 290 1350 290 c 0
 1335 290 1323 302 1323 317 c 0
1322 241 m 0
 1322 257 1335 269 1350 269 c 0
 1365 269 1377 256 1377 241 c 0
 1377 226 1364 214 1349 214 c 0xe003e408800218
 1334 214 1322 226 1322 241 c 0
1360 98 m 1xe011e408800218
 1344 141 l 1
 1456 176 1483 237 1483 286 c 0
 1483 317 1475 339 1445 394 c 1
 1486 414 l 1
 1513 366 1525 322 1525 289 c 0
 1525 172 1418 113 1360 98 c 1xe011e408800218
1625.65820312 -88.9990234375 m 0
 1610.23161449 -88.9990234375 1590.58714868 -83.9322570916 1573 -64 c 1
 1562 -82 1544 -90 1521 -90 c 0
 1499 -90 1457 -78 1428 -34 c 1
 1403.44140625 -86.064453125 1381.77734375 -88.9130859375 1353.52929688 -88.998046875 c 0
 1353.35449219 -88.998046875 1353.17773438 -89 1353 -89 c 2
 1352.63671875 -89 l 2xe541e408800238
 1305.77029426 -89 1279.31519954 -71.2002214299 1269 -29 c 1
 1211 -39 1139 -23 1139 38 c 0
 1139 92 1189 139 1257 157 c 1
 1255 201 l 1
 1296 201 l 1xe509e408800258
 1305 18 l 2
 1307.98242188 -34.6982421875 1315.90917969 -46.8623046875 1357.28515625 -46.9990234375 c 0
 1411.34864619 -46.5489581317 1415.10263896 116 1503 116 c 0
 1571.13740361 116 1561.03768293 -46.5751529403 1630.68945312 -46.9990234375 c 0
 1701.16894531 -46.8056640625 1727.21386719 -16.873046875 1793 22 c 1
 1754 48 1736 71 1695 71 c 0
 1677 71 1668 69 1656 66 c 1
 1647 101 l 1
 1662 107 1680 110 1695 110 c 0
 1775 110 1795 42 1847 42 c 2
 1854 42 l 1
 1858 2 l 1
 1779.74426087 0.0184235829294 1751.62067092 -89 1626 -89 c 0
 1625.88574219 -89 1625.77246094 -88.9990234375 1625.65820312 -88.9990234375 c 0
1082 -306 m 1
 1059.99605174 -342.674409482 1003.87664132 -344 1003 -344 c 2
 587 -344 l 1
 587.02734375 -343.793945312 l 1
 543.127929688 -341.920898438 511.032226562 -326.958007812 498 -286 c 1
 419 -305 343 -278 343 -217 c 0
 343 -158 406 -109 484 -96 c 1
 483 -54 l 1
 528 -54 l 1xf001e688800a98
 537 -238 l 2xf001e448800218
 539 -290 562 -298 602 -298 c 2
 989 -298 l 2
 1052 -298 1050 -283 1049 -227 c 2xf001e448802a18
 1039 56 l 1
 1085 56 l 1xf001e408801218
 1094 -226 l 2
 1096 -283 1122 -298 1156 -298 c 0
 1226 -298 1243 -296 1250 -295 c 1
 1230 -284 1194 -255 1194 -203 c 0
 1194 -140 1242 -97 1308 -97 c 0
 1325 -97 1345 -100 1363 -106 c 1
 1354 -149 l 1
 1339 -145 1322 -143 1308 -143 c 0
 1268 -143 1239 -166 1239 -203 c 0
 1239 -251 1297 -280 1329 -279 c 1
 1347 -273 1355 -271 1398 -252 c 1
 1413 -293 l 1
 1339 -323 1266 -344 1150 -344 c 0
 1113 -344 1092 -327 1082 -306 c 1
790 -163 m 1
 762.92940486 -190.07059514 692.050047618 -198 691 -198 c 0
 686.129882812 -198 681.469726562 -197.913085938 677.010742188 -197.73828125 c 0
 672.713867188 -197.911132812 668.372070312 -198 664 -198 c 1
 664.138671875 -196.938476562 l 1
 598.03125 -191.171875 582.780273438 -161.641601562 581 -102 c 2
 570 202 l 1
 615 202 l 1
 626 -84 l 2
 627.841796875 -134.651367188 632.228515625 -149.681640625 682.897460938 -151.7421875 c 0
 716.702148438 -150.376953125 746.114257812 -143.662109375 755 -133 c 1
 738 -112 715 -90 689 -71 c 0
 681 -65 674 -42 674 -34 c 0
 674 -12 735 33 801 33 c 0
 864 33 890 1 890 -32 c 0
 890 -68 869 -105 832 -135 c 1
 864 -147 871 -151 908 -151 c 0
 912.154296875 -151 915.634765625 -151.673828125 918.510742188 -152.8828125 c 0
 969.658203125 -152.036132812 986 -145.676757812 986 -105 c 0
 986 -78 971 -31 955 11 c 1
 1000 28 l 1
 1013 -8 1028 -63 1028 -96 c 0
 1028 -171 990 -199 896 -199 c 1xe201e428a24218
 896.224609375 -196.9296875 l 1
 850.748046875 -195.95703125 827.196289062 -184.936523438 790 -163 c 1
836.5390625 218 m 0xe005e409800218
 899.98828125 218.084960938 897.994140625 233.157226562 896 289 c 2xe005e409820218
 887 572 l 1
 933 572 l 1xe005e408840218
 942 290 l 2
 943 233 969 218 1003 218 c 0
 1066 218 1065 233 1063 289 c 2
 1052 572 l 1
 1097 572 l 1
 1108 294 l 2
 1112 215 1098 172 998 172 c 0
 960 172 939 189 929 210 c 1
 915 185 885 172 831 172 c 0
 783 172 747 186 733 230 c 1
 654 211 578 238 578 299 c 0
 578 358 641 407 719 420 c 1
 717 462 l 1
 762 462 l 1xe005e41a820618
 771 278 l 2
 773.98828125 226.200195312 796.823242188 218.0625 836.5390625 218 c 0xe005e409800218
EndSplineSet
EndChar

StartChar: uniFBC6
Encoding: 64454 64454 7
Width: 1696
VWidth: 800
GlyphClass: 1
Flags: HW
HStem: -412 45<791.718 885.103> -400 56<1075.69 1129.31 1151.74 1206.26> -301 44<495.322 575.439> -294 46<183.798 386.06 633.881 678.892 679 720.295 914.532 1029.97 1088.53 1227.42 1289.15 1429.53> -276 32<766.703 817.4> -136 44<166.661 291.249 486.242 551.745> -112.148 44.3531<1128 1226.15> -105 46<805.991 853.856> -92 46<1435.95 1538.52> -45 45<716.748 798.91> -37 46<524.078 618.63 857.406 1026.67> 2 44<185.039 272.966> 54 40<1130.93 1200> 116 46<937.841 1080.17> 123 45<708.949 772.684> 165 46<397.753 462> 185 46<841.838 955.7 1016.95 1122.5> 237 45<687.142 787> 263 56<384.687 438.259> 340 55<384.687 438.259> 390 27<516.704 580.506> 497 28<585.446 617.903> 570 37<905.531 940.2> 592 35<978.311 1015.77>
VStem: 100 45<-348.459 -148.145> 292 41<-93.941 -18.293> 321 44<70.349 135.05> 384 55<263.741 318.259 340.687 394.31> 462 44<110.111 165 206.44 254> 470 45<60.398 165> 554 28<453.413 493.906> 619 28<447.202 496.437> 638 44<290.998 357.05> 780 44<428.44 476> 787 46<282.293 383.886> 857 46<-213.965 -105.386> 872 33<607.303 660> 939 37<710 825> 946 32<627.324 678> 949 46<354.778 536> 959 45<242.858 484.222> 1017 35<627.671 702.18> 1055 43<-208.148 -140.535> 1075 55<-399.259 -344.741> 1115 45<391.333 536> 1126 46<236.655 432.667> 1151 56<-399.259 -344.741> 1220 47<-49.669 107> 1227.72 45.7469<-233.375 -112.148 -49.669 39.043> 1245 45<333 536> 1256 46<188 391> 1330 46<-14.91 116> 1376 45<-199.306 -106.987>
LayerCount: 2
Fore
SplineSet
463 -196 m 1
 470.927691994 -208.806271683 503.579944728 -257 546 -257 c 0
 561.350988057 -257 578.447714296 -248.33414902 578.447714296 -226.533959987 c 0
 578.447714296 -220.421408831 577.103596126 -213.276256335 574 -205 c 0
 569 -194 564 -183 560 -172 c 0
 543.688379632 -142.095362659 535.226625358 -136 521 -136 c 0
 495.948740356 -136 474.608482118 -171.727719209 463 -196 c 1
1510.32435347 -229.025051161 m 0
 1511.07168533 -229.025051161 1529.81366746 -225.34248025 1580 -202 c 1
 1596 -243 l 1
 1521 -273 1448 -294 1332 -294 c 0x108c0492004088
 1294 -294 1273 -277 1263 -257 c 1x20080492004088
 1248 -281 1219 -294 1165 -294 c 0x10080492004088
 1092 -294 1072 -282 1064 -257 c 1x20080492004088
 1042 -288 1014 -294 957 -294 c 0
 943 -294 929 -293 914 -291 c 1
 923.339311321 -305.150471699 927.872962259 -320.982924531 927.872962259 -336.411952753 c 0
 927.872962259 -375.500641504 898.774292452 -412 845 -412 c 0
 780 -412 729 -372 721 -290 c 1
 706 -292 689 -294 674 -294 c 0x90080492004088
 659.530014157 -294 625.550702355 -291.136617314 606 -266 c 1
 598.602941982 -278.680670888 580.783977002 -301 547 -301 c 0x20080492004088
 537.862377202 -301 482.982720843 -298.359361232 441 -237 c 1
 429.381811832 -252.718725169 397.389375985 -296 297 -296 c 0
 264.56850958 -296 252.747927546 -294.960199086 177 -283 c 1
 183 -245 l 1
 200 -246 218 -248 238 -248 c 0x10080492004088
 256 -250 274 -250 290 -250 c 0
 386.727106595 -250 413.059192589 -204.881614822 426 -179 c 0
 449.48788198 -129.888974042 481.655567878 -92 525 -92 c 0
 618.102267459 -92 594.823931066 -247.746535158 678.892578125 -248.9921875 c 1
 679 -248 l 1
 720 -248 l 1
 726 -136 786 -59 839 -59 c 0x11080492004088
 875 -59 903 -93 903 -145 c 0
 903 -177 895 -212 866 -236 c 1
 895 -243 926 -248 962 -248 c 0
 1036 -248 1036 -232 1055 -133 c 1
 1098 -142 l 1
 1094 -162 1087 -191 1087 -209 c 0
 1087 -232 1084 -248 1170 -248 c 0
 1222.73057233 -248 1230.62545594 -237.491635456 1230.62545594 -201.229494736 c 0
 1230.62545594 -194.167340566 1230.32601358 -186.128380151 1230 -177 c 2
 1227.71679688 -112.1484375 l 1x12080492106088
 1207.12840283 -116.920005475 1186.79227164 -118.798832643 1168.42293543 -118.798832643 c 0
 1151.95655998 -118.798832643 1137.07058878 -117.289114298 1125 -115 c 1
 1128 -69 l 1
 1145.92438766 -71.6045519131 1162.2996952 -72.8006879779 1177.25900672 -72.8006879779 c 0
 1195.60541507 -72.8006879779 1211.82201309 -71.0015706624 1226.15429688 -67.794921875 c 1
 1220 107 l 1
 1267 107 l 1
 1271.98242188 -49.6689453125 l 1
 1322.49601815 -18.5209559348 1331.26411384 28.4181703388 1331.26411384 76.8332085906 c 0
 1331.26411384 89.874980604 1330.62787829 103.023848582 1330 116 c 1x120c0492004110
 1376 117 l 1
 1376.55058852 109.291760772 1377.04338673 99.9115217968 1377.04338673 89.3801793892 c 0
 1377.04338673 34.1143111867 1363.47226784 -52.8516748217 1273.46386719 -96.2392578125 c 1
 1276 -176 l 2
 1277 -233 1304 -248 1338 -248 c 0
 1408 -248 1425 -246 1432 -246 c 1
 1412 -234 1376 -205 1376 -153 c 0
 1376 -90 1424 -46 1490 -46 c 0
 1508 -46 1528 -50 1546 -55 c 1
 1536 -98 l 1
 1521 -94 1504 -92 1490 -92 c 0
 1450 -92 1421 -116 1421 -153 c 0
 1421 -200.197540502 1477.07693321 -229.025051161 1510.32435347 -229.025051161 c 0
145 -200 m 0
 145 -257.6694522 158.789330881 -316.157323526 172 -369 c 1
 130 -380 l 1
 129.483523321 -378.229222815 100 -265.451436901 100 -198 c 0
 100 -98.1664828817 186.660751159 -87.1802800158 224.80738267 -87.1802800158 c 0
 248.282458469 -87.1802800158 268.941341738 -89.6765015759 292 -94 c 1
 292.18660491 -90.8277165329 292.278783329 -87.6957220758 292.278783329 -84.6102972517 c 0
 292.278783329 -35.3762512143 268.807849404 2 231 2 c 0
 204 2 181 -16 162 -53 c 1
 128 -35 l 1
 147.151628129 6.03920313364 179.732395432 46 234 46 c 0x001804d20040
 316.827752622 46 333 -38.4630771097 333 -79 c 0x002804d20040
 333 -115.932534944 313.398497177 -147.402254235 313 -148 c 0
 280 -138 250 -133 225 -132 c 0
 151.276850518 -132 145 -175.412659081 145 -200 c 0
1561 224 m 1
 1342 160 l 1
 1338 191 l 1
 1557 255 l 1
 1561 224 l 1
1556 28 m 1
 1433 -8 l 1
 1433 23 l 1
 1556 59 l 1
 1556 28 l 1
683 181 m 1
 560 145 l 1
 560 176 l 1
 683 212 l 1
 683 181 l 1
601 497 m 0
 589.329044343 497 582 487.501687506 582 478 c 0
 582 458.022146592 605.639652945 447.154434452 606 447 c 0
 615 455 619 464 619 474 c 0x000804930040
 619 478.058249372 618.084877921 497 601 497 c 0
602 525 m 0
 643.277307726 525 647 485.218644439 647 476 c 0
 647 418.418765852 582.065980877 393.285434917 518 390 c 1
 513 417 l 1x00080c930040
 529.780719281 418.118714619 560.307692308 420.153846154 584 432 c 1
 559.107065488 445.829408062 554 462.363607885 554 478 c 0
 554 505.872851779 576.188015939 525 602 525 c 0
972 825 m 1
 976 710 l 1
 939 710 l 1x000804920440
 935 825 l 1
 972 825 l 1
922 607 m 0
 943.355051229 607 946 632.403513053 946 678 c 1
 978 690 l 1
 978 650 l 2
 978 634 984 627 997 627 c 0
 1010 627 1017 635 1017 653 c 0
 1017 668 1014 683 1007 698 c 1
 1037 708 l 1
 1047 688 1052 669 1052 649 c 0
 1052 611 1036 592 1002 592 c 0x000805920240
 988 592 976 596 967 604 c 1
 958 581 941 570 916 570 c 0
 887 570 872 588 872 625 c 0
 872 634 873 646 876 660 c 1
 909 669 l 1
 907 654 905 641 905 631 c 0
 905 615 911 607 922 607 c 0
846 -367 m 0x880804920040
 866 -367 889 -357 889 -328 c 0
 889 -300 871 -276 808 -276 c 0
 796 -276 781 -278 766 -282 c 1
 775 -355 818 -367 846 -367 c 0x880804920040
835 -105 m 0x090804921040
 813 -105 769 -162 765 -244 c 1
 818 -237 857 -215 857 -150 c 0
 857 -133 852 -105 835 -105 c 0x090804921040
1103 -400 m 0x400804920050
 1087 -400 1075 -387 1075 -372 c 0
 1075 -357 1087 -344 1103 -344 c 0
 1118 -344 1130 -357 1130 -372 c 0
 1130 -387 1118 -400 1103 -400 c 0x400804920050
1179 -400 m 0
 1164 -400 1151 -387 1151 -372 c 0
 1151 -357 1164 -344 1179 -344 c 0
 1194 -344 1207 -357 1207 -372 c 0x400804920042
 1207 -387 1194 -400 1179 -400 c 0
682 319 m 0x00082492a040
 682 292 719 282 755 282 c 0x00084492a040
 766 282 777 283 787 285 c 1
 784 353 786 319 782 387 c 1
 718 380 682 347 682 319 c 0x00082492a040
1256 188 m 1x00080492004020
 1249 420 1253 304 1245 536 c 1
 1290 536 l 1x00080492004040
 1302 188 l 1
 1256 188 l 1x00080492004020
384 367 m 0
 384 383 396 395 411 395 c 0
 426 395 439 383 439 367 c 0
 439 352 426 340 411 340 c 0x000814920040
 396 340 384 352 384 367 c 0
384 291 m 0
 384 306 396 319 411 319 c 0
 426 319 439 306 439 291 c 0
 439 276 426 263 411 263 c 0x000824920040
 396 263 384 276 384 291 c 0
365 97 m 0x000904b60040
 365 70.4494230887 401.253704051 60.0116035333 437.092283287 60.0116035333 c 0
 448.497508864 60.0116035333 459.860692294 61.068703294 470 63 c 1
 465 165 l 1
 400 158 365 125 365 97 c 0x000904b60040
800.189377508 30.4062640593 m 0
 800.189377508 39.2334550094 778.189273539 123.01983125 743.027409054 123.01983125 c 0
 716.226167332 123.01983125 693.864864835 83.2770269687 683 62 c 1
 708 19 743 0 767 0 c 0
 786.369738955 0 800.189377508 11.100200804 800.189377508 30.4062640593 c 0
898 231 m 0x0008c4922040
 951 231 959 241 959 278 c 0x0008c49220c0
 959 404 956 362 949 536 c 1
 995 536 l 1x0008c4920140
 1004 303 l 1
 1004.99707031 246.193359375 1031.81738281 231.102539062 1065.65429688 231.000976562 c 0
 1118.06640625 231.083007812 1126 241.1484375 1126 277 c 0x0008c49200c4
 1126 285 1126 293 1125 302 c 2
 1115 536 l 1
 1160 536 l 1x0008c4920048
 1172 288 l 1
 1172 221 1152 185 1060 185 c 0
 1022 185 1001 202 991 222 c 1
 976 198 947 185 893 185 c 0
 844 185 808 199 794 242 c 1
 777 238 761 237 745 237 c 0
 686 237 638 264 638 312 c 0
 638 372 701 420 780 433 c 1
 779 461 780 447 778 476 c 1
 824 476 l 1x0008c492c044
 833 291 l 2
 835 239 858 231 898 231 c 0x0008c4922040
581 9 m 0x002904960040
 611 9 619 27 645 80 c 0
 681 150 720 168 746 168 c 0x002a04960040
 783 168 805 146 832 80 c 0
 856.892578125 18.2666015625 872.862304688 9.078125 902.61328125 9.0009765625 c 0
 979.392578125 9.1279296875 1053.15917969 33.1083984375 1113 74 c 1
 1084 100 1040 116 990 116 c 0
 972 116 960 115 940 110 c 1
 931 153 l 1
 951 159 971 162 990 162 c 0
 1088 162 1130 94 1188 94 c 2
 1200 94 l 1
 1204 54 l 1
 1108 54 1071 -37 897 -37 c 0x002c04960040
 868 -37 843 -28 829 -9 c 1
 815 -34 793 -45 768 -45 c 0x004804960040
 731 -45 689 -20 662 19 c 1
 633 -32 611 -37 575 -37 c 0
 526 -37 490 -23 476 20 c 1
 459.5198872 16.0364285672 443.170327574 14.1181901805 427.614028987 14.1181901805 c 0
 368.598775591 14.1181901805 321 41.7251503896 321 90 c 0
 321 150 384 198 462 211 c 1
 461 254 l 1
 506 254 l 1x002904ba0040
 515 69 l 2
 518 17 540 9 581 9 c 0x002904960040
EndSplineSet
EndChar

StartChar: uniFBC7
Encoding: 64455 64455 8
Width: 1564
VWidth: 800
GlyphClass: 1
Flags: HW
HStem: -411 45<660.189 753.296> -399 56<943.69 997.313 1020.69 1074.26> -301 45<363.101 444.936> -293 46<163.725 265.751 503.236 547.87 548 588.321 782.731 898.156 956.533 1095.75 1157.25 1297.53> -275 32<635.702 686.156> -134 45<355.016 418.684> -114 46<997 1094.54> -104 46<674.185 722.176> -91 46<1304.47 1406.52> -44 45<584.996 667.058> -36 46<392.434 487.08 726.247 895.239> 55 40<998.935 1068> 117 46<805.841 948.174> 124 45<577.016 640.684> 166 46<266.101 331> 186 46.0003<710.049 823.764 885.159 991.38> 264 56<252.69 306.313> 341 55<252.69 306.313> 388 46<583.753 648> 391 27<384.704 448.506> 498 28<450.917 484.332> 571 37<774.418 808.521> 593 35<846.331 882.48>
VStem: 100 46<-75.636 107> 111 46<-240.266 -3.545> 189 44<71.349 136.05> 252 55<264.741 319.259 341.687 395.31> 331 43<111.111 166 208.323 255> 338 45<61.398 166> 422 28<455.044 497.146> 487 28<448.202 494.491> 507 44<293.349 358.05> 648 44<333.111 388 429.44 477> 656 45<283.398 388> 726 45<-212.965 -104.417> 740 34<608.514 661> 807 37<711 826> 814 32<628.259 679> 817 46<433 537> 826 46<244.779 485> 885 36<635.235 698.671> 943 55<-398.259 -343.741> 983 45<391.273 537> 994 45<237.101 451.909> 1020 55<-398.259 -343.741> 1094.54 45.4546<-135.206 -111.191 -49.156 108> 1114 45<315.545 537> 1125 45<189 410.455> 1198 46<-13.916 117> 1244 46<-198.306 -105.987>
LayerCount: 2
Fore
SplineSet
446.206089586 -225.696287215 m 0
 446.206089586 -215.434789725 423.198628721 -133.980166422 389.988349552 -133.980166422 c 0
 389.660816818 -133.980166422 389.33137473 -133.986745011 389 -134 c 0
 372 -134 353 -148 330 -195 c 1x241088640080
 355 -237 389 -256 414 -256 c 0
 432.591746726 -256 446.206089586 -244.939102517 446.206089586 -225.696287215 c 0
1429 225 m 1
 1210 161 l 1
 1206 192 l 1
 1425 256 l 1
 1429 225 l 1
1424 29 m 1
 1301 -7 l 1
 1301 24 l 1
 1424 60 l 1
 1424 29 l 1
551 182 m 1x001088650080
 428 146 l 1
 428 177 l 1
 551 213 l 1
 551 182 l 1x001088650080
469 498 m 0
 459.011534061 498 450 488.987729592 450 479 c 0
 450 465.692353776 464.567944634 452.716027683 474 448 c 1
 483 456 487 465 487 475 c 0x001088660080
 487 487.208782637 483.643365851 498 469 498 c 0
470 526 m 0
 511.277307726 526 515 486.218644439 515 477 c 0
 515 419.418765852 450.065980877 394.285434917 386 391 c 1
 381 418 l 1x001098660080
 396.224570301 418.951535644 427.857142857 420.928571429 452 433 c 1
 427.124924559 448.546922151 422 464.898663281 422 479 c 0
 422 503.275706271 441.728665014 526 470 526 c 0
844 711 m 1x001088640880
 807 711 l 1
 803 826 l 1
 840 826 l 1
 844 711 l 1x001088640880
835 605 m 1
 829.44545557 591.113638924 815.895228125 571 784 571 c 0
 745.743461012 571 740 605.365179723 740 626 c 0
 740 631 741 636 741 642 c 0
 742 647 743 654 744 661 c 1
 778 670 l 1
 775 655 774 642 774 632 c 0
 774 616 779 608 790 608 c 0
 806.21294473 608 814 624.214350619 814 660 c 2
 814 679 l 1
 846 691 l 1
 846 651 l 2
 846 644.649122807 846 628 865 628 c 0
 873.720378379 628 885 628.918484188 885 654 c 0
 885 662.9 885 675.666666667 875 699 c 1
 905 709 l 1
 913.957321722 692.8768209 921 664.78319623 921 650 c 0
 921 649.235147073 920.372919971 593 870 593 c 0x00108a640480
 856 593 844 597 835 605 c 1
714 -366 m 0x881088640080
 734 -366 757 -356 757 -327 c 0
 757 -299 739 -275 676 -275 c 0
 664 -275 650 -277 635 -281 c 1
 643 -354 687 -366 714 -366 c 0x881088640080
703 -104 m 0x091088642080
 681 -104 637 -161 633 -243 c 1
 687 -236 726 -214 726 -149 c 0
 726 -132 720 -104 703 -104 c 0x091088642080
971 -399 m 0x4010886400c0
 955 -399 943 -386 943 -371 c 0
 943 -356 955 -343 971 -343 c 0
 986 -343 998 -356 998 -371 c 0
 998 -386 986 -399 971 -399 c 0x4010886400c0
1047 -399 m 0
 1032 -399 1020 -386 1020 -371 c 0
 1020 -356 1032 -343 1047 -343 c 0
 1062 -343 1075 -356 1075 -371 c 0x401088640088
 1075 -386 1062 -399 1047 -399 c 0
551 320 m 0x0010a8654080
 551 293.449423089 587.253704051 283.011603533 623.092283287 283.011603533 c 0
 634.497508864 283.011603533 645.860692294 284.068703294 656 286 c 1
 651 388 l 1
 586 381 551 348 551 320 c 0x0010a8654080
1125 189 m 1x001088640081
 1114 537 l 1
 1159 537 l 1x001088640082
 1170 189 l 1
 1125 189 l 1x001088640081
252 368 m 0
 252 384 264 396 280 396 c 0
 295 396 307 384 307 368 c 0
 307 353 295 341 280 341 c 0x0010c8640080
 264 341 252 353 252 368 c 0
252 292 m 0
 252 307 264 320 280 320 c 0
 295 320 307 307 307 292 c 0
 307 277 295 264 280 264 c 0
 264 264 252 277 252 292 c 0
233 98 m 0
 233 71.4494230887 269.253704051 61.0116035333 305.092283287 61.0116035333 c 0
 316.497508864 61.0116035333 327.860692294 62.068703294 338 64 c 1
 333 166 l 1x0012886c0080
 269 159 233 126 233 98 c 0
668.626950308 32.204415833 m 0
 668.626950308 44.4603695333 644.462840493 124.01983125 611.98817802 124.01983125 c 0
 585.101215718 124.01983125 563.570053672 87.6163551072 551 63 c 1x005488650080
 577 20 611 1 636 1 c 0
 654.879926983 1 668.626950308 12.4064525723 668.626950308 32.204415833 c 0
542.5390625 -292.999023438 m 0
 526.033449887 -292.999023438 493.165444028 -289.653011047 475 -265 c 1
 461 -290 439 -301 414 -301 c 0x20108864008040
 377 -301 335 -276 308 -237 c 1
 280 -288 258 -293 222 -293 c 0
 132 -293 113 -264 111 -197 c 2x101088e4008040
 100 107 l 1
 146 107 l 1x101089640080
 157 -180 l 2
 159 -234 163 -248 227 -248 c 0
 258 -248 265 -230 292 -177 c 0
 327 -106 366 -89 392 -89 c 0x141088e40080
 429 -89 451 -110 478 -177 c 0
 502.684570312 -238.216796875 518.594726562 -247.764648438 547.870117188 -247.99609375 c 1
 548 -247 l 1
 588 -247 l 1
 594 -135 655 -58 707 -58 c 0x111088e40080
 743 -58 771 -92 771 -144 c 0
 771 -176 763 -211 734 -235 c 1
 763 -242 795 -247 830 -247 c 0
 905 -247 904 -231 923 -132 c 1
 967 -141 l 1
 962 -161 955 -190 955 -208 c 0
 955 -231 952 -247 1038 -247 c 0
 1090.85903002 -247 1098.69631062 -236.767784224 1098.69631062 -201.654925566 c 0
 1098.69631062 -194.254273225 1098.34815531 -185.748348734 1098 -176 c 2
 1095.94628906 -111.19140625 l 1
 1075.46128611 -115.931214765 1055.19589878 -117.798960042 1036.81210717 -117.798960042 c 0
 1020.28476748 -117.798960042 1005.27819258 -116.289389625 993 -114 c 1x121088e42080
 997 -68 l 1
 1014.92600497 -70.6045425552 1031.30272171 -71.8007685137 1046.25953999 -71.8007685137 c 0
 1064.35625833 -71.8007685137 1080.37434036 -70.049573782 1094.54296875 -66.9228515625 c 1
 1089 108 l 1
 1135 108 l 1
 1139.99804688 -49.15625 l 1
 1155.137767 -39.9146812225 1199.65005116 -12.7435491209 1199.65005116 74.0733611079 c 0
 1199.65005116 86.2086431603 1199.0803329 100.254840031 1198 117 c 1x121888e4208480
 1244 118 l 1
 1244.64765004 108.932899375 1244.95449649 100.154171024 1244.95449649 91.6850381648 c 0
 1244.95449649 14.5689937108 1219.80684953 -57.6130251027 1141.46777344 -95.3701171875 c 1
 1144 -175 l 2
 1146 -232 1172 -247 1206 -247 c 0
 1276 -247 1293 -245 1301 -245 c 1
 1281 -233 1244 -204 1244 -152 c 0
 1244 -89 1292 -45 1359 -45 c 0
 1376 -45 1396 -49 1414 -54 c 1
 1404 -97 l 1
 1389 -93 1372 -91 1359 -91 c 0
 1318 -91 1290 -115 1290 -152 c 0
 1290 -199.197540502 1346.07693321 -228.025051161 1378.3736734 -228.025051161 c 0
 1379.12054546 -228.025051161 1397.5701861 -225.014197095 1448 -201 c 1
 1464 -242 l 1
 1389 -272 1316 -293 1200 -293 c 0x10988864008040
 1162 -293 1141 -276 1131 -256 c 1x20108864008040
 1117 -280 1087 -293 1033 -293 c 0x10108864008040
 960 -293 940 -281 932 -256 c 1x20108864008040
 910 -287 882 -293 825 -293 c 0
 811 -293 797 -292 782 -290 c 1
 791.434538965 -304.294756007 796.046652766 -320.305968429 796.046652766 -335.88378778 c 0
 796.046652766 -374.793849661 767.271970869 -411 713 -411 c 0
 649 -411 597 -371 589 -289 c 1
 564.158776993 -292.311716142 552.537613941 -293 543 -293 c 0
 542.846679688 -293 542.692382812 -292.999023438 542.5390625 -292.999023438 c 0
766.53515625 232 m 0x0011a8644080
 818.912332175 232.069323563 826.696247872 242.350783174 826.696247872 277.34491321 c 0
 826.696247872 284.745605769 826.348109056 293.251582627 826 303 c 2x0011a8644180
 817 537 l 1
 863 537 l 1x0011a8640280
 872 304 l 2
 873.993164062 247.196289062 899.821289062 232.103515625 933.6484375 232.000976562 c 0
 986.537977931 232.087955039 994.559193363 242.957946833 994.559193363 280.31631642 c 0
 994.559193363 286.999787567 994.302468159 294.531039733 994 303 c 2x0011a8640190
 983 537 l 1
 1028 537 l 1x0011a86400a0
 1039 308 l 2
 1039.37651579 300.56381309 1039.59354693 293.4465955 1039.59354693 286.654185278 c 0
 1039.59354693 221.285901585 1019.49297623 186 928 186 c 0
 890 186 869 203 859 223 c 1
 845 199 815 186 761 186 c 0
 712 186 676 200 662 243 c 1
 645.5198872 239.036428567 629.170327574 237.11819018 613.614028987 237.11819018 c 0
 554.598775591 237.11819018 507 264.72515039 507 313 c 0
 507 373 570 421 648 434 c 1
 647 477 l 1
 692 477 l 1x0011a8658090
 701 292 l 2
 703.98828125 240.197265625 725.833984375 232.061523438 766.53515625 232 c 0x0011a8644080
449 10 m 0x0032886c0080
 480 10 487 28 514 81 c 0
 549 151 588 169 614 169 c 0x0034886c0080
 651 169 673 147 700 81 c 0
 726 19 742 10 771 10 c 0
 848 10 921 34 981 75 c 1
 952 101 908 117 858 117 c 0
 840 117 828 116 808 111 c 1
 799 154 l 1
 819 160 839 163 858 163 c 0
 956 163 998 95 1056 95 c 2
 1068 95 l 1
 1072 55 l 1
 977 55 940 -36 766 -36 c 0x0038886c2080
 737 -36 712 -27 697 -8 c 1
 683 -33 661 -44 636 -44 c 0x0050886c2080
 599 -44 557 -19 530 20 c 1
 501 -31 480 -36 443 -36 c 0
 395 -36 358 -22 345 21 c 1
 328.311278178 17.0364285672 311.796627253 15.1181901805 296.109676902 15.1181901805 c 0
 236.598775591 15.1181901805 189 42.7251503896 189 91 c 0
 189 151 252 199 331 212 c 1
 329 255 l 1
 374 255 l 1x003288742080
 383 70 l 2
 386 18 409 10 449 10 c 0x0032886c0080
EndSplineSet
EndChar

StartChar: uniFBC8
Encoding: 64456 64456 9
Width: 1676
VWidth: 800
GlyphClass: 1
Flags: HW
HStem: -466 45<792.454 880.364> -357 44<498.322 578.553 1094.48 1175.57> -350 45<186.798 387.926 638.037 723 914 961.999 962 999.219 1234.58 1403.65> -343 43<184.923 239.156 635.225 676.344 1231.44 1273.3> -260 40<1499.55 1572> -205 42<1315.57 1364.16 1366.17 1467.09> -192 44<489.708 554.87 1086.33 1151.7 1312.72 1444.04> -163 45<805.908 852.048> -116 27<481.704 545.385> -97 45<189.984 374.125 698.224 866.245 944.969 1131.4 1300 1391.61> -9 28<550.094 581.28> 33 45<467.479 535.621> 89 45<831.53 955.558> 187 55<1063.69 1117.26 1139.69 1193.26> 271 45<852.31 946.457 1013.43 1111.9> 322 45<688.431 787> 470 46<714.949 780> 471 27<461.704 525.385> 578 28<530.094 561.28> 607 31<921.409 949.494> 625 29<982.806 1010.98>
VStem: 100 45<-9.388 116.298> 273 30<303 448> 428 42<-12.021 32.818> 499 28<534.636 574.429> 519 28<-52.587 -12.094> 542 44<254 429> 552 45<84.19 329> 564 28<528.202 574.491> 584 28<-58.798 -12.986> 634 46<120 302> 641 43<376.43 440.564> 645 46<-44.688 191.455> 723 45<-394.959 -346 -301 -210.747> 732 30<61 206> 782 41<416.444 470 512.541 558> 787 45<367.594 470> 858 45<-271.422 -166.659> 889 39<-413.994 -347.346> 894 27<638.233 682> 949 45<472.286 586> 949 30<723 818> 955 26<660.142 697> 958 44<11.02 83.145 326.382 541.778> 1013 30<657.199 716.53> 1063 55<187.687 241.259> 1110 45<492 667> 1121 45<322.19 565.182> 1136 42<-45.502 82.594> 1139 55<187.687 241.259> 1239 44<416.909 667> 1250 44<274 524.091> 1458 44<-0.426 169.591>
LayerCount: 2
Fore
SplineSet
762 61 m 1x883f2700200808
 732 61 l 1
 729 206 l 1
 759 206 l 1
 762 61 l 1x883f2700200808
303 303 m 1
 273 303 l 1
 270 448 l 1
 300 448 l 1
 303 303 l 1
566 -9 m 0
 554.758090956 -9 547 -16.7582616849 547 -28 c 0
 547 -47.9778534084 570.639652945 -58.8455655479 571 -59 c 0
 580 -51 584 -42 584 -32 c 0x883f2744000808
 584 -27.6067746084 582.996684456 -9 566 -9 c 0
567 19 m 0
 606.545921301 19 612 -19.5647740267 612 -30 c 0
 612 -84.9868891288 550.491082722 -112.538918835 483 -116 c 1
 478 -89 l 1x88bf2744000808
 494.780719281 -87.8812853813 525.307692308 -85.8461538462 549 -74 c 1
 534.277934442 -65.82107469 519 -51.6385670074 519 -28 c 0
 519 -2.03144476529 539.154758181 19 567 19 c 0
546 578 m 0
 536.49842411 578 527 570.671058777 527 559 c 0
 527 541.814152711 547.009277001 529.710309857 551 528 c 1
 560 536 564 545 564 555 c 0x883f2788000808
 564 563.597836504 561.662495547 578 546 578 c 0
547 606 m 0x883f6740000808
 586.545921301 606 592 567.435225973 592 557 c 0
 592 502.013110871 530.491082722 474.461081165 463 471 c 1
 458 498 l 1
 474.780719281 499.118714619 505.307692308 501.153846154 529 513 c 1
 519.845505531 518.08583026 499 532.568237537 499 559 c 0x883f6788000808
 499 584.968555235 519.154758181 606 547 606 c 0x883f6740000808
262 -92 m 0
 207.736525244 -92 100 -71.3843469202 100 35 c 0
 100 45.4902751209 101.698489314 82.4089121203 123 133 c 1
 162 117 l 1
 153.859316675 92.577950025 145 65.8144401944 145 39 c 0
 145 -40.4403969092 241.973311267 -47 274 -47 c 0
 371.450874662 -47 428 -11.1692662924 428 25 c 0
 428 48.6538461538 368.877506775 64.5714404836 345 71 c 1
 355 117 l 1
 384.953569241 105.176222668 455.23695224 78 493 78 c 0
 540.136351784 78 552.608657224 84.2994246911 552.608657224 129.048222629 c 0
 552.608657224 134.994703786 552.388413225 141.620148729 552 149 c 2x883f2710000808
 542 429 l 1
 586 429 l 1x883f2720000808
 597 154 l 2x883f2710000808
 597.232191699 147.963015831 597.362171034 142.147747299 597.362171034 136.555138141 c 0
 597.362171034 68.0954002891 577.885450342 33 488 33 c 2
 467 33 l 1
 467.051478151 32.8455655479 470 23.3790591206 470 17 c 0
 470 -28.000679977 407.779284717 -92 262 -92 c 0
1492 367 m 1
 1333 317 l 1
 1333 343 l 1
 1492 394 l 1
 1492 367 l 1
1422 80 m 1
 1263 30 l 1
 1263 56 l 1
 1422 107 l 1
 1422 80 l 1
944 212 m 1
 821 176 l 1
 821 202 l 1
 944 238 l 1
 944 212 l 1
1566 281 m 1
 1342 200 l 1
 1342 226 l 1
 1566 307 l 1
 1566 281 l 1
979 723 m 1x883f2700004808
 949 723 l 1
 946 818 l 1
 976 818 l 1
 979 723 l 1x883f2700004808
972 635 m 1
 971.623679608 633.996478954 961.210086053 607 930 607 c 0
 910.33311534 607 894 617.643548049 894 653 c 2
 894 666 l 1
 895 670 896 675 897 682 c 1
 924 689 l 1
 922 676 921 666 921 658 c 0
 921 645 926 638 935 638 c 0x883f3700012808
 952.529411765 638 954.126858797 665.156599553 955 680 c 2
 955 697 l 1
 981 707 l 1
 981 673 l 2
 981 667.666666667 981 654 997 654 c 0
 1004.0934792 654 1013 654.912339756 1013 676 c 0
 1013 676.068956401 1012.99479341 697.010413186 1005 713 c 1
 1030 721 l 1
 1034.39622642 710.742138365 1043 690.666666667 1043 673 c 0
 1043 672.362191251 1042.97076444 625 1001 625 c 0x883f2f00012808
 989 625 979 628 972 635 c 1
684 404 m 0x883fa701100808
 684 370.539813581 738.001556889 367 754 367 c 0
 766 367 777 368 787 370 c 1x883fa701080808
 782 470 l 1
 717.157293892 463.82450418 684 427.596298377 684 404 c 0x883fa701100808
988 308 m 1
 966.416666667 271 911.166666667 271 891 271 c 0
 870.532163743 271 813 271 794 328 c 1
 775 323 756 322 738 322 c 0
 681.304298219 327.967968609 641 349.066827272 641 397 c 0
 641 455.117098194 701.419603015 503.910708156 780 516 c 1
 779 558 l 1
 823 558 l 1x883fa701100908
 832 376 l 2
 834.41238421 334.989468433 846.713334191 316 897 316 c 0
 944.136351784 316 956.608657224 322.299424691 956.608657224 367.048222629 c 0
 956.608657224 372.994703786 956.388413225 379.620148729 956 387 c 2
 949 586 l 1
 994 586 l 1
 1001 388 l 2
 1003.08092724 348.462382452 1013.13331011 316 1062 316 c 0
 1108.85173713 316 1121.60868081 321.513105831 1121.60868081 366.993366819 c 0
 1121.60868081 372.950692681 1121.38980213 379.593759443 1121 387 c 2x883fa700008908
 1110 667 l 1
 1155 667 l 1x883fa700000a08
 1166 392 l 2x883fa700000908
 1166.20313988 386.718363032 1166.30879198 381.635907838 1166.30879198 376.747687749 c 0
 1166.30879198 299.823385796 1140.14481699 271 1056 271 c 0
 1036.50060056 271 1003.91420541 276.171589185 988 308 c 1
1294 274 m 1x883f2700000818
 1250 274 l 1x883f2700000818
 1239 667 l 1
 1283 667 l 1x883f2700000828
 1294 274 l 1x883f2700000818
580.407623614 -283.981328065 m 0
 580.407623614 -265.536610589 558.117155925 -192 524 -192 c 0xca3f2700000808
 505.980973906 -192 484.444636258 -213.43394237 466 -252 c 1
 473.927691994 -264.806271683 506.579944728 -313 549 -313 c 0xcc3f2700000808
 572.353411103 -313 580.407623614 -300.61729616 580.407623614 -283.981328065 c 0
609 -322 m 1
 598.747817445 -339.575170094 580.814584946 -357 550 -357 c 0xc83f2704420808
 540.862377202 -357 485.982720843 -354.359361232 444 -293 c 1
 432.381811832 -308.718725169 400.389375985 -352 300 -352 c 0
 262.333333333 -352 238.961651917 -348.309734513 180 -339 c 1
 186 -301 l 1
 203 -302 222 -304 240 -304 c 0
 260 -306 277 -306 293 -306 c 0
 389.400326216 -306 415.861875801 -261.276248397 429 -235 c 0
 452.48788198 -185.888974042 484.655567878 -148 528 -148 c 0
 550.893972552 -148 579.52640387 -153.175653905 613 -235 c 0
 635.12108305 -290.302707625 651.248817043 -305 683 -305 c 2
 703 -305 l 2
 710 -305 716 -305 723 -304 c 1
 726.115860793 -219.871758602 774.328077824 -118 840 -118 c 0
 871.379926092 -118 903 -145.160344371 903 -202 c 0
 903 -216.8 903 -260.933333333 866 -293 c 1
 917.285714286 -303.257142857 926 -305 961 -305 c 0
 961.3359375 -305 961.668945312 -305.00390625 962 -305 c 0xa93f2720440808
 973.62196325 -305 987.044466023 -304.259223294 1004 -276 c 0
 1034.88392857 -214.232142857 1068 -148 1124 -148 c 0
 1218.37971028 -148 1195.71901583 -305 1279 -305 c 0
 1315.5419596 -305 1405.36968695 -298.387468071 1486 -240 c 1
 1462.89775951 -218.547919548 1418.83368073 -198 1365 -198 c 0
 1356 -198 1348 -198 1342 -200 c 0
 1334 -200 1326 -202 1316 -205 c 1xac3f2720440808
 1307 -163 l 1
 1328 -156 1347 -153 1365 -153 c 0
 1464.6287558 -153 1496.36378151 -220 1561 -220 c 2
 1572 -220 l 1
 1576 -260 l 1
 1475.08837554 -260 1452.59310594 -350 1274 -350 c 0xa93f2720440808
 1251.69395836 -350 1223.65984254 -344.705511834 1206 -322 c 1
 1198.38885823 -335.047671612 1180.46261203 -357 1146 -357 c 0xc83f2720440808
 1114.87935548 -357 1071.73577545 -337.459979506 1042 -294 c 1
 1017.52251552 -340.235248455 993.264372421 -350 956 -350 c 0
 943 -350 929 -349 914 -347 c 1
 922 -360 926 -373 928 -386 c 0
 928 -448.423165777 880.392734429 -466 846 -466 c 0
 814 -466 786 -456 764 -436 c 0
 740 -417 727 -387 723 -346 c 1
 701.87037037 -349.018518519 695 -350 677 -350 c 0xa83f2700420808
 662.530014157 -350 628.550702355 -347.136617314 609 -322 c 1
768 -337 m 1
 771.827687501 -371.449187505 787.648708461 -421 847 -421 c 0
 855.669240532 -421 889 -418.680038343 889 -383 c 0x883f2700420808
 889 -345.357229293 856.347171785 -332 810 -332 c 0
 803 -332 796 -332 790 -334 c 0
 782 -334 775 -336 768 -337 c 1
858 -207 m 0x893f2700140808
 858 -206.508065045 857.575400252 -163 836 -163 c 0
 815.313331606 -163 770.035310765 -219.046609343 767 -301 c 1
 813.323886045 -292.82519658 858 -278.360561293 858 -207 c 0x893f2700140808
1178.32945629 -283.297984001 m 0
 1178.32945629 -278.65532234 1158.72540278 -192 1121 -192 c 0xca3f2700000d08
 1095.94874036 -192 1074.60848212 -227.727719209 1063 -252 c 1
 1067.16209006 -259.283657603 1099.43568568 -313 1146 -313 c 0
 1162.37447194 -313 1178.32945629 -303.357426223 1178.32945629 -283.297984001 c 0
826 63 m 1
 854 40 877 19 907 -13 c 1
 939 8 958 33 958 57 c 0x883f2700001808
 958 71 944 89 904 89 c 0
 879 89 844 78 826 63 c 1
1090 187 m 0
 1075 187 1063 199 1063 214 c 0
 1063 229 1075 242 1090 242 c 0
 1105 242 1118 229 1118 214 c 0x883f2700000c08
 1118 199 1105 187 1090 187 c 0
1166 187 m 0x883f2700000908
 1151 187 1139 199 1139 214 c 0x883f2700000848
 1139 229 1151 242 1166 242 c 0x883f2700000908
 1181 242 1194 229 1194 214 c 0x883f2700000848
 1194 199 1181 187 1166 187 c 0x883f2700000908
1295 -51 m 1
 1351.69488019 -48.1172094816 1471.62345822 -28.3267353235 1471.62345822 87.5245727386 c 0
 1471.62345822 107.326161558 1467.32235637 130.710574513 1458 168 c 1
 1502 178 l 1
 1510.31981201 148.048676773 1514.04441632 121.061513675 1514.04441632 96.8030772178 c 0
 1514.04441632 -48.6491732079 1380.13983964 -96 1300 -96 c 1
 1295 -51 l 1
761 -52 m 0x887f2700800808
 800 -52 836 -45 867 -33 c 1
 849 -12 827 10 800 29 c 0
 793 35 786 58 786 66 c 0
 786 89 847 134 913 134 c 0
 976 134 1002 102 1002 69 c 0
 1002 32 980 -5 944 -35 c 1
 975 -47 1014 -52 1051 -52 c 0
 1116 -52 1136 -49 1136 -4 c 0
 1136 24 1120 70 1104 113 c 1
 1149 129 l 1
 1163 93 1178 38 1178 5 c 0
 1178 -70 1139 -97 1045 -97 c 0
 996 -97 941 -86 901 -62 c 1
 861 -84 810 -97 756 -97 c 0
 666 -97 648 -68 645 -2 c 2x887f2700801888
 634 302 l 1
 680 302 l 1x887f2702000808
 691 16 l 2
 693 -38 698 -52 761 -52 c 0x887f2700800808
EndSplineSet
EndChar

StartChar: uniFBC9
Encoding: 64457 64457 10
Width: 1541
VWidth: 800
GlyphClass: 1
Flags: HW
HStem: -148 45<657.69 745.343> -39 45<363.101 444.936 958.809 1040.57> -32 45<164.307 264.269 504.548 587.673 779 826.999 827 863.823 1100.02 1268.43> 58 40<1364.76 1437> 116 27<198.704 262.506> 120 45<1181.47 1319.7> 126 44<353.429 420.104 951.786 1016.88> 155 45<670.441 717.048> 207 45<966 1058.35> 223 28<267.446 299.903> 226 45<446.179 552.285 618.48 716.42> 278 44<293.704 392> 425 46<320.216 385> 562 31<526.409 555.153> 580 29<587.806 616.184>
VStem: 100 46<186.364 369> 111 46<21.734 258.455> 184 30<352 497> 236 28<179.413 219.906> 246 43<331.43 395.768> 301 28<173.202 222.437> 387 41<371.444 425 467.541 513> 392 45<322.589 425> 499 27<593.14 637> 554 45<427.286 541> 554 30<678 773> 560 26<614.188 652> 561 45<282.229 541> 588 44<17 105.531> 618 30<612.199 671.53> 715 45<447 622> 723 45<46.578 151.34 277.19 482> 754 38<-94.762 -29.609> 844 44<371.909 622> 855 44<229 479.091> 1124 44<302.574 472.591>
LayerCount: 2
Fore
SplineSet
446.206054688 36.3037109375 m 0
 446.206054688 46.5654296875 423.198242188 128.01953125 389.98828125 128.01953125 c 0
 377.041015625 128.01953125 357.225585938 122.634765625 330 67 c 1xd018490010
 355 25 389 6 414 6 c 0
 432.591796875 6 446.206054688 17.060546875 446.206054688 36.3037109375 c 0
214 352 m 1
 184 352 l 1
 181 497 l 1
 211 497 l 1
 214 352 l 1
283 223 m 0x9158690010
 271.329101562 223 264 213.501953125 264 204 c 0
 264 184.022460938 287.639648438 173.154296875 288 173 c 0
 297 181 301 190 301 200 c 0
 301 204.05859375 300.084960938 223 283 223 c 0x9158690010
284 251 m 0
 325.27734375 251 329 211.21875 329 202 c 0
 329 144.418945312 264.06640625 119.28515625 200 116 c 1
 195 143 l 1x9858690010
 211.780273438 144.119140625 242.307617188 146.154296875 266 158 c 1
 241.107421875 171.829101562 236 188.36328125 236 204 c 0
 236 231.873046875 258.188476562 251 284 251 c 0
1232 584 m 1
 1008 503 l 1
 1008 529 l 1
 1232 610 l 1
 1232 584 l 1
584 678 m 1x9018494010
 554 678 l 1
 551 773 l 1
 581 773 l 1
 584 678 l 1x9018494010
577 590 m 1
 576.624023438 588.99609375 566.209960938 562 535 562 c 0
 526.290039062 562 499 562 499 608 c 0
 499 616 499.958007812 622.708007812 502 637 c 1
 529 644 l 1
 527 631 526 621 526 613 c 0
 526 600 531 593 540 593 c 0
 557.529296875 593 558.928710938 616.791015625 560 635 c 1
 560 652 l 1
 586 662 l 1
 586 628 l 2x901c492010
 586 609 596.333007812 609 602 609 c 0
 609.09375 609 618 609.912109375 618 631 c 0
 618 634.1328125 617.6640625 652.672851562 610 668 c 1
 635 676 l 1
 639.396484375 665.7421875 648 645.666992188 648 628 c 0
 648 626.462890625 647.655273438 580 606 580 c 0
 594 580 584 583 577 590 c 1
289 359 m 0x90185d0010
 289 325.540039062 343.001953125 322 359 322 c 0
 371 322 382 323 392 325 c 1x90185b0010
 387 425 l 1
 327.033203125 419.2890625 289 386.469726562 289 359 c 0x90185d0010
593 263 m 1
 580.989257812 242.41015625 553.405273438 226 496 226 c 0
 424.80078125 226 407.271484375 258.185546875 399 283 c 1
 384.908203125 279.291992188 370.817382812 277.233398438 356.725585938 277.233398438 c 2
 342 278 l 1
 321.935546875 278 246 287.172851562 246 352 c 0x9038591210
 246 415.639648438 313.522460938 460.00390625 385 471 c 1
 384 513 l 1
 428 513 l 1x90386d0010
 437 331 l 2
 439.359375 290.888671875 450.236328125 271 502 271 c 0
 549.147460938 271 561.622070312 276.71484375 561.622070312 321.6640625 c 0
 561.622070312 327.70703125 561.396484375 334.458007812 561 342 c 2x9038491010
 554 541 l 1
 599 541 l 1x9038498010
 606 343 l 2
 608.16015625 301.965820312 619.112304688 271 667 271 c 0
 714.424804688 271 726.623046875 277.49609375 726.623046875 321.715820312 c 0
 726.623046875 327.748046875 726.395507812 334.483398438 726 342 c 2
 715 622 l 1
 760 622 l 1
 771 347 l 2
 771.2109375 341.5078125 771.322265625 336.229492188 771.322265625 331.16015625 c 0
 771.322265625 254.928710938 746.263671875 226 661 226 c 0x9038491210
 641.500976562 226 608.9140625 231.171875 593 263 c 1
899 229 m 1x9018490030
 855 229 l 1x9018490030
 844 622 l 1
 888 622 l 1x9018490050
 899 229 l 1x9018490030
633 -19 m 1
 636.444335938 -49.9990234375 651.220703125 -103 712 -103 c 0
 720.668945312 -103 754 -100.6796875 754 -65 c 0x9018490090
 754 -27.357421875 721.34765625 -14 675 -14 c 0
 668 -14 668 -14 633 -19 c 1
723 111 m 0x9118490910
 723 111.4921875 722.575195312 155 701 155 c 0
 680.274414062 155 635.143554688 101.865234375 632 17 c 1
 683.22265625 26.0390625 723 43.310546875 723 111 c 0x9118490910
711 -148 m 0
 683.522460938 -148 598.8203125 -138.91015625 588 -28 c 1
 563.629882812 -31.4814453125 560 -32 542 -32 c 0xb018490890
 523.397460938 -32 493.231445312 -27.7431640625 475 -3 c 1
 461 -28 439 -39 414 -39 c 0
 377 -39 335 -14 308 25 c 1
 280 -26 258 -31 222 -31 c 0
 132 -31 113 -2 111 65 c 2xd018c90890
 100 369 l 1
 146 369 l 1xd019490010
 157 82 l 2
 159 28 163 14 227 14 c 0
 258 14 265 32 292 85 c 0
 327 156 366 173 392 173 c 0
 429 173 450.986328125 151.994140625 478 85 c 0
 506.936523438 13.236328125 523.734375 13 556.616210938 13 c 2
 568 13 l 2
 575 13 581 13 588 14 c 1
 591.739257812 114.9609375 648.931640625 200 705 200 c 0
 736.379882812 200 768 172.83984375 768 116 c 0xb918cb0910
 768 101.290039062 768 57.06640625 731 25 c 1
 776 16 l 1
 792 14 809 13 826 13 c 0
 852.868164062 13 854.983398438 16.857421875 890 83 c 0
 915.853515625 132.552734375 948.716796875 170 989 170 c 0xb218490210
 1011.13671875 170 1040.67675781 166.90234375 1075 83 c 0
 1096.04980469 30.376953125 1112.0703125 13 1144 13 c 0
 1180.54199219 13 1270.37011719 19.6123046875 1351 78 c 1
 1325.24414062 101.916015625 1279.79394531 120 1230 120 c 0xb418490210
 1211.58203125 120 1196.13867188 117.541015625 1181 113 c 1
 1172 155 l 1x9118490210
 1193 162 1212 165 1230 165 c 0
 1329.60449219 165 1361.41308594 98 1426 98 c 2
 1437 98 l 1
 1441 58 l 1
 1340.82910156 58 1316.69726562 -32 1139 -32 c 0xb418490210
 1122.29003906 -32 1090.07714844 -28.52734375 1071 -4 c 1
 1063.38867188 -17.0478515625 1045.46289062 -39 1011 -39 c 0xd018490210
 984.798828125 -39 939.627929688 -23.6875 907 24 c 1
 882.522460938 -22.2353515625 858.264648438 -32 821 -32 c 0
 808 -32 794 -31 779 -29 c 1
 784.02734375 -37.1689453125 792.564453125 -51.1552734375 792.564453125 -76.13671875 c 0
 792.564453125 -107.625976562 768.388671875 -148 711 -148 c 0
1042.00390625 34.41015625 m 0
 1042.00390625 53.5078125 1020.07910156 126 986 126 c 0x9218490010
 967.981445312 126 946.444335938 104.56640625 928 66 c 1
 962.413085938 5.77734375 1008.63574219 5 1011 5 c 0
 1033.99707031 5 1042.00390625 17.55078125 1042.00390625 34.41015625 c 0
961 252 m 1
 1017.6953125 254.8828125 1137.62304688 274.672851562 1137.62304688 390.524414062 c 0
 1137.62304688 410.326171875 1133.32226562 433.7109375 1124 471 c 1
 1168 481 l 1
 1176.31933594 451.048828125 1180.04394531 424.061523438 1180.04394531 399.802734375 c 0
 1180.04394531 254.350585938 1046.13964844 207 966 207 c 1x9098490010
 961 252 l 1
EndSplineSet
EndChar

StartChar: uniFBCA
Encoding: 64458 64458 11
Width: 1676
VWidth: 800
GlyphClass: 1
Flags: HW
HStem: -472 45<792.454 880.364> -364 45<497.101 578.936 1094.48 1175.57> -356 45<298.007 399.33 637.541 723 914 961.999 962 999.219 1234.58 1403.65> -266 40<1499.55 1572> -211 42<1315.57 1364.16 1366.17 1467.09> -204 45<1316.47 1454.69> -198 44<487.429 553.5 1086.33 1151.7> -169 45<805.908 852.048> -122 27<481.704 545.385> -103 45<286.752 373.992 698.224 866.245 944.969 1131.4> -15 28<550.094 581.28> 27 45<467.479 535.621> 83 45<831.53 955.558> 181 55<1063.69 1117.26 1139.69 1193.26> 265 45<852.31 946.457 1013.43 1111.9> 316 45<688.431 787> 464 46<714.949 780> 465 27<461.704 525.385> 572 28<530.094 561.28> 601 31<921.409 949.494> 619 29<982.806 1010.98>
VStem: 100 45<-15.388 110.298> 240.451 46.301<-105.909 -97.409 -50.558 134> 273 30<297 442> 428 42<-18.021 26.818> 499 28<528.636 568.429> 519 28<-58.587 -18.094> 542 44<248 423> 552 45<78.19 323> 564 28<522.202 568.491> 584 28<-64.798 -18.986> 634 46<114 296> 641 43<370.43 434.564> 645 46<-50.688 185.455> 723 45<-400.959 -352 -307 -216.747> 732 30<55 200> 782 41<410.444 464 506.541 552> 787 45<361.594 464> 858 45<-277.422 -172.659> 889 39<-419.994 -353.346> 894 27<632.233 676> 949 45<466.286 580> 949 30<717 812> 955 26<654.142 691> 958 44<5.02 77.145 320.382 447.333> 1013 30<651.199 710.53> 1063 55<181.687 235.259> 1110 45<486 661> 1121 45<316.19 559.182> 1136 42<-51.502 76.594> 1139 55<181.687 235.259> 1239 44<410.909 661> 1250 44<268 518.091> 1458 44<-6.426 163.591>
LayerCount: 2
Fore
SplineSet
464 -258 m 1xd03f2480000404
 489 -300 523 -319 548 -319 c 0
 573 -319 589 -299 575 -266 c 0
 562 -233 548 -196 523 -197 c 0
 506 -197 487 -211 464 -258 c 1xd03f2480000404
762 55 m 1x903f2480100404
 732 55 l 1
 729 200 l 1
 759 200 l 1
 762 55 l 1x903f2480100404
303 297 m 1x903f2580000404
 273 297 l 1
 270 442 l 1
 300 442 l 1
 303 297 l 1x903f2580000404
552 -20 m 0x903f2488000404
 549 -24 547 -29 547 -34 c 0
 547 -40 549 -46 554 -52 c 0
 559 -57 564 -62 571 -65 c 1
 580 -57 584 -48 584 -38 c 0x903f24a2000404
 584 -31 582 -26 580 -22 c 0
 576 -17 572 -15 566 -15 c 0
 561 -15 556 -17 552 -20 c 0x903f2488000404
576 -96 m 0
 553 -111 522 -120 483 -122 c 1
 478 -95 l 1x90bf24a2000404
 493 -94 507 -93 519 -90 c 0
 531 -87 541 -84 549 -80 c 1
 540 -75 533 -69 528 -62 c 0
 522 -54 519 -45 519 -34 c 0
 519 -21 524 -10 532 -1 c 0
 542 8 553 13 567 13 c 0
 582 13 593 8 600 -2 c 0
 608 -12 612 -23 612 -36 c 0
 612 -61 600 -81 576 -96 c 0
532 566 m 0
 529 563 527 558 527 553 c 0
 527 547 529 541 534 536 c 0
 539 530 544 525 551 522 c 1
 560 530 564 539 564 549 c 0x903f24c4000404
 564 556 562 561 560 566 c 0
 556 570 552 572 546 572 c 0
 541 572 536 570 532 566 c 0
556 491 m 0
 533 476 502 467 463 465 c 1
 458 492 l 1
 473 493 487 494 499 497 c 0
 511 500 521 503 529 507 c 1
 520 512 513 518 508 526 c 0
 502 533 499 542 499 553 c 0x903f64c4000404
 499 566 504 577 512 586 c 0
 522 595 533 600 547 600 c 0x903f64a0000404
 562 600 573 595 580 585 c 0
 588 575 592 564 592 551 c 0
 592 526 580 506 556 491 c 0
122 -42 m 0
 107 -22 100 1 100 29 c 0
 100 42 102 57 106 74 c 0
 109 90 115 108 123 127 c 1
 162 111 l 1
 157 96 152 82 150 69 c 0
 146 56 145 44 145 33 c 0
 145 13 151 -3 162 -16 c 0
 174 -29 190 -38 210 -44 c 0
 219.102539062 -46.8740234375 228.893554688 -49.060546875 239.15234375 -50.5576171875 c 1
 234 134 l 1
 280 134 l 1
 285.451171875 -52.83984375 l 1
 309.88671875 -52.1455078125 332.069335938 -49.19921875 352 -44 c 0
 375 -37 394 -28 408 -18 c 0
 421 -6 428 6 428 19 c 0
 428 28 421 36 406 44 c 0
 391 50 371 58 345 65 c 1
 355 111 l 1
 393 96 423 86 444 80 c 0
 465 75 482 72 493 72 c 0
 514 72 528 74 536 78 c 0
 545 82 550 89 551 100 c 0
 552 110 553 124 552 143 c 2xb03f2688210404
 542 423 l 1
 586 423 l 1xb03f2490000404
 597 148 l 2xb03f2488000404
 598 122 597 100 592 82 c 0xb03f2484000404
 587 64 577 50 561 41 c 0
 545 32 521 27 488 27 c 2
 467 27 l 1
 468 24 468 21 469 19 c 0
 470 17 470 14 470 11 c 0
 470 -7 462 -24 445 -41 c 0
 428 -58 404 -71 374 -82 c 0
 348.311523438 -90.830078125 319.401367188 -95.7939453125 286.751953125 -97.4091796875 c 1
 291 -243 l 2
 293 -297 297 -311 361 -311 c 0
 392 -311 399 -293 426 -240 c 0
 461 -169 500 -152 526 -152 c 0
 563 -152 585 -173 612 -240 c 0
 637 -302 653 -311 683 -311 c 0
 690 -311 696 -311 703 -311 c 0
 710 -311 716 -311 723 -310 c 1
 724 -283 729 -258 736 -235 c 0
 743 -212 753 -193 764 -176 c 0
 775 -159 788 -146 800 -138 c 0
 814 -128 827 -124 840 -124 c 0xb13f2682200404
 858 -124 873 -132 885 -147 c 0
 897 -162 903 -183 903 -208 c 0
 903 -224 900 -240 896 -256 c 0
 890 -272 881 -286 866 -299 c 1
 881 -302 896 -305 912 -308 c 0
 927 -310 944 -311 961 -311 c 0
 961.3359375 -311 961.668945312 -311.00390625 961.999023438 -311.010742188 c 1
 961.999023438 -311.006835938 962 -311.00390625 962 -311 c 1
 972 -311 980 -309 986 -304 c 0
 992 -299 998 -292 1004 -282 c 0
 1009 -272 1016 -258 1025 -241 c 0
 1037 -218 1049 -200 1061 -187 c 0
 1073 -174 1084 -166 1095 -161 c 0
 1106 -156 1115 -154 1124 -154 c 0xb23f2682220404
 1136 -154 1147 -157 1156 -162 c 0
 1166 -167 1175 -176 1184 -189 c 0
 1192 -202 1201 -219 1210 -241 c 0
 1218 -261 1226 -276 1232 -286 c 0
 1240 -296 1247 -303 1254 -306 c 0
 1261 -309 1270 -311 1279 -311 c 0
 1317 -311 1354 -305 1389 -294 c 0
 1424 -283 1457 -267 1486 -246 c 1
 1472 -233 1454 -223 1434 -216 c 0
 1412 -208 1390 -204 1365 -204 c 0xb43f2682220404
 1356 -204 1348 -204 1342 -206 c 0
 1334 -206 1326 -208 1316 -211 c 1x983f2682220404
 1307 -169 l 1x913f2682220404
 1328 -162 1347 -159 1365 -159 c 0
 1384 -159 1402 -161 1417 -166 c 0
 1432 -171 1446 -176 1459 -183 c 0
 1472 -190 1484 -196 1494 -203 c 0
 1506 -210 1516 -215 1527 -220 c 0
 1538 -224 1549 -226 1561 -226 c 2
 1572 -226 l 1
 1576 -266 l 1
 1557 -266 1540 -269 1524 -275 c 0
 1509 -281 1493 -288 1478 -298 c 0
 1463 -306 1446 -316 1428 -324 c 0
 1409 -334 1388 -341 1362 -347 c 0
 1338 -353 1308 -356 1274 -356 c 0
 1259 -356 1246 -354 1234 -349 c 0
 1223 -344 1213 -337 1206 -328 c 1
 1199 -340 1191 -349 1180 -354 c 0
 1169 -360 1158 -363 1146 -363 c 0
 1128 -363 1110 -357 1090 -346 c 0
 1072 -335 1055 -319 1042 -300 c 1
 1033 -317 1024 -329 1015 -337 c 0
 1006 -345 997 -350 988 -352 c 0
 979 -355 968 -356 956 -356 c 0
 943 -356 929 -355 914 -353 c 1
 922 -366 926 -379 928 -392 c 0
 928 -406 926 -419 920 -431 c 0
 914 -443 905 -453 892 -460 c 0
 880 -468 865 -472 846 -472 c 0
 814 -472 786 -462 764 -442 c 0
 740 -423 727 -393 723 -352 c 1
 716 -353 708 -354 700 -355 c 0
 693 -356 685 -356 677 -356 c 0xb43f2480210404
 648 -356 623 -347 609 -328 c 1
 595 -353 573 -364 548 -364 c 0xd03f2480210404
 511 -364 469 -339 442 -300 c 1
 414 -351 392 -356 356 -356 c 0
 266 -356 247 -327 245 -260 c 2
 240.451171875 -97.0615234375 l 1xb03f2680210404
 219.568359375 -95.22265625 199.9453125 -90.7294921875 182 -84 c 0
 156 -75 137 -60 122 -42 c 0
1492 361 m 1
 1333 311 l 1
 1333 337 l 1
 1492 388 l 1
 1492 361 l 1
1422 74 m 1
 1263 24 l 1
 1263 50 l 1
 1422 101 l 1
 1422 74 l 1
944 206 m 1
 821 170 l 1
 821 196 l 1
 944 232 l 1
 944 206 l 1
1566 275 m 1
 1342 194 l 1
 1342 220 l 1
 1566 301 l 1
 1566 275 l 1
979 717 m 1x903f2480002404
 949 717 l 1
 946 812 l 1
 976 812 l 1
 979 717 l 1x903f2480002404
956 609 m 0
 949 604 940 601 930 601 c 0
 915 601 906 606 901 616 c 0
 896 625 894 636 894 647 c 0
 894 651 894 655 894 660 c 0
 895 664 896 669 897 676 c 1
 924 683 l 1
 922 670 921 660 921 652 c 0
 921 639 926 632 935 632 c 0x903f3480009404
 940 632 945 635 948 640 c 0
 952 645 954 657 955 674 c 2
 955 691 l 1
 981 701 l 1
 981 667 l 2
 981 662 982 657 984 654 c 0
 986 650 990 648 997 648 c 0
 1004 648 1008 650 1010 654 c 0
 1012 658 1013 663 1013 670 c 0
 1013 676 1012 682 1011 688 c 0
 1010 695 1008 701 1005 707 c 1
 1030 715 l 1
 1033 708 1036 700 1039 691 c 0
 1042 682 1043 674 1043 667 c 0
 1043 655 1040 644 1032 634 c 0
 1026 624 1015 619 1001 619 c 0x903f2c80009404
 989 619 979 622 972 629 c 1
 969 621 963 614 956 609 c 0
754 361 m 0
 766 361 777 362 787 364 c 1x903fa480840404
 782 464 l 1
 761 462 744 457 729 450 c 0
 714 443 703 434 696 425 c 0
 688 416 684 407 684 398 c 0x903fa480880404
 684 389 687 382 694 377 c 0
 701 372 709 368 720 365 c 0
 731 362 742 361 754 361 c 0
954 274 m 0
 939 268 918 265 891 265 c 0
 867 265 846 269 830 278 c 0
 812 286 801 301 794 322 c 1
 775 317 756 316 738 316 c 0
 719 318 703 321 688 327 c 0
 673 333 662 341 654 352 c 0
 645 363 641 376 641 391 c 0
 641 410 647 428 660 445 c 0
 672 462 688 476 710 487 c 0
 730 498 754 506 780 510 c 1
 779 552 l 1
 823 552 l 1x903fa480880484
 832 370 l 2
 833 353 836 340 841 332 c 0
 846 323 854 318 863 314 c 0
 872 312 884 310 897 310 c 0
 918 310 932 312 940 316 c 0
 949 320 954 327 955 338 c 0x903fa480041404
 956 348 957 362 956 381 c 2
 949 580 l 1
 994 580 l 1
 1001 382 l 2
 1002 363 1005 349 1010 338 c 0
 1015 327 1022 320 1032 316 c 0
 1040 312 1051 310 1062 310 c 0
 1083 310 1097 312 1106 316 c 0
 1114 320 1119 327 1120 338 c 0
 1121 348 1122 362 1121 381 c 2x903fa480004484
 1110 661 l 1
 1155 661 l 1x903fa480000504
 1166 386 l 2x903fa480000484
 1167 360 1165 338 1160 320 c 0
 1156 302 1146 288 1130 279 c 0
 1114 270 1089 265 1056 265 c 0
 1037 265 1023 269 1012 276 c 0
 1001 283 993 292 988 302 c 1
 981 290 969 281 954 274 c 0
1294 268 m 1x903f248000040c
 1250 268 l 1x903f248000040c
 1239 661 l 1
 1283 661 l 1x903f2480000414
 1294 268 l 1x903f248000040c
824 -424 m 0
 833 -426 840 -427 847 -427 c 0
 856 -427 866 -424 875 -419 c 0
 884 -414 889 -404 889 -389 c 0xd03f2480210404
 889 -380 887 -371 882 -364 c 0
 877 -356 869 -350 858 -345 c 0
 847 -340 831 -338 810 -338 c 0
 803 -338 796 -338 790 -340 c 0
 782 -340 775 -342 768 -343 c 1xd03f2480220404
 770 -361 774 -376 780 -387 c 0
 786 -398 793 -407 800 -412 c 0
 808 -418 816 -422 824 -424 c 0
849 -176 m 0
 846 -172 841 -169 836 -169 c 0
 829 -169 820 -175 810 -186 c 0
 799 -198 790 -214 782 -235 c 0
 773 -256 768 -280 767 -307 c 1
 784 -304 800 -300 814 -294 c 0
 827 -287 838 -278 846 -265 c 0
 854 -252 858 -235 858 -213 c 0x913f24800a0404
 858 -208 857 -202 856 -194 c 0
 855 -188 852 -182 849 -176 c 0
1094 -211 m 0x983f2480000684
 1085 -220 1074 -235 1063 -258 c 1
 1075 -279 1089 -295 1104 -304 c 0
 1120 -314 1134 -319 1146 -319 c 0
 1159 -319 1168 -314 1174 -305 c 0
 1180 -296 1180 -283 1173 -267 c 0
 1169 -256 1164 -245 1160 -234 c 0
 1154 -223 1149 -215 1143 -208 c 0
 1137 -201 1130 -198 1121 -198 c 0xd23f2480000684
 1113 -198 1104 -202 1094 -211 c 0x983f2480000684
826 57 m 1
 854 34 877 13 907 -19 c 1
 939 2 958 27 958 51 c 0x903f2480000c04
 958 65 944 83 904 83 c 0
 879 83 844 72 826 57 c 1
1090 181 m 0
 1075 181 1063 193 1063 208 c 0
 1063 223 1075 236 1090 236 c 0
 1105 236 1118 223 1118 208 c 0x903f2480000604
 1118 193 1105 181 1090 181 c 0
1166 181 m 0x903f2480000484
 1151 181 1139 193 1139 208 c 0x903f2480000424
 1139 223 1151 236 1166 236 c 0x903f2480000484
 1181 236 1194 223 1194 208 c 0x903f2480000424
 1194 193 1181 181 1166 181 c 0x903f2480000484
1300 -102 m 1
 1295 -57 l 1
 1413 -51 1455 0 1467 47 c 0
 1475 78 1473 102 1458 162 c 1
 1502 172 l 1
 1517 118 1517 72 1508 41 c 0
 1479 -73 1360 -102 1300 -102 c 1
761 -58 m 0x907f2480400404
 800 -58 836 -51 867 -39 c 1
 849 -18 827 4 800 23 c 0
 793 29 786 52 786 60 c 0
 786 83 847 128 913 128 c 0
 976 128 1002 96 1002 63 c 0
 1002 26 980 -11 944 -41 c 1
 975 -53 1014 -58 1051 -58 c 0
 1116 -58 1136 -55 1136 -10 c 0
 1136 18 1120 64 1104 107 c 1
 1149 123 l 1
 1163 87 1178 32 1178 -1 c 0
 1178 -76 1139 -103 1045 -103 c 0
 996 -103 941 -92 901 -68 c 1
 861 -90 810 -103 756 -103 c 0
 666 -103 648 -74 645 -8 c 2x907f2480400c44
 634 296 l 1
 680 296 l 1x907f2481000404
 691 10 l 2
 693 -44 698 -58 761 -58 c 0x907f2480400404
EndSplineSet
EndChar

StartChar: uniFBCB
Encoding: 64459 64459 12
Width: 2153
VWidth: 800
GlyphClass: 1
Flags: HW
HStem: -395 44<786.322 866.553> -388 46<474.798 677.06 925.441 970.87 971 1174.3 1232.02 1399.58> -377 38<473.053 527.156 925.441 970.404> -230 44<777.708 842.87> -220 45<1561 1701.26> -187 45<1404.73 1507.45> -173 55<1179.24 1217.76> -155 45<189.984 374.125 698.224 866.245 944.969 1131.4> -75 45<1285.59 1490.13> -25 45<467.479 535.621> 31 45<831.53 955.558> 43 46<1781 1975.31> 129 55<1063.69 1117.26 1139.69 1193.26> 214 45<865.217 970.808 1037.43 1135.9 1887.34 1998.12> 266 44<712.704 811> 316 55<1910.74 1964.31> 413 46<738.949 804> 451 27<563.704 627.385> 550 31<945.409 973.494> 558 28<632.094 663.28> 568 29<1006.81 1034.98>
VStem: 100 45<-67.388 58.298> 273 30<245 390> 428 42<-70.021 -25.182> 542 44<196 371> 544 30<-226 -81> 552 45<26.19 271> 601 28<514.636 554.429> 634 46<62 244> 645 46<-102.688 133.455> 665 43<319.43 383.564> 666 28<508.202 554.491> 732 30<3 148> 806 41<359.444 413 455.541 501> 811 45<310.589 413> 918 27<581.14 625> 958 44<-46.98 25.145> 973 45<415.286 529> 973 30<666 761> 979 26<602.188 640> 980 45<270.229 529> 1037 30<600.199 659.53> 1063 55<129.687 183.259> 1136 42<-103.502 24.594 454.444 610> 1139 55<129.687 183.259 265.19 386> 1171 55<-164.764 -126.282> 1203 45<4.786 140.957> 1263 44<359.909 610> 1274 44<217 467.091> 1345 45<-294.75 -202.074> 1535 42<6.488 50.753> 1759 45<-119.713 13> 1910 55<316.687 370.259> 2010 43<119.56 201.821>
LayerCount: 2
Fore
SplineSet
1003 666 m 1x00cf071092007c
 973 666 l 1
 970 761 l 1
 1000 761 l 1
 1003 666 l 1x00cf071092007c
980 558 m 0x00cf171090c07c
 973 553 964 550 954 550 c 0
 939 550 930 555 925 564 c 0
 920 574 918 585 918 596 c 0
 918 600 918 604 918 608 c 0
 919 613 920 618 921 625 c 1
 948 632 l 1
 946 619 945 609 945 601 c 0
 945 588 950 581 959 581 c 0x00cf271090c07c
 964 581 969 584 972 589 c 0
 976 594 978 606 979 623 c 2
 979 640 l 1
 1005 650 l 1
 1005 616 l 2
 1005 611 1006 606 1008 602 c 0
 1010 599 1014 597 1021 597 c 0
 1028 597 1032 599 1034 603 c 0
 1036 607 1037 612 1037 619 c 0x00cf0f1091407c
 1037 625 1036 631 1035 638 c 0
 1034 644 1032 650 1029 656 c 1
 1054 664 l 1
 1057 657 1060 649 1063 640 c 0x00cf0f1090207c
 1066 631 1067 623 1067 616 c 0
 1067 604 1064 593 1056 583 c 0
 1050 573 1039 568 1025 568 c 0x00cf0f1090c07c
 1013 568 1003 571 996 578 c 1
 993 570 987 563 980 558 c 0x00cf171090c07c
778 310 m 0
 790 310 801 311 811 313 c 1x00cf8712b0007c
 806 413 l 1
 785 411 768 406 753 399 c 0
 738 392 727 383 720 374 c 0
 712 365 708 356 708 347 c 0x00cf8712d0007c
 708 338 711 331 718 326 c 0
 725 321 733 317 744 314 c 0
 755 311 766 310 778 310 c 0
978 224 m 0
 963 217 942 214 915 214 c 0
 891 214 870 218 854 226 c 0
 836 235 825 250 818 271 c 1
 799 266 780 264 762 266 c 0
 743 266 727 270 712 276 c 0
 697 282 686 290 678 301 c 0
 669 312 665 325 665 340 c 0
 665 359 671 377 684 394 c 0
 696 411 712 425 734 436 c 0
 754 447 778 455 804 459 c 1
 803 501 l 1
 847 501 l 1x00cf8712d0807c
 856 319 l 2
 857 302 860 289 865 280 c 0
 870 272 878 266 887 264 c 0
 896 260 908 259 921 259 c 0
 942 259 956 261 964 265 c 0
 973 269 978 276 979 286 c 0x00cf8710b1007c
 980 297 981 311 980 330 c 2x00cf871090807c
 973 529 l 1
 1018 529 l 1x00cf871094007c
 1025 331 l 2x00cf871090807c
 1026 312 1029 298 1034 287 c 0
 1039 276 1046 269 1056 265 c 0
 1064 261 1075 259 1086 259 c 0
 1107 259 1121 261 1130 265 c 0
 1138 269 1143 276 1144 286 c 0
 1145 297 1146 311 1145 330 c 2
 1134 610 l 1
 1179 610 l 1
 1190 335 l 2
 1191 309 1189 287 1184 269 c 0
 1180 251 1170 237 1154 228 c 0
 1138 219 1113 214 1080 214 c 0
 1061 214 1047 218 1036 225 c 0
 1025 232 1017 241 1012 251 c 1
 1005 239 993 230 978 224 c 0
1318 217 m 1x00cf07109000fc
 1274 217 l 1x00cf07109000fc
 1263 610 l 1
 1307 610 l 1x00cf071090017c
 1318 217 l 1x00cf07109000fc
1586 271 m 1
 1427 221 l 1
 1427 247 l 1
 1586 298 l 1
 1586 271 l 1
1218 -165 m 0
 1213 -170 1206 -173 1199 -173 c 0
 1191 -173 1184 -170 1179 -165 c 0
 1174 -160 1171 -153 1171 -146 c 0
 1171 -139 1174 -132 1179 -126 c 0
 1184 -121 1191 -118 1199 -118 c 0
 1206 -118 1213 -121 1218 -126 c 0
 1223 -132 1226 -139 1226 -146 c 0x02cf071090047c
 1226 -153 1223 -160 1218 -165 c 0
577 -226 m 1
 547 -226 l 1
 544 -81 l 1
 574 -81 l 1x00cf075090007c
 577 -226 l 1
762 3 m 1
 732 3 l 1
 729 148 l 1
 759 148 l 1
 762 3 l 1
303 245 m 1
 273 245 l 1
 270 390 l 1
 300 390 l 1
 303 245 l 1
634 552 m 0x00cf171890007c
 631 549 629 544 629 539 c 0
 629 533 631 527 636 522 c 0
 641 516 646 511 653 508 c 1
 662 516 666 525 666 535 c 0x00cf171190007c
 666 542 664 547 662 552 c 0
 658 556 654 558 648 558 c 0
 643 558 638 556 634 552 c 0x00cf171890007c
658 477 m 0
 635 462 604 453 565 451 c 1
 560 478 l 1x00cf571190007c
 575 479 589 480 601 483 c 0
 613 486 623 489 631 493 c 1
 622 498 615 504 610 512 c 0
 604 519 601 528 601 539 c 0
 601 552 606 563 614 572 c 0
 624 581 635 586 649 586 c 0
 664 586 675 581 682 571 c 0
 690 561 694 550 694 537 c 0
 694 512 682 492 658 477 c 0
122 -94 m 0
 107 -74 100 -51 100 -23 c 0
 100 -10 102 5 106 22 c 0
 109 38 115 56 123 75 c 1
 162 59 l 1
 157 44 152 30 150 17 c 0
 146 4 145 -8 145 -19 c 0
 145 -39 151 -55 162 -68 c 0
 174 -81 190 -90 210 -96 c 0
 229 -102 251 -105 274 -105 c 0
 303 -105 329 -102 352 -96 c 0
 375 -89 394 -80 408 -70 c 0
 421 -58 428 -46 428 -33 c 0
 428 -24 421 -16 406 -8 c 0
 391 -2 371 6 345 13 c 1
 355 59 l 1
 393 44 423 34 444 28 c 0
 465 23 482 20 493 20 c 0
 514 20 528 22 536 26 c 0
 545 30 550 37 551 48 c 0
 552 58 553 72 552 91 c 2x00cf073090007c
 542 371 l 1
 586 371 l 1x00cf079090007c
 597 96 l 2x00cf073090007c
 598 70 597 48 592 30 c 0
 587 12 577 -2 561 -11 c 0
 545 -20 521 -25 488 -25 c 2
 467 -25 l 1
 468 -28 468 -31 469 -33 c 0
 470 -35 470 -38 470 -41 c 0
 470 -59 462 -76 445 -93 c 0
 428 -110 404 -123 374 -134 c 0
 342 -145 305 -150 262 -150 c 0
 233 -150 206 -145 182 -136 c 0
 156 -127 137 -112 122 -94 c 0
826 5 m 1
 854 -18 877 -39 907 -71 c 1
 939 -50 958 -25 958 -1 c 0
 958 13 944 31 904 31 c 0x00ef071098007c
 879 31 844 20 826 5 c 1
1090 129 m 0
 1075 129 1063 141 1063 156 c 0
 1063 171 1075 184 1090 184 c 0
 1105 184 1118 171 1118 156 c 0x00cf071090207c
 1118 141 1105 129 1090 129 c 0
1166 129 m 0
 1151 129 1139 141 1139 156 c 0
 1139 171 1151 184 1166 184 c 0
 1181 184 1194 171 1194 156 c 0x00cf071090087c
 1194 141 1181 129 1166 129 c 0
834 -240 m 0
 828 -233 821 -230 812 -230 c 0
 804 -230 795 -234 786 -243 c 0
 776 -252 765 -267 754 -290 c 1
 767 -311 781 -327 796 -336 c 0
 811 -346 825 -351 837 -351 c 0x90cf071090007c
 850 -351 859 -346 865 -337 c 0
 871 -328 871 -315 865 -299 c 0
 860 -288 856 -277 850 -266 c 0
 846 -255 840 -247 834 -240 c 0
872 -386 m 0
 861 -392 850 -395 838 -395 c 0x80cf071890017c
 819 -395 800 -389 781 -378 c 0
 762 -366 745 -350 732 -331 c 1
 715 -354 694 -369 669 -378 c 0
 644 -386 617 -390 588 -390 c 0
 568 -390 548 -389 528 -386 c 0
 507 -383 487 -380 468 -377 c 1
 474 -339 l 1x20cf071890017c
 491 -340 510 -342 528 -342 c 0
 548 -344 565 -344 581 -344 c 0
 600 -344 618 -342 634 -338 c 0
 652 -335 667 -328 681 -318 c 0
 695 -308 707 -293 717 -273 c 0
 728 -250 739 -232 751 -219 c 0
 763 -206 775 -198 786 -193 c 0
 797 -188 807 -186 816 -186 c 0x50cf071890017c
 828 -186 839 -189 848 -194 c 0
 857 -199 866 -208 874 -221 c 0
 883 -234 892 -251 901 -273 c 0
 909 -293 916 -308 924 -318 c 0
 930 -328 938 -335 945 -338 c 0
 951.969726562 -340.987304688 960.921875 -342.982421875 970.869140625 -343 c 1
 971 -342 l 1
 1119 -342 l 2
 1121.94238281 -342 1124.47851562 -342.270507812 1126.70898438 -342.811523438 c 0
 1179.06542969 -340.7734375 1180.08300781 -321.041015625 1197 -228 c 1
 1241 -237 l 1
 1236 -257 1229 -286 1229 -304 c 0
 1229 -326 1237 -343 1307 -343 c 0
 1377 -343 1394 -341 1401 -340 c 1
 1381 -329 1345 -299 1345 -248 c 0
 1345 -185 1392 -142 1459 -142 c 0
 1476 -142 1496 -145 1514 -151 c 1
 1505 -193 l 1
 1490 -189 1472 -187 1459 -187 c 0
 1419 -187 1390 -211 1390 -248 c 0
 1390 -296 1448 -324 1480 -323 c 1
 1498 -318 1506 -316 1549 -297 c 1
 1564 -337 l 1
 1490 -368 1417 -388 1301 -388 c 0x44cf071890017c
 1243 -388 1218 -376 1207 -351 c 1x80cf071890017c
 1186.546875 -381.192382812 1161.35058594 -387.670898438 1114.78125 -387.987304688 c 0
 1114.52246094 -387.99609375 1114.26171875 -388 1114 -388 c 2
 1111 -388 l 1
 965 -388 l 2x40cf071890017c
 951 -388 938 -386 926 -381 c 0
 914 -376 904 -369 897 -360 c 1
 890 -372 882 -381 872 -386 c 0
1203 53 m 0x00df071090027c
 1203 80 1210 112 1226 151 c 1x00df071090047c
 1266 136 l 1
 1254 105 1248 79 1248 57 c 0
 1248 -5 1308 -30 1379 -30 c 0
 1465 -30 1535 2 1535 42 c 0
 1535 62 1504 74 1450 89 c 1
 1461 135 l 1
 1528.87792969 108.553710938 1568.00390625 98.4267578125 1591.39160156 96.3984375 c 0
 1635.16210938 100.012695312 1643.31738281 128.75390625 1661 206 c 1
 1702 196 l 1
 1695 170 1690 147 1690 137 c 0
 1690 116 1699 103 1735 96 c 1
 1783 171 1868 258 1954 258 c 0
 2015 258 2053 218 2053 165 c 0
 2053 99 2001 43 1845 43 c 0
 1726 43 1682 58 1668 92 c 1
 1648.93164062 65.1630859375 1627.86816406 55.783203125 1605.16210938 52.587890625 c 0
 1602.04199219 51.564453125 1598.62304688 51 1595 51 c 2
 1576 51 l 1
 1574 51 l 1
 1575 44 1577 41 1577 35 c 0
 1577 -20 1498 -75 1367 -75 c 0
 1279 -75 1203 -34 1203 53 c 0x00df071090027c
1938 316 m 0
 1923 316 1910 328 1910 343 c 0
 1910 358 1923 371 1938 371 c 0
 1953 371 1965 358 1965 343 c 0
 1965 328 1953 316 1938 316 c 0
1951 213 m 0
 1884 213 1813 135 1781 91 c 1
 1801 90 1825 89 1855 89 c 0
 1953 89 2010 113 2010 160 c 0
 2010 184 1993 213 1951 213 c 0
1558 -220 m 1x08cf071090007c
 1561 -175 l 1
 1678 -189 1728 -146 1748 -101 c 0
 1761 -73 1763 -49 1759 13 c 1
 1804 15 l 1
 1809 -41 1801 -86 1788 -115 c 0
 1739 -222 1617 -230 1558 -220 c 1x08cf071090007c
761 -110 m 0x01ef071490007c
 800 -110 836 -103 867 -91 c 1
 849 -70 827 -48 800 -29 c 0
 793 -23 786 0 786 8 c 0
 786 31 847 76 913 76 c 0
 976 76 1002 44 1002 11 c 0
 1002 -26 980 -63 944 -93 c 1
 975 -105 1014 -110 1051 -110 c 0
 1116 -110 1136 -107 1136 -62 c 0
 1136 -34 1120 12 1104 55 c 1
 1149 71 l 1
 1163 35 1178 -20 1178 -53 c 0
 1178 -128 1139 -155 1045 -155 c 0
 996 -155 941 -144 901 -120 c 1
 861 -142 810 -155 756 -155 c 0
 666 -155 648 -126 645 -60 c 2x01ef071498107c
 634 244 l 1
 680 244 l 1x01ef071890007c
 691 -42 l 2
 693 -96 698 -110 761 -110 c 0x01ef071490007c
EndSplineSet
EndChar

StartChar: uniFBCC
Encoding: 64460 64460 13
Width: 1428
VWidth: 800
GlyphClass: 1
Flags: HW
HStem: -139 45<303.062 401.751 437 623.582 681.631 830.705 943.367 1151.65> -49 40<1254.98 1324> 13 46<1062.84 1204.42> 23 45<536.72 651.749> 48 46<851.37 923.42> 62 46<176.753 241> 126 55<551.69 605.313> 151 55<857.69 911.313> 200 27<224.704 288.106> 229 45<581.3 686.433 753.367 851.419> 280 45<428.409 527> 307 28<293.183 325.468> 428 46<454.985 520> 565 31<661.339 689.483> 583 29<722.806 751.171>
VStem: 100 44<-32.1516 32.1316> 241 43<7.6667 62 104.323 150> 248 45<-42.5362 62> 262 28<263.112 303.906> 327 28<257.202 306.413> 381 43<334.43 398.768> 395 45<68.2 260> 406 44<-14 141.091> 522 41<374.444 428 470.541 516> 527 45<325.594 428> 551 55<126.687 180.259> 634 27<596.233 640> 662 42<-63.5532 11.5735> 689 45<430.286 544> 689 30<681 776> 695 26<618.142 655> 696 45<284.942 544> 753 30<618.188 670.719> 793 45<-60.098 35.1537> 850 45<450 625> 857 55<151.687 205.259 280.19 463.235> 936 45<-56.4704 36.5559> 979 44<374.909 625> 990 44<232 482.091>
LayerCount: 2
Fore
SplineSet
295 302 m 0xc0593020c0
 292 298 290 293 290 288 c 0
 290 282 292 276 297 270 c 0
 301 265 307 260 314 257 c 1
 322 265 327 274 327 284 c 0
 327 291 325 296 322 300 c 0
 319 305 315 307 309 307 c 0
 303 307 299 305 295 302 c 0xc0593020c0
319 226 m 0
 296 211 264 202 226 200 c 1
 221 227 l 1xc0d93020c0
 236 228 250 229 262 232 c 0
 274 235 284 238 292 242 c 1
 283 247 276 253 270 260 c 0
 265 268 262 277 262 288 c 0
 262 301 266 312 275 321 c 0
 284 330 296 335 310 335 c 0
 324 335 336 330 343 320 c 0
 351 310 355 299 355 286 c 0
 355 261 343 241 319 226 c 0
1191 194 m 1
 942 132 l 1
 942 177 l 1
 1191 240 l 1
 1191 194 l 1
828 -204 m 1
 579 -266 l 1
 579 -221 l 1
 828 -158 l 1
 828 -204 l 1
719 681 m 1xc0491024c0
 689 681 l 1
 686 776 l 1
 716 776 l 1
 719 681 l 1xc0491024c0
696 573 m 0xc04b1021c0
 688 568 680 565 670 565 c 0
 655 565 645 570 641 580 c 0
 636 589 634 600 634 611 c 0
 634 615 634 619 634 624 c 0
 635 628 635 633 637 640 c 1
 664 647 l 1
 662 634 661 624 661 616 c 0
 661 603 665 596 675 596 c 0
 680 596 685 599 688 604 c 0
 692 609 694 621 695 638 c 2
 695 655 l 1
 721 665 l 1
 721 631 l 2xc04d1022c0
 721 626 722 621 724 618 c 0
 726 614 730 612 737 612 c 0
 743 612 748 614 750 618 c 0
 752 622 753 627 753 634 c 0
 753 640 752 646 751 652 c 0
 749 659 747 665 745 671 c 1
 770 679 l 1
 773 672 776 664 779 655 c 0
 781 646 783 638 783 631 c 0
 783 619 779 608 772 598 c 0
 765 588 755 583 741 583 c 0
 729 583 719 586 712 593 c 1
 708 585 703 578 696 573 c 0xc04b1021c0
494 325 m 0xc0691920c0
 506 325 517 326 527 328 c 1xc06918a0c0
 522 428 l 1
 501 426 483 421 469 414 c 0
 454 407 443 398 435 389 c 0
 428 380 424 371 424 362 c 0
 424 353 427 346 434 341 c 0
 440 336 449 332 460 329 c 0
 470 326 482 325 494 325 c 0xc0691920c0
694 238 m 0
 678 232 657 229 631 229 c 0
 607 229 586 233 569 242 c 0
 552 250 540 265 534 286 c 1
 514 281 496 280 477 280 c 0
 459 282 442 285 428 291 c 0
 413 297 402 305 393 316 c 0
 385 327 381 340 381 355 c 0
 381 374 387 392 399 409 c 0
 412 426 428 440 449 451 c 0
 470 462 494 470 520 474 c 1
 519 516 l 1
 563 516 l 1xc0691921e0
 572 334 l 2
 572 317 575 304 581 296 c 0
 586 287 593 282 603 278 c 0
 612 276 623 274 637 274 c 0
 657 274 672 276 680 280 c 0
 689 284 693 291 695 302 c 0xc06910a2c0
 696 312 696 326 696 345 c 2xc0691021c0
 689 544 l 1
 734 544 l 1xc0691028c0
 741 346 l 2
 741 327 744 313 750 302 c 0
 755 291 762 284 771 280 c 0
 780 276 790 274 802 274 c 0
 822 274 837 276 845 280 c 0
 854 284 858 291 860 302 c 0
 861 312 861 326 861 345 c 2
 850 625 l 1
 895 625 l 1xc0691021e0
 906 350 l 2
 906 324 905 302 900 284 c 0
 896 266 886 252 870 243 c 0
 854 234 829 229 796 229 c 0
 777 229 762 233 752 240 c 0
 741 247 733 256 728 266 c 1
 720 254 709 245 694 238 c 0
1034 232 m 1xc0491020c2
 990 232 l 1xc0491020c2
 979 625 l 1
 1023 625 l 1xc0491020c4
 1034 232 l 1xc0491020c2
144 -5 m 0
 144 -40 207 -48 248 -40 c 1
 243 62 l 1xc4495020c0
 179 55 144 22 144 -5 c 0
579 126 m 0xc2491060c0
 563 126 551 138 551 153 c 0
 551 168 563 181 579 181 c 0
 594 181 606 168 606 153 c 0
 606 138 594 126 579 126 c 0xc2491060c0
603 23 m 0xd0491030c0
 538 23 471 -49 437 -94 c 1
 475 -94 l 2
 604 -94 662 -72 662 -25 c 0
 662 -6 644 23 603 23 c 0xd0491030c0
885 151 m 0xc1491020d0
 869 151 857 163 857 178 c 0
 857 193 869 206 885 206 c 0
 900 206 912 193 912 178 c 0
 912 163 900 151 885 151 c 0xc1491020d0
838 -13 m 0
 838 -42 859 -64 882 -77 c 1
 912 -64 936 -42 936 -10 c 0
 936 15 916 48 888 48 c 0xc8491020c8
 862 48 838 17 838 -13 c 0
359 -94 m 2
 387 -94 l 1
 392 -85 399 -75 406 -67 c 1xe4495220c0
 395 260 l 1
 440 260 l 1xe4491420c0
 450 -14 l 1
 495 32 551 68 606 68 c 0xd0491260c0
 667 68 704 28 704 -25 c 0
 704 -45 697 -65 681 -83 c 1
 705 -92 731 -94 753 -94 c 0
 778 -94 807 -93 832 -90 c 1
 814 -74 793 -48 793 -12 c 0
 793 48 839 94 890 94 c 0
 944 94 981 42 981 -7 c 0xc8491270c8
 981 -42 966 -69 942 -90 c 1
 972 -92 1006 -94 1028 -94 c 0
 1104 -94 1178 -70 1237 -29 c 1
 1208 -3 1165 13 1115 13 c 0
 1097 13 1085 12 1065 7 c 1
 1056 50 l 1
 1076 56 1096 59 1115 59 c 0
 1212 59 1254 -9 1312 -9 c 2
 1324 -9 l 1
 1328 -49 l 1
 1233 -49 1196 -139 1023 -139 c 0
 978 -139 924 -132 888 -121 c 0
 882 -123 876 -125 869 -127 c 0
 836 -137 788 -139 748 -139 c 0
 722 -139 672 -134 639 -112 c 1
 634 -115 627 -117 621 -119 c 0
 573 -135 509 -139 412 -139 c 2
 353 -139 l 2
 305 -139 269 -125 255 -82 c 1
 176 -101 100 -73 100 -13 c 0
 100 47 163 95 241 108 c 1
 239 150 l 1
 284 150 l 1xe4499020c4
 293 -33 l 2xe4495020c0
 296 -85 319 -94 359 -94 c 2
EndSplineSet
EndChar

StartChar: uniFBCD
Encoding: 64461 64461 14
Width: 1428
VWidth: 900
GlyphClass: 1
Flags: W
HStem: -389 45<223.309 1212.84> -229 45<522.826 690.675 768.443 941.934> -44 44<656.962 778.429> 53 54<875.415 929.502 950.415 1004.5> 135 45<303.655 356.786 437 461.148 506.147 626.435 681.989 831.064 943.197 1151.14> 225 40<1256.75 1324> 287 46<1062.88 1206.02> 297 45<536.95 651.299> 322 46<851.319 923.582> 336 46<176.649 241> 400 55<552.201 604.517> 425 55<858.201 910.594 1191.12 1208> 474 27<224.704 286.888> 491 45<581.378 692.622 754.041 857.11> 542 45<428.708 526.559> 581 28<290.849 325.226> 690 46<456.973 520> 827 31<661.401 691.139> 845 29<721.361 752.035>
VStem: 100 44<240.092 306.306> 173 44<-334.807 -267.719> 241 43<281.667 336 377.829 424> 241 30<-41 95> 248 45<232.74 336> 262 28<537.526 580.194> 327 28<531.299 580.075> 356.786 44.0938<-39.998 135> 366 45<-188.909 56.998> 381 43<596.821 660.299> 395 45<342.2 534> 406 44<260 415.091> 461.148 44.999<-43.3505 135.568> 471 45<-176.146 57.541> 522 41<636.444 690 732.631 778> 527 45<587.323 690> 551 55<401.2 453.264> 634 27<858.759 902> 662 42<210.152 284.967> 689 45<608 806> 695 26<874.249 917 943 1016.89> 696 45<548.128 806> 753 30<874.168 936.111> 782 44<-120.82 -49.453> 793 45<213.463 309.651> 850 45<712 887> 857 55<426.2 478.551 539.548 725.235> 875 55<53.7709 106.229> 936 45<217.75 310.925> 948 41<-175.786 -52.9479> 950 55<53.7709 106.229> 979 44<636.909 887> 990 44<494 744.091>
LayerCount: 2
Fore
SplineSet
1213 -365 m 0xfe0098d008
 1213 -377.326030518 1200.08293945 -389 1186 -389 c 2
 290 -389 l 2
 244 -389 173 -374.748303127 173 -314 c 0
 173 -234.994758673 276.367078284 -195.535166565 314.040039062 -193.912109375 c 0
 366 -192.570413019 366 -182.930871701 366 -123 c 1xfe0098d008
 356.786132812 135 l 1
 353 135 l 2
 300 135 267 154 255 192 c 1
 174.228142159 172.299546868 100 201.426120087 100 261 c 0
 100 316.44071476 154.729950926 366.902741412 241 382 c 1
 239 424 l 1
 284 424 l 1xfe409c6008
 293 241 l 1
 296.677383265 195.032709187 312.196129985 180 359 180 c 2
 387 180 l 1
 392 188 398 197 406 207 c 1xfe40994208
 395 534 l 1
 440 534 l 1xfe40984408
 450 260 l 1
 504 315 556 342 606 342 c 0xfd00984218
 660.639986259 342 704 308.754964168 704 249 c 0
 704 227 696 208 681 191 c 1
 700 184 724 180 753 180 c 0
 786 180 812 181 832 184 c 1
 806 207 793 233 793 262 c 0
 793 323.828432602 839.720059933 368 890 368 c 0
 940.206180215 368 981 322.493383088 981 267 c 0xfc8098421c51
 981 234 968 207 942 184 c 1
 977 181 1005 180 1028 180 c 0
 1105 180 1175 202 1237 245 c 1
 1205 273 1165 287 1115 287 c 0
 1100 287 1083 285 1065 281 c 1
 1056 324 l 1
 1077 330 1096 333 1115 333 c 0
 1211.99204834 333 1257.9907948 265 1312 265 c 2
 1324 265 l 1
 1328 225 l 1
 1231.48111031 225 1196.44481561 135 1023 135 c 0
 975 135 930 141 888 153 c 1
 869 147 l 2
 842 139 801 135 748 135 c 0
 703 135 667 144 639 162 c 0
 637.875781775 161.250521183 607.906957364 143.305857372 506.147460938 137.381835938 c 1xfe009841080020
 516 -117 l 1
 516 -172.641681968 527.569727723 -184 586 -184 c 0
 603.108511373 -184 641.333333333 -184 692 -165 c 1
 683.98911305 -155.20891595 659.820308713 -129.015622087 626 -103 c 0
 619.485507776 -100.828502592 612 -76.235302047 612 -67 c 0
 612 -46.8898977862 666.974991038 0 737 0 c 0
 799.973241826 0 826 -33.3048953504 826 -64 c 0
 826 -78.7419338645 821.097875352 -122.75177054 768 -167 c 1
 782.34384709 -172.737538836 817.682685951 -184 874 -184 c 0
 928.201557261 -184 948 -174.746098081 948 -136 c 0
 948 -111.698096634 933.216028814 -66.1920756378 916 -21 c 1
 961 -4 l 1
 973.675 -42.025 989 -88 989 -128 c 0
 989 -176.763032107 974.476325436 -229 869 -229 c 0
 848.291876442 -229 779.966072986 -226.379643791 726 -194 c 1
 691.603839678 -212.917888177 643.595522446 -229 580 -229 c 0
 513.420099393 -229 471 -216.643050261 471 -134 c 1xfe009840882080
 461.1484375 135.568359375 l 1
 445.63671875 135.185546875 429.252929688 135 412 135 c 2
 400.879882812 135 l 1xfe00986108
 411 -118 l 2
 414.360817303 -205.38124988 391.059038284 -232.565790017 315.985351562 -238.663085938 c 0
 251.163182234 -243.927779413 217 -276.7667273 217 -306 c 0
 217 -317.274975401 223.963919654 -344 290 -344 c 0
 1191 -344 l 0
 1198.53480234 -344 1213 -346.419590591 1213 -365 c 0xfe0098d008
243 336 m 1xfc40994008
 171.756896721 326.500919563 144 292.837562284 144 269 c 0
 144 232.88825921 202.614135416 226.435689236 248 234 c 1
 243 336 l 1xfc40994008
888 322 m 0xfc8098400811
 863.206418893 322 838 294.802741074 838 261 c 0
 838 236 853 214 882 197 c 1
 918 213 936 235 936 264 c 0
 936 285.649301901 917.464544586 322 888 322 c 0xfc8098400811
885 425 m 0xfc1098400804
 869 425 860 434 857 452 c 0
 857 467 866 477 885 480 c 0
 900 480 909 471 912 452 c 0
 912 437 903 428 885 425 c 0xfc1098400804
662 249 m 0xfd0098400c
 662 269.153930729 643.166917942 297 603 297 c 0
 542.852588405 297 475.765125491 232.86153476 437 180 c 1
 475 180 l 2
 643.03324789 180 662 219.768364006 662 249 c 0xfd0098400c
579 400 m 0xfc20984018
 563 400 554 409 551 427 c 0
 551 442 560 451 579 455 c 0
 594 455 603 445 606 427 c 0
 606 412 597 403 579 400 c 0xfc20984018
1034 494 m 1xfc009840080010
 990 494 l 1xfc009840080010
 979 887 l 1
 1023 887 l 1xfc009840080020
 1034 494 l 1xfc009840080010
728 528 m 1
 708.675861152 499.013791727 676.645163205 491 631 491 c 0
 612.995822891 491 550.285714286 491 534 548 c 1
 514 543 496 542 477 542 c 0
 454.196891192 544.533678756 381 552.666666667 381 617 c 0
 381 678.10504888 443.806835472 724.277974688 520 736 c 1
 519 778 l 1
 563 778 l 1xfc0698484888
 572 596 l 1
 572 545.918080256 598.907557765 536 637 536 c 0
 696 536 696 545.723163842 696 607 c 1xfc0698402880
 689 806 l 1
 734 806 l 1xfc0698400a
 741 608 l 1
 741 536.865004144 786.265004593 536 802 536 c 0
 861 536 861 545.723163842 861 607 c 1
 850 887 l 1
 895 887 l 1
 906 612 l 1
 906 534.251876632 898.268214749 491 796 491 c 0xfc0698400888
 774.625871873 491 743.546671449 496.906657102 728 528 c 1
424 624 m 0
 424 590.905782583 476.183214313 587 494 587 c 0
 506 587 517 588 527 590 c 1xfc02984828
 522 690 l 1
 459.238451801 684.022709695 424 649.863588858 424 624 c 0
712 855 m 1
 704.697036627 840.394073254 692.001574074 827 670 827 c 0
 661.789855072 827 634 827 634 873 c 0
 634 883.666666667 634 891.5 637 902 c 1
 664 909 l 1
 662 896 661 886 661 878 c 0
 661 865 665 858 675 858 c 0
 692.529411765 858 694.126858797 885.156599553 695 900 c 2
 695 917 l 1
 721 927 l 1
 721 893 l 2xfc00d84009
 721 887.666666667 721 874 737 874 c 0
 746.540329775 874 753 877.764700055 753 896 c 0
 753 909 750.025641026 917.923076923 745 933 c 1
 770 941 l 1
 774.779584448 929.847636288 783 908.415407333 783 893 c 0
 783 892.362191251 782.089912194 845 741 845 c 0xfc00b84008c0
 729 845 719 848 712 855 c 1
719 943 m 1
 689 943 l 1xfc0098400a
 686 1038 l 1
 716 1038 l 1
 719 943 l 1
828 70 m 1
 579 8 l 1
 579 53 l 1
 828 116 l 1
 828 70 l 1
1208 428 m 1
 959 366 l 1
 959 411 l 1
 1208 474 l 1xfc08984008
 1208 428 l 1
310 609 m 0xfc0998c008
 345.693752159 609 355 576.278279637 355 560 c 0
 355 503.099922622 289.76790629 477.356205594 226 474 c 1
 221 501 l 1
 237.780719281 502.118714619 268.307692308 504.153846154 292 516 c 1
 267.107065488 529.829408062 262 546.363607885 262 562 c 0
 262 592.274451808 285.488858016 609 310 609 c 0xfc0998c008
309 581 m 0
 294.388199688 581 290 569.685567531 290 562 c 0
 290 546.100948623 305.127439917 534.80252575 314 531 c 1
 322 539 327 548 327 558 c 0
 327 563.051435827 324.673686974 581 309 581 c 0
1005 80 m 0xfc009840080040
 1005 63.8076386345 990.526899414 53 978 53 c 0
 966.392889688 53 950 60.7953619939 950 80 c 0
 950 99.203834492 966.391864567 107 978 107 c 0
 990.527779894 107 1005 96.1915586869 1005 80 c 0xfc009840080040
930 80 m 0xfc0098400802
 930 63.8076386345 915.526899414 53 903 53 c 0
 891.392889688 53 875 60.7953619939 875 80 c 0
 875 99.203834492 891.391864567 107 903 107 c 0
 915.527779894 107 930 96.1915586869 930 80 c 0xfc0098400802
782 -76 m 0xfc0098400820
 782 -74.549141386 781.378160824 -44 729 -44 c 0
 703.008971105 -44 670.656027428 -54.7119786671 651 -70 c 1
 679 -92 700.333333333 -113.333333333 732 -145 c 1
 744.333381169 -136.777745888 782 -108.968293388 782 -76 c 0xfc0098400820
271 -41 m 1xfc009a4008
 241 -41 l 1
 238 95 l 1
 268 95 l 1
 271 -41 l 1xfc009a4008
EndSplineSet
EndChar

StartChar: uniFBCE
Encoding: 64462 64462 15
Width: 1947
VWidth: 900
GlyphClass: 1
Flags: HW
HStem: -407 45<708.332 801.109> -296 44<418.322 498.553> -289 45<105.471 307.926 558.037 636.481 830.759 920.751 956 1142.59 1200.75 1349.96 1462.57 1670.91> -278 38<104.895 212.249 213.89 219.062 221.358 309.06 683 737.777> -199 40<1774.42 1843> -194 27<197.704 261.385> -137 46<1581.84 1723.78> -131 44<409.708 474.87 1050.53 1173.45> -102 27<551.704 615.385> -101 46<722.46 770.176 1372.39 1442.29> -87 28<266.094 297.28> -54 55<1167.74 1221.31> -38 45<287.927 491.777> 1 55<1376.74 1430.31> 5 28<620.094 651.28> 16 45<890.295 915.622 962.384 1042.23 1119.97 1226 1226 1291.72 1763.03 1773> 87 45<574.479 643.574> 201 44<1007.91 1125.76> 298 54<1234.24 1272.76 1309.24 1347.76> 379 45<940.31 1034.46 1101.43 1199.9> 430 45<776.431 874.704> 578 46<802.949 868> 583 27<646.704 710.506> 690 28<712.729 747.903> 715 31<1009.41 1037.49> 733 29<1070.81 1098.98>
VStem: 207 45<39.877 170.298> 235 28<-130.587 -90.0941> 300 28<-136.798 -90.9856> 473 30<298 443> 535 42<42.103 86.818> 589 28<-38.5868 1.906> 638 45<-335.761 -285> 649 44<308 483> 654 28<-44.7976 1.014> 659 45<138.19 383> 684 28<646.636 689.146> 729 43<484.43 548.564> 749 28<640.202 689.444> 774 45<-209.282 -101.231> 811 45<231.273 412> 822 45<66.762 302.545> 868 43<524.444 578 619.698 666> 875 45<475.594 578> 914 45<-68.5687 16.249 61.827 110> 914 30<186 331> 925 44<-164 -8.9091> 982 27<746.233 790> 1034 30<831 926> 1037 45<496 694> 1043 26<768.142 805 831 904.89> 1044 45<435.229 694> 1101 30<765.199 824.53> 1133 44<123.456 192.792> 1167 55<-53.3131 0.259> 1181 43<-214.717 -138.03> 1198 45<600 775> 1209 45<430.19 673.182> 1226 55<306.236 343.764> 1299 41<73.435 191.771> 1301 55<306.236 343.764> 1312 46<-210.696 -114.846> 1327 44<524.909 775> 1338 44<382 632.091> 1376 55<1.687 55.259> 1455 45<-206.47 -113.444>
LayerCount: 2
Fore
SplineSet
1132 306 m 1x8000f80f0001080040
 1009 270 l 1
 1009 301 l 1
 1132 337 l 1
 1132 306 l 1x8000f80f0001080040
944 186 m 1x8000f80f0025080040
 914 186 l 1
 911 331 l 1
 941 331 l 1
 944 186 l 1x8000f80f0025080040
1590 179 m 1
 1420 137 l 1
 1420 182 l 1
 1590 225 l 1
 1590 179 l 1
1115 -387 m 1
 866 -449 l 1
 866 -404 l 1
 1115 -341 l 1
 1115 -387 l 1
646 -76 m 0
 623 -91 592 -100 553 -102 c 1
 548 -75 l 1
 563 -74 577 -73 589 -70 c 0
 601 -67 611 -64 619 -60 c 1
 610 -55 603 -49 598 -42 c 0
 592 -34 589 -25 589 -14 c 0
 589 -1 594 10 602 19 c 0
 612 28 623 33 637 33 c 0
 652 33 663 28 670 18 c 0
 678 8 682 -3 682 -16 c 0x8082f80f2001080040
 682 -41 670 -61 646 -76 c 0
622 0 m 0
 619 -4 617 -9 617 -14 c 0
 617 -20 619 -26 624 -32 c 0
 629 -37 634 -42 641 -45 c 1
 650 -37 654 -28 654 -18 c 0
 654 -11 652 -6 650 -2 c 0
 646 3 642 5 636 5 c 0
 631 5 626 3 622 0 c 0
292 -168 m 0
 269 -183 238 -192 199 -194 c 1
 194 -167 l 1
 209 -166 223 -165 235 -162 c 0
 247 -159 257 -156 265 -152 c 1
 256 -147 249 -141 244 -134 c 0
 238 -126 235 -117 235 -106 c 0
 235 -93 240 -82 248 -73 c 0
 258 -64 269 -59 283 -59 c 0x8420f81f0001080040
 298 -59 309 -64 316 -74 c 0
 324 -84 328 -95 328 -108 c 0
 328 -133 316 -153 292 -168 c 0
268 -92 m 0
 265 -96 263 -101 263 -106 c 0
 263 -112 265 -118 270 -124 c 0
 275 -129 280 -134 287 -137 c 1x8220f81f0001080040
 296 -129 300 -120 300 -110 c 0
 300 -103 298 -98 296 -94 c 0
 292 -89 288 -87 282 -87 c 0
 277 -87 272 -89 268 -92 c 0
763 -362 m 0
 782 -362 805 -352 805 -323 c 0
 805 -295 788 -272 725 -272 c 0
 713 -272 698 -274 683 -277 c 1x8000f80f8001080040
 691 -350 735 -362 763 -362 c 0
751 -101 m 0x9040f80f0101080040
 730 -101 685 -158 681 -240 c 1
 735 -232 774 -210 774 -145 c 0
 774 -129 768 -101 751 -101 c 0x9040f80f0101080040
1195 -54 m 0x8010f80f00010a0040
 1180 -54 1167 -42 1167 -27 c 0
 1167 -12 1180 1 1195 1 c 0
 1210 1 1222 -12 1222 -27 c 0
 1222 -42 1210 -54 1195 -54 c 0x8010f80f00010a0040
1122 -127 m 0
 1058 -127 990 -199 956 -244 c 1
 994 -244 l 2
 1123 -244 1181 -222 1181 -175 c 0xa000f80f0001090040
 1181 -156 1164 -127 1122 -127 c 0
1404 1 m 0x8004f80f00010800c0
 1389 1 1376 13 1376 28 c 0
 1376 43 1389 56 1404 56 c 0
 1419 56 1431 43 1431 28 c 0
 1431 13 1419 1 1404 1 c 0x8004f80f00010800c0
1358 -163 m 0x8080f80f0001080440
 1358 -192 1379 -214 1401 -227 c 1
 1431 -214 1455 -192 1455 -160 c 0
 1455 -135 1435 -102 1408 -102 c 0
 1381 -102 1358 -133 1358 -163 c 0x8080f80f0001080440
466 -141 m 0
 460 -134 453 -131 444 -131 c 0
 436 -131 427 -135 418 -144 c 0
 408 -153 397 -168 386 -191 c 1
 399 -212 413 -228 428 -238 c 0
 443 -247 457 -252 469 -252 c 0
 482 -252 491 -247 497 -238 c 0
 503 -229 503 -216 497 -200 c 0
 492 -189 488 -178 482 -167 c 0xc500f80f0001080040
 478 -156 472 -148 466 -141 c 0
504 -288 m 0
 493 -293 482 -296 470 -296 c 0xc000f80f8003090440
 451 -296 432 -290 413 -278 c 0
 394 -267 377 -251 364 -232 c 1
 347 -255 326 -270 301 -278 c 0
 276 -287 249 -291 220 -291 c 0
 200 -291 180 -290 160 -287 c 0
 139 -284 119 -281 100 -278 c 1
 106 -240 l 1x9000f80f8003090440
 123 -241 142 -242 160 -244 c 0xa000f80f8003090440
 180 -244 197 -245 213 -245 c 0
 232 -245 250 -243 266 -240 c 0
 284 -236 299 -229 313 -219 c 0
 327 -209 339 -194 349 -174 c 0
 360 -151 371 -133 383 -120 c 0
 395 -107 407 -99 418 -94 c 0
 429 -89 439 -87 448 -87 c 0x9100f80f8003090440
 460 -87 471 -90 480 -95 c 0
 489 -100 498 -109 506 -122 c 0
 515 -135 524 -152 533 -174 c 0
 541 -194 548 -209 556 -219 c 0
 562 -229 570 -236 577 -239 c 0
 583.833984375 -241.928710938 592.57421875 -243.904296875 602.290039062 -243.997070312 c 0
 614.172851562 -243.977539062 625.948242188 -243.850585938 637 -243 c 1
 643 -132 703 -55 755 -55 c 0
 791 -55 819 -89 819 -140 c 0
 819 -173 811 -207 782 -232 c 1
 811 -239 843 -244 878 -244 c 2
 906 -244 l 1
 911 -235 918 -225 925 -217 c 1
 917.153320312 16.2490234375 l 1
 894.6328125 17.09765625 876.526367188 20.154296875 864 26 c 0
 848 33 837 43 832 57 c 0
 826 71 823 89 822 111 c 2xa040f80f8143090440
 811 412 l 1
 856 412 l 1xa040f80f0081080040
 867 128 l 2
 868 111 869 97 872 87 c 0
 875 77 881 70 890 66 c 0
 896.266601562 64.1201171875 904.889648438 62.6328125 915.622070312 61.7841796875 c 1
 914 110 l 1
 959 110 l 1
 960.7578125 61.8271484375 l 1
 972.286132812 62.681640625 983.5234375 64.1513671875 994 66 c 0
 1011 69 1028 74 1043 80 c 1
 1034 91 1024 101 1014 112 c 0
 1002 122 990 132 977 142 c 0
 974 143 972 146 970 152 c 0
 968 156 966 162 965 166 c 0
 964 172 963 175 963 178 c 0
 963 183 966 190 973 198 c 0
 980 205 989 213 1001 220 c 0
 1013 227 1026 233 1042 238 c 0
 1056 243 1072 245 1088 245 c 0
 1109 245 1126 242 1139 236 c 0
 1152 229 1162 221 1168 212 c 0
 1174 202 1177 192 1177 181 c 0
 1177 163 1172 145 1162 128 c 0
 1151 110 1137 93 1119 78 c 1
 1134 72 1151 68 1170 65 c 0
 1189 62 1207 61 1225 61 c 0
 1225.3359375 61 1225.66894531 60.99609375 1225.99902344 60.9892578125 c 1
 1225.99902344 60.9931640625 1226 60.99609375 1226 61 c 1
 1243 61 1257 62 1268 64 c 0
 1279 67 1286 71 1292 78 c 0
 1296 85 1299 95 1299 109 c 0xa041f80f00492c3040
 1299 122 1296 140 1289 161 c 0
 1282 182 1275 203 1267 224 c 1
 1312 241 l 1xa041f80f0001080440
 1317 229 1321 216 1326 200 c 0
 1330 186 1333 171 1336 156 c 0
 1339 141 1340 128 1340 117 c 0
 1340 80 1330 54 1310 39 c 0
 1291 24 1261 16 1220 16 c 0
 1195 16 1170 19 1145 24 c 0
 1120 30 1097 39 1077 51 c 1
 1057 40 1035 32 1010 26 c 0
 994.841796875 21.5791015625 978.885742188 18.7529296875 962.383789062 17.271484375 c 1
 969 -164 l 1
 1014 -118 1070 -82 1125 -82 c 0
 1186 -82 1224 -122 1224 -175 c 0
 1224 -195 1216 -215 1200 -233 c 1
 1224 -242 1250 -244 1273 -244 c 0xa041f80f0003091040
 1298 -244 1326 -243 1351 -240 c 1
 1333 -224 1312 -198 1312 -162 c 0
 1312 -102 1359 -56 1409 -56 c 0
 1464 -56 1500 -108 1500 -157 c 0
 1500 -192 1485 -219 1461 -240 c 1x9000f80f0003090440
 1490.78027344 -241.985351562 1524.50195312 -243.970703125 1547.4921875 -244 c 0
 1624.31152344 -243.897460938 1697.12597656 -219.913085938 1756 -179 c 1
 1728 -153 1684 -137 1634 -137 c 0
 1616 -137 1604 -138 1584 -143 c 1
 1575 -100 l 1
 1595 -94 1615 -91 1634 -91 c 0
 1731 -91 1774 -159 1831 -159 c 2
 1843 -159 l 1
 1847 -199 l 1
 1752 -199 1715 -289 1542 -289 c 0
 1497 -289 1444 -282 1407 -271 c 0
 1401 -273 1395 -275 1389 -277 c 0
 1355 -287 1308 -289 1267 -289 c 0
 1241 -289 1191 -284 1159 -262 c 1
 1153 -265 1146 -267 1140 -269 c 0
 1093 -285 1029 -289 931 -289 c 2
 873 -289 l 2
 859 -289 845 -288 830 -287 c 1
 863 -337 836 -407 761 -407 c 0
 697 -407 646 -367 638 -285 c 1
 625.8359375 -287.432617188 612.356445312 -288.55078125 599.6953125 -288.885742188 c 0
 598.810546875 -288.9609375 597.912109375 -289 597 -289 c 0
 596.204101562 -289 595.412109375 -288.993164062 594.623046875 -288.98046875 c 0
 593.403320312 -288.993164062 592.1953125 -289 591 -289 c 1xaa00f80f8003090440
 591.013671875 -288.873046875 l 1
 579.276367188 -288.361328125 568.272460938 -286.280273438 558 -282 c 0
 546 -277 536 -270 529 -261 c 1
 522 -273 514 -282 504 -288 c 0
503 298 m 1
 473 298 l 1
 470 443 l 1
 500 443 l 1
 503 298 l 1
229 18 m 0
 214 38 207 61 207 89 c 0
 207 102 209 117 212 134 c 0
 216 150 222 168 230 187 c 1
 269 171 l 1
 264 156 260 142 256 129 c 0
 254 116 252 104 252 93 c 0
 252 73 258 57 270 44 c 0
 281 31 297 22 316 16 c 0
 336 10 358 7 381 7 c 0
 410 7 436 10 459 16 c 0
 482 23 501 32 514 42 c 0
 528 54 535 66 535 79 c 0
 535 88 528 96 513 104 c 0
 498 110 478 118 452 125 c 1
 462 171 l 1
 500 156 530 146 551 140 c 0
 572 135 589 132 600 132 c 0
 621 132 635 134 644 138 c 0
 652 142 657 149 658 160 c 0
 659 170 660 184 659 203 c 2x8009f82f1001080040
 649 483 l 1
 693 483 l 1x8009f80f4001080040
 704 208 l 2
 705 182 704 160 699 142 c 0
 694 124 684 110 668 101 c 0
 652 92 628 87 595 87 c 2
 574 87 l 1
 575 84 575 81 576 79 c 0
 577 77 577 74 577 71 c 0
 577 53 569 36 552 19 c 0
 535 2 512 -11 480 -22 c 0
 450 -33 412 -38 369 -38 c 0x8009f80f1001080040
 340 -38 314 -33 288 -24 c 0
 264 -15 244 0 229 18 c 0
1044 723 m 0x8000f84f0001180040
 1037 718 1028 715 1018 715 c 0
 1003 715 994 720 989 730 c 0
 984 739 982 750 982 761 c 0
 982 765 982 769 982 774 c 0
 983 778 984 783 985 790 c 1
 1012 797 l 1
 1010 784 1009 774 1009 766 c 0
 1009 753 1014 746 1023 746 c 0
 1028 746 1033 749 1036 754 c 0
 1040 759 1042 771 1043 788 c 2
 1043 805 l 1
 1069 815 l 1
 1069 781 l 2x8000f88f0001280040
 1069 776 1070 771 1072 768 c 0
 1074 764 1078 762 1085 762 c 0
 1092 762 1096 764 1098 768 c 0
 1100 772 1101 777 1101 784 c 0
 1101 790 1100 796 1099 802 c 0
 1098 809 1096 815 1093 821 c 1
 1118 829 l 1
 1121 822 1124 814 1127 805 c 0
 1130 796 1131 788 1131 781 c 0
 1131 769 1128 758 1120 748 c 0
 1114 738 1103 733 1089 733 c 0
 1077 733 1067 736 1060 743 c 1
 1057 735 1051 728 1044 723 c 0x8000f84f0001180040
1067 831 m 1
 1037 831 l 1x8000f80f0001480040
 1034 926 l 1
 1064 926 l 1x8000f80f0001880040
 1067 831 l 1
1382 382 m 1x8000f80f0001080140
 1338 382 l 1x8000f80f0001080140
 1327 775 l 1
 1371 775 l 1x8000f80f0001080240
 1382 382 l 1x8000f80f0001080140
1042 388 m 0
 1027 382 1006 379 979 379 c 0
 955 379 934 383 918 392 c 0
 900 400 889 415 882 436 c 1
 863 431 844 430 826 430 c 0
 807 432 791 435 776 441 c 0
 761 447 750 455 742 466 c 0
 733 477 729 490 729 505 c 0
 729 524 735 542 748 559 c 0
 760 576 776 590 798 601 c 0
 818 612 842 620 868 624 c 1
 867 666 l 1
 911 666 l 1x8000fc0f0461084040
 920 484 l 2
 921 467 924 454 929 446 c 0
 934 437 942 432 951 428 c 0
 960 426 972 424 985 424 c 0
 1006 424 1020 426 1028 430 c 0
 1037 434 1042 441 1043 452 c 0x8000fc0f0011280040
 1044 462 1045 476 1044 495 c 2x8000fc0f0001180040
 1037 694 l 1
 1082 694 l 1x8000fc0f0001480040
 1089 496 l 2
 1090 477 1093 463 1098 452 c 0
 1103 441 1110 434 1120 430 c 0
 1128 426 1139 424 1150 424 c 0
 1171 424 1185 426 1194 430 c 0
 1202 434 1207 441 1208 452 c 0
 1209 462 1210 476 1209 495 c 2x8000fc0f0001184040
 1198 775 l 1
 1243 775 l 1x8000fc0f0001088040
 1254 500 l 2x8000fc0f0001084040
 1255 474 1253 452 1248 434 c 0
 1244 416 1234 402 1218 393 c 0
 1202 384 1177 379 1144 379 c 0
 1125 379 1111 383 1100 390 c 0
 1089 397 1081 406 1076 416 c 1
 1069 404 1057 395 1042 388 c 0
842 475 m 0
 854 475 865 476 875 478 c 1x8000fc0f0411080040
 870 578 l 1
 849 576 832 571 817 564 c 0
 802 557 791 548 784 539 c 0
 776 530 772 521 772 512 c 0
 772 503 775 496 782 491 c 0
 789 486 797 482 808 479 c 0
 819 476 830 475 842 475 c 0
1773 15 m 1
 1459 -47 l 1
 1459 -2 l 1
 1773 61 l 1x8001f80f0001080040
 1773 15 l 1
742 609 m 0
 718 594 687 585 648 583 c 1
 643 610 l 1
 658 611 672 612 684 615 c 0
 696 618 706 621 714 625 c 1
 705 630 698 636 692 644 c 0
 687 651 684 660 684 671 c 0
 684 684 688 695 698 704 c 0
 706 713 718 718 732 718 c 0
 747 718 758 713 766 703 c 0
 773 693 777 682 777 669 c 0x8000fb0f0a01080040
 777 644 765 624 742 609 c 0
718 684 m 0
 714 681 712 676 712 671 c 0
 712 665 714 659 719 654 c 0
 724 648 729 643 736 640 c 1
 745 648 749 657 749 667 c 0
 749 674 748 679 744 684 c 0
 742 688 737 690 731 690 c 0
 726 690 721 688 718 684 c 0
1348 306 m 0
 1343 301 1336 298 1329 298 c 0
 1321 298 1314 301 1309 306 c 0
 1304 311 1301 318 1301 325 c 0
 1301 332 1304 339 1309 344 c 0
 1314 349 1321 352 1329 352 c 0
 1336 352 1343 349 1348 344 c 0
 1353 339 1356 332 1356 325 c 0x8000f80f0001080840
 1356 318 1353 311 1348 306 c 0
1273 306 m 0
 1268 301 1261 298 1254 298 c 0x8000f80f0001084040
 1246 298 1239 301 1234 306 c 0
 1229 311 1226 318 1226 325 c 0x8000f80f0001082040
 1226 332 1229 339 1234 344 c 0
 1239 349 1246 352 1254 352 c 0x8000f80f0001084040
 1261 352 1268 349 1273 344 c 0
 1278 339 1281 332 1281 325 c 0x8000f80f0001082040
 1281 318 1278 311 1273 306 c 0
1038 194 m 0
 1024 188 1011 182 1002 175 c 1
 1016 164 1029 152 1042 141 c 0
 1054 130 1068 116 1083 100 c 1
 1098 110 1110 121 1120 133 c 0
 1128 145 1133 157 1133 169 c 0x8000f80f00010c0040
 1133 176 1129 183 1122 190 c 0
 1114 197 1100 201 1080 201 c 0
 1067 201 1054 198 1038 194 c 0
EndSplineSet
EndChar

StartChar: uniFBCF
Encoding: 64463 64463 16
Width: 2066
VWidth: 900
GlyphClass: 1
Flags: HW
HStem: -414 45<756.332 849.109> -304 45<465.101 546.936> -296 45<266.007 367.33 605.996 684.478 878.759 968.751 1004 1190.59 1248.75 1397.96 1510.57 1718.91> -279 32<731 780.293> -206 40<1822.42 1891> -144 46<1629.84 1771.78> -134 45<257.482 378.179 458.594 519.139 1103.94 1219> -109 27<572.704 636.506> -108 46<770.46 818.176 1420.39 1490.29> -61 55<1215.74 1269.31> -2 46<467.479 535.621 796.34 829.9 830 963.985 1010.83 1403.3 1480.97 1587.99 1588 1653.72> -2 28<638.729 673.903> 148 55<1081.74 1135.31> 183 44<1368.91 1486.28> 280 54<1367.24 1405.76 1442.24 1480.76> 372 45<977.217 1082.81 1149.43 1247.9> 424 44<824.704 922.531> 522 27<661.704 725.385> 571 46<850.949 916> 629 28<730.094 761.28> 708 31<1057.41 1085.49> 726 29<1118.81 1146.98>
VStem: 100 45<-48.3884 77.298> 202 46<-45.9091 194> 213 46<-243.266 -130.959 -76.868 92.407> 366 30<205 350> 428 42<-50.6786 -6.1017> 542 44<215 390> 552 45<45.19 290> 610 28<-45.3642 -2.8545> 675 28<-51.7976 -2.5563> 686 45<-342.761 -292> 699 28<585.413 625.906> 716 45<238.727 464> 727 45<49.503 329.091> 764 28<579.202 625.014> 777 43<477.43 541.564> 822 45<-216.282 -108.231> 916 43<517.444 571 612.698 659> 923 45<468.589 571> 962 30<142 287> 973 44<-171 -15.9091> 1030 27<739.14 783> 1081 55<148.687 202.259 560.364 687> 1082 30<824 919> 1091 26<760.188 798 824 897.889> 1092 45<428.229 687> 1149 30<758.199 817.53> 1215 55<-60.3131 -6.7407> 1229 43<-221.717 -145.03> 1246 45<593 768> 1257 45<423.19 666.182> 1359 55<288.236 325.764> 1360 46<-217.696 -121.846> 1375 44<517.909 768> 1386 44<375 625.091> 1434 55<288.236 325.764> 1494 44<105.456 174.792> 1503 45<-213.47 -120.444> 1593 30<334 479> 1661 41<55.435 173.771>
LayerCount: 2
Fore
SplineSet
1287 -2 m 2x8867f2642ca100d8
 1138 -2 l 1
 1138.04492188 -1.6552734375 l 1
 1136.73046875 -1.8828125 1135.38476562 -2 1134 -2 c 2
 1010.83203125 -2 l 1
 1017 -171 l 1
 1062 -125 1118 -89 1173 -89 c 0
 1234 -89 1272 -129 1272 -182 c 0
 1272 -202 1264 -222 1248 -240 c 1
 1272 -249 1298 -251 1321 -251 c 0xaa67f264046140d8
 1346 -251 1374 -250 1399 -247 c 1
 1381 -231 1360 -205 1360 -169 c 0
 1360 -109 1407 -63 1457 -63 c 0
 1512 -63 1548 -115 1548 -164 c 0
 1548 -199 1533 -226 1509 -247 c 1x9843f264046144b8
 1538.78027344 -248.985351562 1572.50195312 -250.970703125 1595.4921875 -251 c 0
 1672.31152344 -250.897460938 1745.12597656 -226.913085938 1804 -186 c 1
 1776 -160 1732 -144 1682 -144 c 0
 1664 -144 1652 -145 1632 -150 c 1
 1623 -107 l 1
 1643 -101 1663 -98 1682 -98 c 0
 1779 -98 1822 -166 1879 -166 c 2
 1891 -166 l 1
 1895 -206 l 1
 1800 -206 1763 -296 1590 -296 c 0
 1545 -296 1492 -289 1455 -278 c 0
 1449 -280 1443 -282 1437 -284 c 0
 1403 -294 1356 -296 1315 -296 c 0
 1289 -296 1239 -291 1207 -269 c 1
 1201 -272 1194 -274 1188 -276 c 0
 1141 -292 1077 -296 979 -296 c 2
 921 -296 l 2
 907 -296 893 -295 878 -294 c 1
 911 -344 884 -414 809 -414 c 0
 745 -414 694 -374 686 -292 c 1
 673.83203125 -294.43359375 660.34765625 -295.55078125 647.682617188 -295.88671875 c 0
 646.802734375 -295.9609375 645.907226562 -296 645 -296 c 0
 644.213867188 -296 643.430664062 -295.993164062 642.650390625 -295.98046875 c 0
 641.421875 -295.993164062 640.204101562 -296 639 -296 c 1xac43f265046144b8
 639.014648438 -295.869140625 l 1
 612.578125 -294.701171875 590.02734375 -285.6796875 577 -268 c 1
 563 -293 541 -304 516 -304 c 0xc843f265046144b8
 479 -304 437 -279 410 -240 c 1
 382 -291 360 -296 324 -296 c 0
 234 -296 215 -267 213 -200 c 2xa843f2e5046144b8
 210.920898438 -125.54296875 l 1
 200.875976562 -123.322265625 191.216796875 -120.456054688 182 -117 c 0
 156 -108 137 -94 122 -74 c 0
 107 -56 100 -32 100 -4 c 0
 100 9 102 24 106 40 c 0
 109 57 115 75 123 94 c 1
 162 78 l 1
 157 63 152 49 150 36 c 0
 146 23 145 11 145 0 c 0
 145 -20 151 -36 162 -49 c 0
 173.912109375 -61.9052734375 189.766601562 -70.8681640625 209.5625 -76.8681640625 c 1
 202 194 l 1
 248 194 l 1
 256.151367188 -85.380859375 l 1
 262.008789062 -85.7939453125 267.969726562 -86 274 -86 c 0
 303 -86 329 -83 352 -76 c 0
 375 -70 394 -62 408 -50 c 0
 421 -40 428 -27 428 -14 c 0
 428 -5 421 4 406 10 c 0
 391 18 371 25 345 32 c 1
 355 78 l 1
 393 63 423 53 444 48 c 0
 465 42 482 39 493 39 c 0
 514 39 528 41 536 45 c 0
 545 49 550 56 551 66 c 0
 552 77 553 91 552 110 c 2xa843f36c04210098
 542 390 l 1
 586 390 l 1xa843f27404210098
 597 115 l 2
 598 89 597 67 592 49 c 0
 587 31 577 17 561 8 c 0
 545 -1 521 -6 488 -6 c 2
 467 -6 l 1
 468 -9 468 -12 469 -14 c 0
 470 -16 470 -19 470 -22 c 0
 470 -40 462 -57 445 -74 c 0
 428 -91 404 -104 374 -115 c 0
 342 -126 305 -131 262 -131 c 0
 260.48828125 -131 258.982421875 -130.986328125 257.481445312 -130.958984375 c 1
 259 -183 l 2
 261 -237 265 -251 329 -251 c 0
 360 -251 367 -233 394 -180 c 0
 429 -109 468 -92 494 -92 c 0
 531 -92 553 -113 580 -180 c 0
 604.73828125 -241.350585938 620.6640625 -250.805664062 650.0625 -250.997070312 c 0
 662.022460938 -250.979492188 673.876953125 -250.85546875 685 -250 c 1
 691 -139 751 -62 803 -62 c 0
 839 -62 867 -96 867 -147 c 0
 867 -180 859 -214 830 -239 c 1
 859 -246 891 -251 926 -251 c 2
 954 -251 l 1
 959 -242 966 -232 973 -224 c 1
 965.532226562 -2 l 1xa8d3f2ec04610098
 836 -2 l 1
 824 -2 l 1
 824.024414062 -1.81640625 l 1
 800.615234375 -1.068359375 781.73046875 1.9931640625 768 8 c 0
 753 15 742 25 736 39 c 0
 731 53 728 71 727 93 c 2x8863f2ec24610098
 716 464 l 1
 761 464 l 1x8863f26444210098
 772 110 l 2
 773 93 774 79 777 69 c 0
 780 59 786 52 796 48 c 0
 803.181640625 45.6064453125 814.8203125 43.8486328125 829.900390625 43.236328125 c 1
 830 44 l 1
 963.984375 44 l 1
 962 103 l 1
 1007 103 l 1
 1009.15332031 44 l 1
 1139 44 l 2
 1140.79785156 44 1142.44335938 43.8994140625 1143.9609375 43.697265625 c 1
 1144 44 l 1
 1292 44 l 2
 1295.265625 44 1298.03125 43.6669921875 1300.43261719 43 c 0
 1319.28808594 43.0302734375 1338.12890625 45.0224609375 1355 48 c 0
 1372 51 1389 56 1404 62 c 1
 1395 73 1386 83 1374 94 c 0
 1364 104 1351 114 1338 124 c 0
 1335 125 1333 128 1331 134 c 0
 1329 138 1327 144 1326 148 c 0x886bf2642ca10098
 1325 154 1324 157 1324 160 c 0
 1324 165 1327 172 1334 180 c 0
 1341 187 1350 195 1362 202 c 0
 1374 209 1388 215 1402 220 c 0
 1418 225 1433 227 1449 227 c 0
 1470 227 1487 224 1500 218 c 0
 1513 211 1523 203 1529 194 c 0
 1535 184 1538 174 1538 163 c 0
 1538 145 1533 127 1522 110 c 0
 1512 92 1498 75 1480 60 c 1
 1495 54 1512 50 1531 47 c 0
 1550 44 1568 43 1586 43 c 0
 1586.6796875 43 1587.34472656 42.9853515625 1587.99414062 42.95703125 c 1
 1587.99414062 42.970703125 1588 42.9853515625 1588 43 c 1
 1605 43 1619 44 1630 46 c 0
 1641 49 1648 53 1654 60 c 0
 1658 67 1661 77 1661 91 c 0
 1661 104 1658 122 1651 143 c 0
 1644 164 1637 185 1629 206 c 1
 1674 223 l 1
 1679 211 1683 198 1688 182 c 0
 1692 168 1695 153 1698 138 c 0
 1701 123 1702 110 1702 99 c 0
 1702 62 1692 36 1672 21 c 0
 1653 6 1623 -2 1582 -2 c 1
 1582 -1.99609375 1582.00097656 -1.9931640625 1582.00097656 -1.9892578125 c 1
 1581.66992188 -1.99609375 1581.3359375 -2 1581 -2 c 0
 1556 -2 1531 1 1506 6 c 0
 1481 12 1458 21 1438 33 c 1
 1418 22 1396 14 1372 8 c 0
 1347 1 1321 -2 1294 -2 c 1
 1294.14648438 -0.90234375 l 1
 1291.86132812 -1.619140625 1289.49414062 -2 1287 -2 c 2x8867f2642ca100d8
1109 148 m 0x884bf26404310098
 1094 148 1081 160 1081 175 c 0
 1081 190 1094 203 1109 203 c 0
 1124 203 1136 190 1136 175 c 0
 1136 160 1124 148 1109 148 c 0x884bf26404310098
1623 334 m 1
 1593 334 l 1
 1590 479 l 1
 1620 479 l 1
 1623 334 l 1
432 -198 m 1
 457 -240 491 -259 516 -259 c 0xc843f26404210098
 541 -259 557 -239 543 -206 c 0
 530 -173 516 -136 491 -137 c 0
 474 -137 455 -151 432 -198 c 1
1164 256 m 1
 1041 220 l 1
 1041 251 l 1
 1164 287 l 1
 1164 256 l 1
992 142 m 1x8843f26406a10098
 962 142 l 1
 959 287 l 1
 989 287 l 1
 992 142 l 1x8843f26406a10098
1779 305 m 1
 1559 253 l 1
 1559 298 l 1
 1779 351 l 1
 1779 305 l 1
1163 -394 m 1
 914 -456 l 1
 914 -411 l 1
 1163 -348 l 1
 1163 -394 l 1
668 -83 m 0
 644 -98 613 -107 574 -109 c 1
 569 -82 l 1
 584 -81 598 -80 610 -77 c 0
 622 -74 632 -71 640 -67 c 1
 631 -62 624 -56 618 -48 c 0
 613 -41 610 -32 610 -21 c 0
 610 -8 614 3 624 12 c 0
 632 21 644 26 658 26 c 0
 673 26 684 21 692 11 c 0
 699 1 703 -10 703 -23 c 0x8953f26604210098
 703 -48 691 -68 668 -83 c 0
644 -8 m 0
 640 -11 638 -16 638 -21 c 0
 638 -27 640 -33 645 -38 c 0
 650 -44 655 -49 662 -52 c 1
 671 -44 675 -35 675 -25 c 0
 675 -18 674 -13 670 -8 c 0
 668 -4 663 -2 657 -2 c 0
 652 -2 647 -4 644 -8 c 0
811 -369 m 0
 830 -369 853 -359 853 -330 c 0
 853 -302 836 -279 773 -279 c 0
 761 -279 746 -281 731 -284 c 1x9843f26504210098
 739 -357 783 -369 811 -369 c 0
799 -108 m 0x98c3f26404210098
 778 -108 733 -165 729 -247 c 1
 783 -239 822 -217 822 -152 c 0
 822 -136 816 -108 799 -108 c 0x98c3f26404210098
1243 -61 m 0
 1228 -61 1215 -49 1215 -34 c 0
 1215 -19 1228 -6 1243 -6 c 0
 1258 -6 1270 -19 1270 -34 c 0x8843f26404218098
 1270 -49 1258 -61 1243 -61 c 0
1170 -134 m 0xaa43f26404214098
 1106 -134 1038 -206 1004 -251 c 1
 1042 -251 l 2
 1171 -251 1229 -229 1229 -182 c 0
 1229 -163 1212 -134 1170 -134 c 0xaa43f26404214098
1406 -170 m 0x8943f264042104b8
 1406 -199 1427 -221 1449 -234 c 1
 1479 -221 1503 -199 1503 -167 c 0
 1503 -142 1483 -109 1456 -109 c 0
 1429 -109 1406 -140 1406 -170 c 0x8943f264042104b8
396 205 m 1
 366 205 l 1
 363 350 l 1
 393 350 l 1
 396 205 l 1
1092 716 m 0x8843f66404230098
 1085 711 1076 708 1066 708 c 0
 1051 708 1042 713 1037 722 c 0
 1032 732 1030 743 1030 754 c 0
 1030 758 1030 762 1030 766 c 0
 1031 771 1032 776 1033 783 c 1
 1060 790 l 1
 1058 777 1057 767 1057 759 c 0
 1057 746 1062 739 1071 739 c 0
 1076 739 1081 742 1084 747 c 0
 1088 752 1090 764 1091 781 c 2
 1091 798 l 1
 1117 808 l 1
 1117 774 l 2x8843fa6404250098
 1117 769 1118 764 1120 760 c 0
 1122 757 1126 755 1133 755 c 0
 1140 755 1144 757 1146 761 c 0
 1148 765 1149 770 1149 777 c 0
 1149 783 1148 789 1147 796 c 0
 1146 802 1144 808 1141 814 c 1
 1166 822 l 1
 1169 815 1172 807 1175 798 c 0
 1178 789 1179 781 1179 774 c 0
 1179 762 1176 751 1168 741 c 0
 1162 731 1151 726 1137 726 c 0
 1125 726 1115 729 1108 736 c 1
 1105 728 1099 721 1092 716 c 0x8843f66404230098
1115 824 m 1
 1085 824 l 1
 1082 919 l 5
 1112 919 l 1x8843f26404290098
 1115 824 l 1
1430 375 m 1x8843f26404210198
 1386 375 l 1x8843f26404210198
 1375 768 l 1
 1419 768 l 1x8843f26404210298
 1430 375 l 1x8843f26404210198
1090 382 m 0
 1075 375 1054 372 1027 372 c 0
 1003 372 982 376 966 384 c 0
 948 393 937 408 930 429 c 1
 911 424 892 422 874 424 c 0
 855 424 839 428 824 434 c 0
 809 440 798 448 790 459 c 0
 781 470 777 483 777 498 c 0
 777 517 783 535 796 552 c 0
 808 569 824 583 846 594 c 0
 866 605 890 613 916 617 c 1
 915 659 l 1
 959 659 l 1x8843f2640e211098
 968 477 l 2
 969 460 972 447 977 438 c 0
 982 430 990 424 999 422 c 0
 1008 418 1020 417 1033 417 c 0
 1054 417 1068 419 1076 423 c 0
 1085 427 1090 434 1091 444 c 0x8843f26405250098
 1092 455 1093 469 1092 488 c 2
 1085 687 l 1
 1130 687 l 1
 1137 489 l 2
 1138 470 1141 456 1146 445 c 0
 1151 434 1158 427 1168 423 c 0
 1176 419 1187 417 1198 417 c 0
 1219 417 1233 419 1242 423 c 0
 1250 427 1255 434 1256 444 c 0
 1257 455 1258 469 1257 488 c 2x8843f26404231098
 1246 768 l 1
 1291 768 l 1x8843f26404212098
 1302 493 l 2x8843f26404211098
 1303 467 1301 445 1296 427 c 0
 1292 409 1282 395 1266 386 c 0
 1250 377 1225 372 1192 372 c 0
 1173 372 1159 376 1148 383 c 0
 1137 390 1129 399 1124 409 c 1
 1117 397 1105 388 1090 382 c 0
890 468 m 0
 902 468 913 469 923 471 c 1x8843f2640d210098
 918 571 l 1
 897 569 880 564 865 557 c 0
 850 550 839 541 832 532 c 0
 824 523 820 514 820 505 c 0
 820 496 823 489 830 484 c 0
 837 479 845 475 856 472 c 0
 867 469 878 468 890 468 c 0
1966 -10 m 1
 1652 -72 l 1
 1652 -27 l 1
 1966 36 l 1
 1966 -10 l 1
756 548 m 0
 733 533 702 524 663 522 c 1
 658 549 l 1
 673 550 687 551 699 554 c 0
 711 557 721 560 729 564 c 1
 720 569 713 575 708 582 c 0
 702 590 699 599 699 610 c 0
 699 623 704 634 712 643 c 0
 722 652 733 657 747 657 c 0
 762 657 773 652 780 642 c 0
 788 632 792 621 792 608 c 0x8843f26494210098
 792 583 780 563 756 548 c 0
732 624 m 0
 729 620 727 615 727 610 c 0
 727 604 729 598 734 592 c 0
 739 587 744 582 751 579 c 1
 760 587 764 596 764 606 c 0
 764 613 762 618 760 622 c 0
 756 627 752 629 746 629 c 0
 741 629 736 627 732 624 c 0
1481 288 m 0
 1476 283 1469 280 1462 280 c 0
 1454 280 1447 283 1442 288 c 0
 1437 293 1434 300 1434 307 c 0
 1434 314 1437 321 1442 326 c 0
 1447 331 1454 334 1462 334 c 0
 1469 334 1476 331 1481 326 c 0
 1486 321 1489 314 1489 307 c 0
 1489 300 1486 293 1481 288 c 0
1406 288 m 0x8843f26404210498
 1401 283 1394 280 1387 280 c 0
 1379 280 1372 283 1367 288 c 0
 1362 293 1359 300 1359 307 c 0x8843f26404210898
 1359 314 1362 321 1367 326 c 0
 1372 331 1379 334 1387 334 c 0
 1394 334 1401 331 1406 326 c 0x8843f26404210498
 1411 321 1414 314 1414 307 c 0x8843f26404210898
 1414 300 1411 293 1406 288 c 0x8843f26404210498
1400 176 m 0
 1384 170 1372 164 1363 157 c 1
 1377 146 1390 134 1402 123 c 0
 1415 112 1429 98 1444 82 c 1
 1459 92 1472 103 1480 115 c 0
 1490 127 1494 139 1494 151 c 0
 1494 158 1490 165 1482 172 c 0
 1475 179 1461 183 1441 183 c 0x8847f264042100d8
 1428 183 1414 180 1400 176 c 0
EndSplineSet
EndChar

StartChar: uniFBD0
Encoding: 64464 64464 17
Width: 2284
VWidth: 800
GlyphClass: 1
Flags: HW
HStem: -479 45<1313.44 1386.55> -361 44<501.322 581.439> -354 45<189.798 390.926 640.797 742.441 803.804 903.534 960.216 1055.24 1109.77 1206.13 1364.16 1448.62> -279 55<1583.69 1637.31 1659.74 1713.31> -210 46<1374.5 1439.71> -193 45<180.781 385.474 494.727 555.558> -174 45<1496.95 1620.21 1678.47 1816.76 1878.2 2019.48> -129 45<718.379 739.984 787.546 884.62 963.969 1150.4> -68 45<467.479 535.621> 27 45<1370.75 1435 2024.47 2126.95> 57 45<850.53 974.558> 124 45<1126.24 1330.97> 142 55<864.687 918.259 940.687 994.259> 242 46<1807 2001.75> 250 45<1415.52 1497.62 1559.2 1657.98> 372 45<924.179 1030.28 1096.48 1194.42> 412 45<1912.01 2024.71> 424 44<771.704 870> 571 46<798.216 863> 586 31<1627.41 1655.49> 604 29<533 547.5 1688.81 1716.98> 650 31<699.435 707 748.409 777.153> 668 29<809.806 838.184> 708 31<1004.41 1033.15> 726 29<1065.81 1094.18>
VStem: 100 45<-110.388 15.298> 366 30<143 288> 428 42<-112.679 -68.102> 542 44<225.727 528> 552 45<-16.81 355.273> 653 46<197.091 570> 664 46<-75.549 350.364> 721 27<681.14 725> 724 43<477.43 541.768> 736 46<-80.268 45> 745 46<-297.226 -128.766 -80.268 16.346> 782 26<702.188 740> 840 30<700.199 759.53> 864 55<142.687 196.259 468.589 571> 865 41<517.444 571 613.541 659> 930 41<-273.86 -208.122> 940 55<142.687 196.259> 977 44<-20.98 51.145> 977 27<739.14 783> 1032 45<573.286 687> 1032 30<824 919> 1038 26<760.188 798> 1043 46<203.786 339.056 424.868 604.5> 1077 42<-278.096 -201.667> 1096 30<758.199 817.53> 1155 42<-77.502 50.594> 1193 45<593 768> 1204 45<423.19 666.182> 1212 43<-302.787 -171.335> 1294 44<-67.542 -2.868> 1318 44<-307.783 -221.307 584.6 768> 1333 44<375 625.091> 1376 41<206.248 249.753> 1435 43<-27.333 27 69.323 115> 1442 45<-77.536 27> 1457 43<-310.157 -226.891> 1491 46<450.9 649> 1501 45<307.669 564.1> 1583 55<-278.313 -224.741> 1600 27<617.14 661> 1645 43<-89.148 -21.535> 1659 55<-278.313 -224.741> 1661 26<638.188 676> 1688 40<336.478 396.75> 1719 30<636.199 695.53> 1810 46<5.667 225> 1819 46<-116.331 162.111> 1964 46<-80.75 11.926> 2036 43<318.56 400.821>
LayerCount: 2
Fore
SplineSet
2119 192 m 1x908000700000000000c0
 1945 141 l 1
 1945 167 l 1
 2119 218 l 1
 2119 192 l 1x908000700000000000c0
1678 614 m 1
 1677.62402344 612.99609375 1667.20996094 586 1636 586 c 0
 1627.29003906 586 1600 586 1600 632 c 0
 1600 640 1600 640 1603 661 c 1
 1630 668 l 1
 1628 655 1627 645 1627 637 c 0
 1627 624 1632 617 1641 617 c 0x908012700000000094c0
 1658.52929688 617 1660.12695312 644.15625 1661 659 c 2
 1661 676 l 1
 1687 686 l 1
 1687 652 l 2
 1687 633 1697.33300781 633 1703 633 c 0
 1710.09375 633 1719 633.912109375 1719 655 c 0
 1719 658.1328125 1718.6640625 676.672851562 1711 692 c 1
 1736 700 l 1
 1740.39648438 689.7421875 1749 669.666992188 1749 652 c 0
 1749 651.362304688 1748.97070312 604 1707 604 c 0x908008700000000094c0
 1695 604 1685 607 1678 614 c 1
2012 572 m 1
 1661 471 l 1
 1661 497 l 1
 2012 598 l 1
 2012 572 l 1
799 678 m 1
 798.624023438 676.99609375 788.209960938 650 757 650 c 0
 748.290039062 650 721 650 721 696 c 0x908004708c00000000c0
 721 704 721.958007812 710.708007812 724 725 c 1x908005704000000000c0
 751 732 l 1
 749 719 748 709 748 701 c 0
 748 688 753 681 762 681 c 0x908005708000000000c0
 779.529296875 681 780.928710938 704.791015625 782 723 c 1
 782 740 l 1
 808 750 l 1
 808 716 l 2
 808 697 818.333007812 697 824 697 c 0
 831.09375 697 840 697.912109375 840 719 c 0
 840 722.1328125 839.6640625 740.672851562 832 756 c 1
 857 764 l 1
 861.396484375 753.7421875 870 733.666992188 870 716 c 0x908002708c00000000c0
 870 714.462890625 869.655273438 668 828 668 c 0
 816 668 806 671 799 678 c 1
707 655 m 1
 533 604 l 1x90800c700000000000c0
 533 630 l 1
 707 681 l 1
 707 655 l 1
1062 824 m 1x908000700004000000c0
 1032 824 l 1
 1029 919 l 1
 1059 919 l 1
 1062 824 l 1x908000700004000000c0
1055 736 m 1
 1054.62402344 734.99609375 1044.20996094 708 1013 708 c 0
 1004.29003906 708 977 708 977 754 c 0
 977 762 977.958007812 768.708007812 980 783 c 1
 1007 790 l 1
 1005 777 1004 767 1004 759 c 0
 1004 746 1009 739 1018 739 c 0
 1035.52929688 739 1036.92871094 762.791015625 1038 781 c 1
 1038 798 l 1
 1064 808 l 1
 1064 774 l 2
 1064 755 1074.33300781 755 1080 755 c 0
 1087.09375 755 1096 755.912109375 1096 777 c 0
 1096 780.1328125 1095.6640625 798.672851562 1088 814 c 1
 1113 822 l 1
 1117.39648438 811.7421875 1126 791.666992188 1126 774 c 0
 1126 772.462890625 1125.65527344 726 1084 726 c 0x908000f00002400000c0
 1072 726 1062 729 1055 736 c 1
767 505 m 0
 767 471.540039062 821.001953125 468 837 468 c 0x908060704100000000c0
 849 468 860 469 870 471 c 1x908060704400000000c0
 865 571 l 1
 805.033203125 565.2890625 767 532.469726562 767 505 c 0
1071 409 m 1
 1058.98925781 388.41015625 1031.40527344 372 974 372 c 0
 902.80078125 372 885.271484375 404.185546875 877 429 c 1
 862.908203125 425.291992188 848.817382812 423.233398438 834.725585938 423.233398438 c 2
 820 424 l 1
 799.935546875 424 724 433.172851562 724 498 c 0
 724 561.639648438 791.522460938 606.00390625 863 617 c 1
 862 659 l 1
 906 659 l 1
 915 477 l 2
 917.359375 436.888671875 928.236328125 417 980 417 c 0
 1027.14746094 417 1039.62207031 422.71484375 1039.62207031 467.6640625 c 0
 1039.62207031 473.70703125 1039.39648438 480.458007812 1039 488 c 2
 1032 687 l 1
 1077 687 l 1
 1084 489 l 2
 1086.16015625 447.965820312 1097.11230469 417 1145 417 c 0
 1192.42480469 417 1204.62304688 423.49609375 1204.62304688 467.715820312 c 0
 1204.62304688 473.748046875 1204.39550781 480.483398438 1204 488 c 2x908160700008080000c0
 1193 768 l 1
 1238 768 l 1x908160700000100000c0
 1249 493 l 2
 1249.2109375 487.5078125 1249.32226562 482.229492188 1249.32226562 477.16015625 c 0
 1249.32226562 400.928710938 1224.26367188 372 1139 372 c 0x908160700000080000c0
 1119.50097656 372 1086.9140625 377.171875 1071 409 c 1
1377 375 m 1x908000700000008000c0
 1333 375 l 1
 1322 768 l 1
 1366 768 l 1
 1377 375 l 1x908000700000008000c0
1734 -373 m 1
 1560 -424 l 1
 1560 -398 l 1
 1734 -347 l 1
 1734 -373 l 1
617 -399 m 1
 443 -450 l 1
 443 -424 l 1
 617 -373 l 1
 617 -399 l 1
396 143 m 1
 366 143 l 1
 363 288 l 1
 393 288 l 1x908400700000000000c0
 396 143 l 1
262 -193 m 0x958000740000000000c0
 240.321289062 -193 100 -188.27734375 100 -66 c 0
 100 -59.16015625 101.029296875 -20.1806640625 123 32 c 1
 162 16 l 1
 153.859375 -8.421875 145 -35.185546875 145 -62 c 0
 145 -141.440429688 241.973632812 -148 274 -148 c 0
 359.028320312 -148 428 -117.140625 428 -76 c 0
 428 -52.345703125 368.680664062 -36.375 345 -30 c 1
 355 16 l 1
 375.514648438 7.90234375 456.204101562 -23 493 -23 c 0
 540.424804688 -23 552.623046875 -16.50390625 552.623046875 27.7158203125 c 0
 552.623046875 33.748046875 552.395507812 40.4833984375 552 48 c 2x958000740000000000c0
 542 528 l 1
 586 528 l 1x958000780000000000c0
 597 53 l 2
 597.232421875 46.962890625 597.362304688 41.1474609375 597.362304688 35.5546875 c 0
 597.362304688 -32.904296875 577.885742188 -68 488 -68 c 2
 467 -68 l 1
 467.051757812 -68.154296875 470 -77.62109375 470 -84 c 0
 470 -129.000976562 407.779296875 -193 262 -193 c 0x958000740000000000c0
469 -256 m 1
 476.927734375 -268.806640625 509.580078125 -317 552 -317 c 0xd08000740000000000c0
 567.350585938 -317 584.447265625 -308.333984375 584.447265625 -286.534179688 c 0
 584.447265625 -280.421875 583.103515625 -273.276367188 580 -265 c 0
 575 -254 570 -243 566 -232 c 0
 549.688476562 -202.095703125 541.2265625 -196 527 -196 c 0
 501.94921875 -196 480.608398438 -231.727539062 469 -256 c 1
531 -152 m 0
 624.416015625 -152 600.600585938 -308.654296875 685.6953125 -308.999023438 c 0
 737.80078125 -308.90625 745.625 -298.331054688 745.625 -262.227539062 c 0
 745.625 -255.166015625 745.326171875 -247.127929688 745 -238 c 2
 741.479492188 -127.295898438 l 1
 680.284179688 -120.219726562 666.583007812 -90.822265625 664 -34 c 1xd080007910a2a40000c0
 653 570 l 1
 699 570 l 1xd08000720000000000c0
 710 -16 l 2
 711.44921875 -55.12109375 714.47265625 -73.248046875 739.983398438 -80.267578125 c 1
 736 45 l 1
 782 45 l 1xd08000712000000000c0
 786.115234375 -83.9423828125 l 1
 822.764648438 -83.251953125 856.626953125 -76.3701171875 886 -65 c 1
 868 -44 846 -22 819 -3 c 0
 812 3 805 26 805 34 c 0
 805 57 866 102 932 102 c 0
 995 102 1021 70 1021 37 c 0
 1021 0 999 -37 963 -67 c 1
 994 -79 1033 -84 1070 -84 c 0
 1135 -84 1155 -81 1155 -36 c 0
 1155 -8 1139 38 1123 81 c 1
 1168 97 l 1
 1182 61 1197 6 1197 -27 c 0
 1197 -102 1158 -129 1064 -129 c 0
 1015 -129 960 -118 920 -94 c 1
 883.112304688 -114.288085938 836.869140625 -126.922851562 787.545898438 -128.765625 c 1
 791 -237 l 2
 792 -294 818 -309 852 -309 c 0
 900 -309 906 -305 930 -199 c 1
 971 -210 l 1
 967 -229 959 -258 959 -279 c 0
 959 -298 971 -309 1008 -309 c 0
 1052 -309 1060 -304 1077 -195 c 1
 1119 -203 l 1
 1116 -223 1109 -260 1109 -279 c 0
 1109 -295 1116 -309 1160 -309 c 0
 1192 -309 1212 -299 1212 -261 c 0
 1212 -233 1197 -187 1181 -144 c 1
 1226 -128 l 1
 1240 -164 1255 -219 1255 -252 c 0
 1255 -321 1218 -354 1159 -354 c 0
 1118 -354 1096 -344 1086 -321 c 1
 1068 -349 1047 -354 1001 -354 c 0xb9a0007010a2a40000c0
 978 -354 947 -348 935 -317 c 1xd080007010a2a40000c0
 916 -349 888 -354 847 -354 c 0xb080007010a2a40000c0
 809 -354 788 -338 778 -317 c 1xd080007010a2a40000c0
 763 -342 734 -354 680 -354 c 0
 665.530273438 -354 631.55078125 -351.13671875 612 -326 c 1
 604.602539062 -338.680664062 586.784179688 -361 553 -361 c 0
 543.862304688 -361 488.982421875 -358.359375 447 -297 c 1
 435.381835938 -312.71875 403.389648438 -356 303 -356 c 0
 270.568359375 -356 258.748046875 -354.959960938 183 -343 c 1
 189 -305 l 1
 206 -306 224 -308 244 -308 c 0
 262 -310 280 -310 296 -310 c 0
 392.727539062 -310 419.059570312 -264.881835938 432 -239 c 0
 455.48828125 -189.888671875 487.655273438 -152 531 -152 c 0
1362 -274 m 0x988000700000010800c0
 1362 -298 1375 -312 1411 -312 c 0
 1426 -312 1443 -310 1457 -305 c 1
 1457 -298 l 2
 1457 -252 1438 -210 1407 -210 c 0
 1381 -210 1362 -244 1362 -274 c 0x988000700000010800c0
1315 -479 m 1
 1305 -434 l 1
 1375 -424 1429 -407 1449 -350 c 1
 1436 -354 1421 -356 1406 -356 c 0
 1350 -356 1318 -333 1318 -285 c 0
 1318 -229 1355 -164 1411 -164 c 0
 1471 -164 1500 -231 1500 -301 c 0
 1500 -405 1437 -465 1315 -479 c 1
1338 -40 m 0x90c000700000021000c0
 1338 -66.8955078125 1374.61035156 -77.8466796875 1410.62304688 -77.8466796875 c 0
 1421.47558594 -77.8466796875 1432.27441406 -76.8525390625 1442 -75 c 1
 1437 27 l 1
 1373 20 1338 -13 1338 -40 c 0x90c000700000021000c0
1611 -279 m 0
 1595 -279 1583 -267 1583 -252 c 0
 1583 -237 1595 -224 1611 -224 c 0
 1626 -224 1638 -237 1638 -252 c 0x908000700000000100c0
 1638 -267 1626 -279 1611 -279 c 0
1687 -279 m 0x908000700000000010c0
 1672 -279 1659 -267 1659 -252 c 0x908000700000000020c0
 1659 -237 1672 -224 1687 -224 c 0x908000700000000010c0
 1702 -224 1714 -237 1714 -252 c 0x908000700000000020c0
 1714 -267 1702 -279 1687 -279 c 0x908000700000000010c0
845 31 m 1
 873 8 896 -13 926 -45 c 1
 958 -24 977 1 977 25 c 0
 977 39 963 57 923 57 c 0x90a000700020000000c0
 898 57 863 46 845 31 c 1
891 142 m 0x908800700200000000c0
 876 142 864 154 864 169 c 0x909000700200000000c0
 864 184 876 197 891 197 c 0x908800700200000000c0
 906 197 919 184 919 169 c 0x909000700200000000c0
 919 154 906 142 891 142 c 0x908800700200000000c0
967 142 m 0x908800700040000000c0
 952 142 940 154 940 169 c 0x909000700040000000c0
 940 184 952 197 967 197 c 0x908800700040000000c0
 982 197 995 184 995 169 c 0x909000700040000000c0
 995 154 982 142 967 142 c 0x908800700040000000c0
1043 252 m 0x909200700001004208c0
 1043 279 1051 311 1067 350 c 1
 1107 335 l 1
 1095 304 1089 278 1089 256 c 0
 1089 194 1149 169 1220 169 c 0
 1306 169 1376 201 1376 241 c 0
 1376 261 1344 273 1291 288 c 1x909400700001004208c0
 1302 334 l 1
 1378 304 1418 295 1441 295 c 0
 1495.23242188 295 1501.29785156 306.115234375 1501.29785156 344.931640625 c 0
 1501.29785156 351.20703125 1501.13964844 358.206054688 1501 366 c 2x908200700001004208c0
 1491 649 l 1
 1537 649 l 1x908200700000000400c0
 1546 367 l 2
 1548 310 1574 295 1608 295 c 0
 1660 295 1668 322 1688 405 c 1
 1728 395 l 1
 1721 369 1717 346 1717 336 c 0
 1717 315 1725 302 1761 295 c 1x908200700000000208c0
 1809 370 1894 457 1981 457 c 0
 2041 457 2079 417 2079 364 c 0
 2079 298 2028 242 1871 242 c 0x908480700000000208c0
 1752 242 1708 257 1694 291 c 1
 1667 253 1637 250 1602 250 c 0
 1564 250 1543 266 1533 287 c 1
 1519 262 1489 250 1436 250 c 2
 1415 250 l 1
 1416 243 1417 240 1417 234 c 0
 1417 179 1339 124 1208 124 c 0
 1119 124 1043 165 1043 252 c 0x909200700001004208c0
1977 412 m 0x908480700000000000c0
 1910 412 1839 334 1807 290 c 1
 1828 289 1852 288 1881 288 c 0
 1979 288 2036 312 2036 359 c 0
 2036 383 2019 412 1977 412 c 0x908480700000000000c0
2098.31738281 -109.026367188 m 0
 2107.53417969 -109.026367188 2142.84570312 -94.1142578125 2168 -83 c 1
 2184 -123 l 1
 2109 -154 2037 -174 1921 -174 c 0
 1883 -174 1862 -158 1852 -137 c 1
 1838 -162 1808 -174 1754 -174 c 0
 1682 -174 1662 -162 1654 -138 c 1
 1632 -168 1604 -174 1547 -174 c 0
 1499 -174 1463 -160 1449 -117 c 1
 1432.48046875 -120.97265625 1416.09277344 -122.890625 1400.50292969 -122.890625 c 0
 1341.5390625 -122.890625 1294 -95.4541015625 1294 -48 c 0
 1294 12 1357 60 1435 73 c 1
 1433 115 l 1
 1478 115 l 1x92c000700000022001c0
 1487 -68 l 2
 1490 -120 1513 -129 1553 -129 c 0x92c000700000001000c0
 1627 -129 1626 -113 1645 -14 c 1
 1688 -23 l 1
 1684 -43 1677 -72 1677 -90 c 0
 1677 -111.952148438 1674.01269531 -128.926757812 1759.4453125 -129 c 0
 1811.90332031 -128.942382812 1819.69628906 -118.668945312 1819.69628906 -83.654296875 c 0
 1819.69628906 -76.25390625 1819.34765625 -67.748046875 1819 -58 c 2x92c000700000001041c0
 1810 225 l 1
 1856 225 l 1x92c000700000000002c0
 1865 -57 l 2
 1867 -114 1893 -129 1927 -129 c 0
 1997 -129 2014 -127 2021 -126 c 1
 2001 -115 1964 -85 1964 -34 c 0
 1964 29 2012 72 2079 72 c 0
 2096 72 2116 69 2134 63 c 1
 2124 21 l 1
 2109 25 2092 27 2079 27 c 0
 2038 27 2010 3 2010 -34 c 0
 2010 -81.169921875 2066.01171875 -109.026367188 2098.31738281 -109.026367188 c 0
EndSplineSet
EndChar

StartChar: uniFBD1
Encoding: 64465 64465 18
Width: 2208
VWidth: 900
GlyphClass: 1
Flags: HW
HStem: -427 42<1080.33 1116.18> -406 55<782.741 836.313 859.687 913.259> -310 45<454.431 779.161> -301 45<892.526 1058.51 1260.58 1357.74 1414.42 1509.06 1563.89 1661.6 1725.55 1835.77> -114 46<802.266 871.517> -57 55<1475.69 1529.31 1550.74 1604.31> -50 42<592.167 625.751> -25 55<481.687 535.259> -11 55<766.69 820.313> 4 55<1513.69 1567.26> 33 45<1182.39 1341.12> 76 45.0004<302.918 482.23 771.799 953.018> 91 55<1634.69 1688.26> 159 45.0006<585.975 654 903.167 985.663 1448.22 1621.01 1775.12 1943.58> 228 46<393.84 535.422> 235 37<1215.53 1249.82> 249 40<1765.05 1793> 257 35<1289.83 1324.28> 277 46<176.753 241> 311 46<909.723 975.472 1531.84 1673.42> 357 55<801.741 855.313> 360 45<1948.73 2051.45> 408 27<334.704 398.106> 424 46.0004<880.543 994.119 1055.16 1161.75> 515 28<403.183 435.468> 604 37<1428.53 1462.82> 626 46<754.101 819> 626 35<555.833 621.855 1502.83 1537.28> 736 28<624.183 654.585> 809 37<944.527 978.818> 831 35<1018.83 1053.28>
VStem: 100 44<182.848 247.132> 241 43<222.667 277 319.323 365> 248 45<172.464 277> 372 28<471.112 511.906> 379 46<-238.125 -117.198> 437 28<465.202 514.413> 481 55<-24.3131 29.259> 593 28<692.347 732.429> 658 28<686.202 732.491> 677 44<531.349 596.05> 743 45<-221.507 -126.476> 766 55<-10.3131 43.259> 782 55<-405.313 -351.741> 801 55<357.687 411.259> 819 43<571.111 626 668.323 715> 826 45<521.398 626> 853 44<213.802 299.693> 859 55<-405.313 -351.741> 885 46<-219.798 -125.214> 911 33<846.514 899> 978 37<949 1064> 985 32<873.189 917> 987 47<658 775> 992 44<210.732 296.739 489.044 634.6> 1056 35<873.235 936.67> 1063 42<-249.502 -121.406> 1103 45<110.279 248.957> 1153 46<629.273 775> 1164 46<475.101 689.909> 1182 33<272.514 325> 1256 32<299.189 343> 1284 45<553.545 775> 1295 45<427 648.455> 1327 35<299.235 362.671> 1384 41<-220.86 -155.39 444 558> 1393 42<216.781 321.231> 1395 33<641.514 694> 1469 32<668.189 712> 1475 55<-56.3131 -2.7407> 1513 55<4.687 58.259> 1531 42<-225.096 -148.667> 1540 35<668.235 731.671> 1550 55<-56.3131 -2.7407> 1634 55<91.687 145.259> 1660 40<-207.78 -109.475> 1828 45<-78.9091 98> 1838 46<-250.604 -3.0909> 1889 45<252.25 344.926> 1958 45<-154.636 98> 1969 45<-299 -46.3636>
LayerCount: 2
Fore
SplineSet
604 375 m 1x080400890e0000000002
 481 339 l 1
 481 370 l 1
 604 406 l 1
 604 375 l 1x080400890e0000000002
1715 570 m 1
 1496 506 l 1
 1492 537 l 1
 1711 601 l 1
 1715 570 l 1
1629 432 m 1
 1506 396 l 1
 1506 427 l 1
 1629 463 l 1
 1629 432 l 1
1470 613 m 0
 1461 607 1451 604 1439 604 c 0
 1421 604 1409 610 1403 622 c 0
 1398 633 1395 646 1395 659 c 0
 1395 664 1395 669 1396 675 c 0
 1396 680 1397 687 1399 694 c 1
 1432 703 l 1
 1429 688 1428 675 1428 665 c 0
 1428 649 1434 641 1445 641 c 0
 1451 641 1457 644 1461 651 c 0
 1466 658 1468 672 1469 693 c 2
 1469 712 l 1
 1501 724 l 1
 1501 684 l 2x080400c90e0000001882
 1501 678 1502 672 1504 668 c 0
 1507 663 1512 661 1520 661 c 0
 1528 661 1533 663 1536 668 c 0
 1538 673 1540 679 1540 687 c 0
 1540 694 1539 702 1537 709 c 0
 1535 717 1533 725 1530 732 c 1
 1560 742 l 1
 1564 733 1568 724 1571 713 c 0
 1574 702 1575 692 1575 683 c 0
 1575 669 1571 655 1563 644 c 0
 1555 632 1542 626 1524 626 c 0x080400990e0000000482
 1510 626 1499 630 1490 638 c 1
 1486 628 1479 620 1470 613 c 0
1257 244 m 0
 1248 238 1238 235 1226 235 c 0
 1208 235 1196 241 1190 253 c 0
 1185 264 1182 277 1182 290 c 0
 1182 295 1182 300 1183 306 c 0
 1183 311 1184 318 1186 325 c 1
 1219 334 l 1
 1216 319 1215 306 1215 296 c 0
 1215 280 1221 272 1232 272 c 0x080500890e00000c8002
 1238 272 1244 275 1248 282 c 0
 1253 289 1255 303 1256 324 c 2
 1256 343 l 1
 1288 355 l 1
 1288 315 l 2
 1288 309 1289 303 1291 299 c 0
 1294 294 1299 292 1307 292 c 0
 1315 292 1320 294 1323 299 c 0
 1325 304 1327 310 1327 318 c 0
 1327 325 1326 333 1324 340 c 0
 1322 348 1320 356 1317 363 c 1
 1347 373 l 1
 1351 364 1355 355 1358 344 c 0
 1361 333 1362 323 1362 314 c 0
 1362 300 1358 286 1350 275 c 0
 1342 263 1329 257 1311 257 c 0x080440890e00000c8002
 1297 257 1286 261 1277 269 c 1
 1273 259 1266 251 1257 244 c 0
405 510 m 0
 402 506 400 501 400 496 c 0x080400892e0000000002
 400 490 402 484 407 478 c 0
 411 473 417 468 424 465 c 1
 432 473 437 482 437 492 c 0
 437 499 435 504 432 508 c 0
 429 513 425 515 419 515 c 0
 413 515 409 513 405 510 c 0
429 434 m 0
 406 419 374 410 336 408 c 1
 331 435 l 1x080402892e0000000002
 346 436 360 437 372 440 c 0
 384 443 394 446 402 450 c 1
 393 455 386 461 380 468 c 0
 375 476 372 485 372 496 c 0
 372 509 376 520 385 529 c 0
 394 538 406 543 420 543 c 0
 434 543 446 538 453 528 c 0
 461 518 465 507 465 494 c 0
 465 469 453 449 429 434 c 0
626 730 m 0
 623 727 621 722 621 717 c 0
 621 711 623 705 628 700 c 0
 632 694 638 689 645 686 c 1
 653 694 658 703 658 713 c 0x080400890f0000000002
 658 720 656 725 653 730 c 0
 650 734 646 736 640 736 c 0
 634 736 630 734 626 730 c 0
650 655 m 0
 627 640 595 631 557 629 c 1
 552 656 l 1
 567 657 581 658 593 661 c 0x080400990f0000000002
 605 664 615 667 623 671 c 1
 614 676 607 682 601 690 c 0
 596 697 593 706 593 717 c 0
 593 730 597 741 606 750 c 0
 615 759 627 764 641 764 c 0
 655 764 667 759 674 749 c 0
 682 739 686 728 686 715 c 0
 686 690 674 670 650 655 c 0
1015 949 m 1x080400890e0010000002
 978 949 l 1
 974 1064 l 1
 1011 1064 l 1
 1015 949 l 1x080400890e0010000002
986 818 m 0
 977 812 967 809 955 809 c 0
 937 809 925 815 919 827 c 0
 914 838 911 851 911 864 c 0
 911 869 911 874 912 880 c 0
 912 885 913 892 915 899 c 1
 948 908 l 1
 945 893 944 880 944 870 c 0
 944 854 950 846 961 846 c 0
 967 846 973 849 977 856 c 0
 982 863 984 877 985 898 c 2
 985 917 l 1
 1017 929 l 1
 1017 889 l 2x0804008d0e0029000002
 1017 883 1018 877 1020 873 c 0
 1023 868 1028 866 1036 866 c 0
 1044 866 1049 868 1052 873 c 0
 1054 878 1056 884 1056 892 c 0
 1056 899 1055 907 1053 914 c 0
 1051 922 1049 930 1046 937 c 1
 1076 947 l 1
 1080 938 1084 929 1087 918 c 0
 1090 907 1091 897 1091 888 c 0
 1091 874 1087 860 1079 849 c 0
 1071 837 1058 831 1040 831 c 0x0804008b0e0003000002
 1026 831 1015 835 1006 843 c 1
 1002 833 995 825 986 818 c 0
721 558 m 0x080400990ea200000002
 721 523 784 516 826 524 c 1
 821 626 l 1
 757 619 721 586 721 558 c 0x080400990ea200000002
1295 427 m 1x080400890e0000010002
 1284 775 l 1
 1329 775 l 1x080400890e0000020002
 1340 427 l 1
 1295 427 l 1x080400890e0000010002
794 -11 m 0x088400890e2000000002
 778 -11 766 1 766 16 c 0
 766 31 778 44 794 44 c 0
 809 44 821 31 821 16 c 0
 821 1 809 -11 794 -11 c 0x088400890e2000000002
788 -176 m 0x080400890e4040000002
 788 -206 811 -226 834 -239 c 1
 863 -226 885 -205 885 -174 c 0
 885 -149 865 -114 838 -114 c 0
 811 -114 788 -146 788 -176 c 0x080400890e4040000002
579 -310 m 0x280400891e4450800002
 447 -310 379 -279 379 -197 c 0
 379 -170 387 -138 395 -110 c 1
 436 -121 l 1
 432 -137 425 -166 425 -185 c 0
 425 -242 461 -265 594 -265 c 0x280400891e4450800002
 675 -265 741 -259 781 -252 c 1
 764 -237 743 -212 743 -175 c 0
 743 -116 789 -68 840 -68 c 0
 894 -68 931 -121 931 -171 c 0
 931 -206 915 -232 891 -252 c 1
 921 -255 955 -256 978 -256 c 0
 1043 -256 1063 -253 1063 -208 c 0
 1063 -180 1048 -134 1031 -91 c 1
 1076 -75 l 1
 1090 -111 1105 -166 1105 -199 c 0
 1105 -274 1066 -301 973 -301 c 0x180400891e4450800002
 926 -301 879 -295 838 -283 c 0
 832 -285 826 -287 819 -289 c 0
 785 -299 686 -310 579 -310 c 0x280400891e4450800002
810 -406 m 0x480400890e1000000002
 795 -406 782 -394 782 -379 c 0
 782 -364 795 -351 810 -351 c 0
 825 -351 837 -364 837 -379 c 0
 837 -394 825 -406 810 -406 c 0x480400890e1000000002
886 -406 m 0
 871 -406 859 -394 859 -379 c 0
 859 -364 871 -351 886 -351 c 0
 901 -351 914 -364 914 -379 c 0x480400890e0080000002
 914 -394 901 -406 886 -406 c 0
1083 -427 m 5x980400890e0000000086
 1067 -385 l 1
 1175 -349 1207 -290 1207 -239 c 0
 1207 -203 1188 -164 1168 -131 c 1
 1209 -110 l 1
 1229 -150 1244 -187 1252 -215 c 0
 1262 -247 1278 -256 1307 -256 c 0
 1354 -256 1360 -252 1384 -146 c 1
 1425 -157 l 1
 1421 -176 1413 -205 1413 -226 c 0
 1413 -245 1425 -256 1462 -256 c 0
 1506 -256 1514 -251 1531 -142 c 1
 1573 -150 l 1
 1570 -170 1563 -207 1563 -226 c 0
 1563 -242 1570 -256 1614 -256 c 0
 1651 -256 1667 -241 1667 -209 c 0
 1667 -183 1665 -156 1660 -110 c 1
 1700 -107 l 1
 1708.97949219 -225.734375 1717.95996094 -255.865234375 1778.59179688 -256 c 0
 1840.99414062 -255.905273438 1839.99414062 -240.82421875 1838 -185 c 2x980400890e0000004116
 1828 98 l 1
 1873 98 l 1x980400890e000000000a
 1884 -180 l 2
 1887 -259 1873 -301 1773 -301 c 0
 1732 -301 1704 -280 1692 -252 c 1
 1677 -291 1645 -301 1609 -301 c 0
 1571 -301 1550 -291 1540 -269 c 1
 1522 -296 1500 -301 1455 -301 c 0
 1432 -301 1402 -295 1389 -264 c 1
 1370 -296 1343 -301 1301 -301 c 0
 1273 -301 1254 -291 1243 -277 c 1
 1227 -360 1139 -414 1083 -427 c 5x980400890e0000000086
1578 -57 m 0x0c0400890e0000000042
 1563 -57 1550 -45 1550 -30 c 0
 1550 -15 1563 -2 1578 -2 c 0
 1593 -2 1605 -15 1605 -30 c 0
 1605 -45 1593 -57 1578 -57 c 0x0c0400890e0000000042
1503 -57 m 0
 1487 -57 1475 -45 1475 -30 c 0
 1475 -15 1487 -2 1503 -2 c 0
 1518 -2 1530 -15 1530 -30 c 0x0c0400890e0000000402
 1530 -45 1518 -57 1503 -57 c 0
1540 4 m 0x084400890e0000000082
 1525 4 1513 16 1513 31 c 0x084400890e0000000202
 1513 46 1525 59 1540 59 c 0x084400890e0000000082
 1555 59 1568 46 1568 31 c 0x084400890e0000000202
 1568 16 1555 4 1540 4 c 0x084400890e0000000082
1969 -299 m 1x080400890e000000000280
 1958 98 l 1
 2003 98 l 1x080400890e0000000003
 2014 -299 l 1
 1969 -299 l 1x080400890e000000000280
144 210 m 0
 144 175 207 167 248 175 c 1
 243 277 l 1x080420894e0000000002
 179 270 144 237 144 210 c 0
508 -25 m 0x090400890e0000000002
 493 -25 481 -13 481 2 c 0
 481 17 493 30 508 30 c 0
 523 30 536 17 536 2 c 0
 536 -13 523 -25 508 -25 c 0x090400890e0000000002
595 -50 m 1x0a1410890e0102000002
 578 -8 l 1
 686 28 718 87 718 138 c 0
 718 174 699 213 680 246 c 1
 720 267 l 1
 741 227 755 190 763 162 c 0
 773 130 789 121 818 121 c 0
 855 121 915 121 941 130 c 0
 965 138 978 150 986 171 c 1
 972 167 957 165 942 165 c 0
 885 165 853 195 853 236 c 0
 853 292 890 357 947 357 c 0
 1006 357 1036 290 1036 220 c 0
 1036 165 1018 126 975 100 c 0
 940 80 876 76 812 76 c 0
 784 76 766 86 754 100 c 1
 738 17 650 -37 595 -50 c 1x0a1410890e0102000002
829 357 m 0x080408890e0800000002
 814 357 801 369 801 384 c 0
 801 399 814 412 829 412 c 0
 844 412 856 399 856 384 c 0
 856 369 844 357 829 357 c 0x080408890e0800000002
897 247 m 0x080410890e0102000002
 897 223 911 209 947 209 c 0
 962 209 978 211 992 216 c 0
 992 218 992 221 992 223 c 0
 992 270 973 311 942 311 c 0
 916 311 897 277 897 247 c 0x080410890e0102000002
1103 161 m 0x082494890e0000402003
 1103 188 1110 220 1126 259 c 1
 1166 244 l 1
 1154 213 1148 187 1148 165 c 0
 1148 108 1199 78 1254 78 c 0
 1363 78 1395 142 1393 216 c 2
 1380 558 l 1
 1426 558 l 1
 1435 276 l 2
 1436.99316406 219.201171875 1462.81738281 204.106445312 1496.640625 204.000976562 c 0
 1573.40527344 204.1328125 1646.16601562 228.11328125 1706 269 c 1
 1677 295 1634 311 1584 311 c 0
 1565 311 1554 310 1534 305 c 1
 1525 348 l 1
 1545 354 1565 357 1584 357 c 0
 1681 357 1723 289 1781 289 c 2
 1793 289 l 1
 1796 249 l 1
 1784 249 1774 248 1763 245 c 1
 1777 212 1800 204 1851 204 c 0
 1921 204 1938 206 1945 207 c 1
 1925 218 1889 248 1889 299 c 0
 1889 362 1936 405 2003 405 c 0
 2020 405 2040 402 2058 396 c 1
 2049 354 l 1
 2034 358 2016 360 2003 360 c 0
 1963 360 1934 336 1934 299 c 0
 1934 251 1992 223 2024 224 c 1
 2042 229 2050 231 2093 250 c 1
 2108 210 l 1
 2034 179 1961 159 1845 159 c 0
 1786 159 1743 169 1727 233 c 1
 1671 206 1617 159 1491 159 c 0
 1464 159 1448 168 1437 181 c 1
 1427 107 1380 33 1251 33 c 0
 1174 33 1103 80 1103 161 c 0x082494890e0000402003
1661 91 m 0x080c00890e0000000022
 1646 91 1634 103 1634 118 c 0
 1634 133 1646 146 1661 146 c 0
 1676 146 1689 133 1689 118 c 0
 1689 103 1676 91 1661 91 c 0x080c00890e0000000022
936.5390625 470 m 0x080401a90e0200000002
 999.98828125 470.084960938 997.997070312 485.157226562 997 541 c 2
 987 775 l 1
 1034 775 l 1
 1042 542 l 2
 1044 485 1070 470 1104 470 c 0
 1167 470 1166 485 1164 541 c 2x080401a90e0204100002
 1153 775 l 1
 1199 775 l 1x080401a90e0000200002
 1210 546 l 2
 1213 467 1199 424 1099 424 c 0
 1061 424 1040 441 1030 461 c 1
 1015 437 986 424 931 424 c 0
 883 424 847 438 833 481 c 1
 754 462 677 490 677 551 c 0
 677 611 740 659 819 672 c 1
 817 715 l 1
 862 715 l 1x080401a90e8440100002
 871 530 l 2
 873.98828125 478.200195312 896.823242188 470.0625 936.5390625 470 c 0x080401a90e0200000002
358.5390625 121 m 0x081620894e0000000002
 435.340820312 121.112304688 508.139648438 145.095703125 568 186 c 1
 539 212 496 228 446 228 c 0
 427 228 416 227 396 222 c 1
 387 265 l 1
 407 271 427 274 446 274 c 0
 543 274 585 206 643 206 c 2
 654 206 l 1
 658 166 l 1
 563 166 527 76 353 76 c 0
 305 76 269 90 255 133 c 1
 176 114 100 142 100 202 c 0
 100 262 163 310 241 323 c 1
 239 365 l 1
 284 365 l 1x081620898f0000000002
 293 182 l 2
 295.98828125 130.200195312 318.823242188 121.0703125 358.5390625 121 c 0x081620894e0000000002
EndSplineSet
EndChar

StartChar: uniFBD2
Encoding: 64466 64466 19
Width: 1540
VWidth: 760
GlyphClass: 1
Flags: HW
HStem: -194 55<678.687 732.259 754.69 808.313> -89 45<445.446 646.889 647 713.862 772.907 911.179 972.088 1113.58> -37.8909 45.0438<292.427 390.678> 112 45<318.753 383 1118.95 1221.45> 158 42<979.333 1012.82> 276 45<494.748 576.827> 284 45<302.95 396.63 634.911 803.246 1159.61 1261.4> 335.109 45.0438<150.424 248> 374 40<906.975 976> 436 46<714.84 856.422> 443.02 44.9802<485.293 550.213> 485 46<176.753 241> 514 31<1072.99 1103.21> 532 30<1134.33 1166.18> 599 55<192.741 246.313> 675 55<192.741 246.313>
VStem: 100 44<390.381 455.132> 192 55<599.69 653.313 675.69 729.313> 242 44<17.381 82.132 442.286 485 527.323 573> 248 45<380.386 485> 383 44<57.667 112 153.44 200> 391 45<7.412 112> 678 55<-193.313 -139.741> 754 55<-193.313 -139.741> 904 46<111.9 310> 914.298 44.7023<-31.3145 219.373> 1044 28<545.21 590> 1059 45<4.566 96.926> 1107 27<562.64 605> 1167 29<562.501 625.416> 1254 45<506.091 683> 1264.98 45.3805<333.523 576.316> 1384 45<430.364 683> 1395 45<286 538.636>
LayerCount: 2
Fore
SplineSet
1125 543 m 1xf807832c
 1120.16210938 532.114257812 1108.04785156 514 1081 514 c 0
 1047.18261719 514 1044 548.147460938 1044 561 c 0
 1044 566 1044 566 1048 590 c 1
 1076 597 l 1
 1074 585 1072 574 1072 566 c 0
 1072 552 1077 545 1087 545 c 0xf80b832c
 1103.83789062 545 1105.75585938 566.602539062 1107 589 c 1
 1107 605 l 1
 1134 615 l 1
 1134 581 l 2
 1134 575.666992188 1134 562 1150 562 c 0
 1153.80957031 562 1167 562 1167 583 c 0
 1167 594.868164062 1162.19433594 613.611328125 1158 622 c 1
 1183 630 l 1
 1187.50097656 622.123046875 1196 604.165039062 1196 581 c 0
 1196 572.709960938 1193.96582031 532 1154 532 c 0
 1142 532 1132 536 1125 543 c 1xf807832c
1107 678 m 1
 728 573 l 1
 736 602 l 1
 1116 707 l 1
 1107 678 l 1
552 559 m 1
 378 508 l 1
 378 534 l 1
 552 585 l 1
 552 559 l 1
1192.31738281 -24.0263671875 m 0
 1195.39453125 -24.0263671875 1209.44921875 -21.662109375 1263 2 c 1
 1278 -38 l 1
 1204 -69 1131 -89 1015 -89 c 0
 978 -89 957 -73 947 -52 c 1
 932 -77 903 -89 849 -89 c 0
 777 -89 757 -77 748 -53 c 1
 739.251953125 -65.4970703125 722.100585938 -90 642 -90 c 2
 493 -90 l 1
 493.135742188 -88.9833984375 l 1
 445.59765625 -88.4404296875 410.725585938 -74.1572265625 397 -32 c 1
 380.48046875 -35.97265625 364.092773438 -37.890625 348.502929688 -37.890625 c 0
 289.5390625 -37.890625 242 -10.4541015625 242 37 c 0
 242 97 305 145 383 158 c 1
 382 200 l 1
 427 200 l 1xf803ab5c
 436 17 l 2
 438 -35 461 -44 501 -44 c 0
 504.006835938 -44 506.661132812 -44.353515625 508.98828125 -45 c 2
 646.888671875 -45 l 1
 647 -44 l 1
 721 -44 720 -28 739 71 c 1
 783 62 l 1
 778 42 771 13 771 -5 c 0
 771 -27 768 -44 854 -44 c 0
 908.232421875 -44 914.297851562 -32.884765625 914.297851562 5.931640625 c 0xf803874c
 914.297851562 12.20703125 914.139648438 19.2060546875 914 27 c 2
 904 310 l 1
 950 310 l 1xf803838c
 959 28 l 2
 961 -29 987 -44 1021 -44 c 0
 1091 -44 1108 -42 1115 -41 c 1
 1095 -30 1059 0 1059 51 c 0
 1059 114 1107 157 1173 157 c 0
 1190 157 1210 154 1228 148 c 1
 1219 106 l 1
 1204 110 1187 112 1173 112 c 0
 1133 112 1104 88 1104 51 c 0xf803835c
 1104 3.830078125 1160.01171875 -24.0263671875 1192.31738281 -24.0263671875 c 0
730 177 m 1
 607 141 l 1
 607 172 l 1
 730 208 l 1
 730 177 l 1
1361 221 m 1
 1238 185 l 1
 1238 216 l 1
 1361 252 l 1
 1361 221 l 1
247 627 m 0xf803c30c
 247 611 235 599 220 599 c 0
 205 599 192 611 192 627 c 0
 192 642 205 654 220 654 c 0
 235 654 247 642 247 627 c 0xf803c30c
247 703 m 0
 247 687 235 675 220 675 c 0
 205 675 192 687 192 703 c 0
 192 718 205 730 220 730 c 0
 235 730 247 718 247 703 c 0
144 418 m 0
 144 391.104492188 181.201171875 380.153320312 217.033203125 380.153320312 c 0
 227.83203125 380.153320312 238.505859375 381.147460938 248 383 c 1
 243 485 l 1xf913930c
 179 478 144 445 144 418 c 0
577.765625 351.271484375 m 0
 577.765625 363.243164062 554.486328125 443.01953125 521.02734375 443.01953125 c 0
 520.686523438 443.01953125 520.344726562 443.013671875 520 443 c 0
 503 443 484 429 461 382 c 1
 486 340 521 321 545 321 c 0xfc23830c
 564.465820312 321 577.765625 331.650390625 577.765625 351.271484375 c 0
982 158 m 1
 966 200 l 1
 1073 236 1105 295 1105 346 c 0
 1105 382 1086 421 1067 454 c 1
 1107 475 l 1
 1128 435 1142 398 1151 370 c 0
 1160.95703125 338.13671875 1175.87207031 329.077148438 1204.62890625 329.000976562 c 0
 1255.79003906 329.083007812 1264.97851562 339.248046875 1264.97851562 373.703125 c 0xfa03830d
 1264.97851562 381.252929688 1264.53710938 389.96875 1264 400 c 2
 1254 683 l 1
 1299 683 l 1xfa03830e
 1310 405 l 2
 1310.22949219 398.96484375 1310.359375 393.145507812 1310.359375 387.544921875 c 0
 1310.359375 319.828125 1291.36035156 284 1199 284 c 0xfa03830d
 1171 284 1153 294 1141 308 c 1
 1126 225 1037 171 982 158 c 1
1395 286 m 1xf803830c40
 1384 683 l 1
 1429 683 l 1xf803830c80
 1440 286 l 1
 1395 286 l 1xf803830c40
286 45 m 0xf803a70c
 286 18.1044921875 323.201171875 7.1533203125 359.487304688 7.1533203125 c 0
 370.421875 7.1533203125 381.274414062 8.1474609375 391 10 c 1
 386 112 l 1
 322 105 286 72 286 45 c 0xf803a70c
705 -194 m 0
 690 -194 678 -182 678 -167 c 0
 678 -152 690 -139 705 -139 c 0
 720 -139 733 -152 733 -167 c 0
 733 -182 720 -194 705 -194 c 0
782 -194 m 0
 766 -194 754 -182 754 -167 c 0
 754 -152 766 -139 782 -139 c 0
 797 -139 809 -152 809 -167 c 0
 809 -182 797 -194 782 -194 c 0
359 329 m 0xfb13930c
 389 329 397 347 423 400 c 0
 459 470 497 488 523 488 c 0xfa23930c
 560 488 582 466 609 400 c 0
 633.890625 338.270507812 650.8515625 329.079101562 679.62109375 329.000976562 c 0
 756.392578125 329.12890625 829.161132812 353.110351562 889 394 c 1
 860 420 817 436 767 436 c 0
 748 436 737 435 717 430 c 1
 708 473 l 1
 728 479 748 482 767 482 c 0
 864 482 906 414 964 414 c 2
 976 414 l 1
 979 374 l 1
 884 374 848 284 674 284 c 0xfac3930c
 646 284 621 293 606 312 c 1
 592 287 570 276 546 276 c 0xfc03930c
 509 276 467 301 440 340 c 1
 411 289 389 284 353 284 c 0
 305 284 269 298 255 341 c 1
 238.48046875 337.02734375 222.092773438 335.109375 206.502929688 335.109375 c 0
 147.5390625 335.109375 100 362.545898438 100 410 c 0
 100 470 163 518 241 531 c 1
 239 573 l 1
 284 573 l 1
 293 390 l 2
 296 338 319 329 359 329 c 0xfb13930c
EndSplineSet
EndChar

StartChar: uniFD90
Encoding: 64912 64912 20
Width: 1253
VWidth: 900
GlyphClass: 1
Flags: HW
HStem: -396 55<553.69 607.313 629.69 683.313> -291 45<320.844 589.576 647.913 786.433 847.804 989.219> -90 45<994.256 1096.54> 103 45<494.748 576.772> 111 45<302.95 396.63 634.911 803.246> 201 40<906.975 976> 263 46<714.84 856.422> 270 45<485.293 551> 312 46<176.753 241> 362 46.0004<536.543 649.436 710.804 816.738> 426 55<192.741 246.313> 502 55<192.741 246.313> 563 47<410.753 475> 612 27<267.704 330.671> 719 28<335.906 368.601> 806 36<596.31 629.754> 827 33<667.559 700.227>
VStem: 100 44<217.848 282.132> 117 44<-183.152 -118.868> 192 55<426.69 480.313 502.69 556.313> 241 43<257.667 312 354.323 400> 248 45<207.464 312> 260 42<-161.125 -89 -46.6768 -1> 265 45<-193.536 -89> 305 28<675.112 715.906> 334 44<467.747 533.417> 370 28<669.202 718.413> 475 43<508.889 563 606.306 652> 482 45<459.398 563> 553 55<-395.313 -341.741> 565 31<842.512 893> 628 35<940 1051> 629 55<-395.313 -341.741> 635 30<867.188 910> 643 46<542.667 762> 652 46<419.751 699.111> 703 34<867.235 928.67> 780 46<-111.333 108> 789 46<-234.249 45.111> 808 45<585.091 762> 819 45<413.101 659.091> 934 46<-197.75 -105.074 576.733 762> 949 45<365 617.636>
LayerCount: 2
Fore
SplineSet
450 321 m 1xe47e000008
 327 285 l 1
 327 316 l 1
 450 352 l 1
 450 321 l 1xe47e000008
338 714 m 0
 334 710 333 705 333 700 c 0
 333 694 335 688 340 682 c 0
 344 677 350 672 357 669 c 1
 365 677 370 686 370 696 c 0xe47e00a008
 370 703 368 708 365 712 c 0
 362 717 358 719 352 719 c 0
 346 719 342 717 338 714 c 0
362 638 m 0
 338 623 307 614 269 612 c 1
 264 639 l 1
 279 640 293 641 305 644 c 0
 317 647 327 650 335 654 c 1
 326 659 319 665 313 672 c 0
 307 680 305 689 305 700 c 0
 305 713 309 724 318 733 c 0
 327 742 339 747 353 747 c 0
 367 747 378 742 386 732 c 0
 394 722 398 711 398 698 c 0
 398 673 386 653 362 638 c 0
663 940 m 1xe47e000108
 628 940 l 1
 625 1051 l 1
 660 1051 l 1
 663 940 l 1xe47e000108
636 815 m 0
 628 809 618 806 606 806 c 0
 589 806 578 812 573 823 c 0
 567 834 565 846 565 859 c 0
 565 864 565 869 565 874 c 0
 566 879 567 885 568 893 c 1
 599 901 l 1
 597 886 596 874 596 865 c 0
 596 850 601 842 612 842 c 0
 618 842 624 845 628 851 c 0xe47f000308
 632 857 635 871 635 891 c 2
 635 910 l 1
 665 922 l 1
 665 883 l 2xe47f000048
 665 876 667 871 669 867 c 0
 671 863 676 860 684 860 c 0xe47e800088
 692 860 697 863 699 867 c 0
 701 872 703 878 703 886 c 0
 703 893 702 900 700 907 c 0
 699 915 696 922 693 929 c 1
 722 938 l 1
 726 930 730 920 733 910 c 0
 736 900 737 891 737 883 c 0
 737 869 733 856 725 844 c 0
 717 833 705 827 689 827 c 0xe47e800028
 675 827 664 831 655 838 c 1
 651 829 645 821 636 815 c 0
378 496 m 0xe47e004808
 378 461 440 454 482 462 c 1
 477 563 l 1
 413 556 378 523 378 496 c 0xe47e004808
949 365 m 1xe47e00000820
 938 762 l 1
 983 762 l 1
 994 365 l 1
 949 365 l 1xe47e00000820
161 -156 m 0xe47e220008
 161 -191 224 -199 265 -191 c 1xe47e210008
 260 -89 l 1
 197 -96 161 -129 161 -156 c 0xe47e220008
581 -396 m 0
 565 -396 553 -384 553 -369 c 0
 553 -354 565 -341 581 -341 c 0
 596 -341 608 -354 608 -369 c 0xe47e000408
 608 -384 596 -396 581 -396 c 0
657 -396 m 0
 641 -396 629 -384 629 -369 c 0
 629 -354 641 -341 657 -341 c 0
 672 -341 684 -354 684 -369 c 0xe47e000088
 684 -384 672 -396 657 -396 c 0
247 454 m 0xe47e100008
 247 438 235 426 220 426 c 0
 205 426 192 438 192 454 c 0
 192 469 205 481 220 481 c 0
 235 481 247 469 247 454 c 0xe47e100008
247 530 m 0
 247 514 235 502 220 502 c 0
 205 502 192 514 192 530 c 0
 192 545 205 557 220 557 c 0
 235 557 247 545 247 530 c 0
144 245 m 0xe4fe440008
 144 210 207 202 248 210 c 1
 243 312 l 1
 179 305 144 272 144 245 c 0xe4fe440008
461 209 m 1
 486 167 521 148 545 148 c 0
 571 148 586 167 573 201 c 0
 559 234 546 271 520 270 c 0xf57e000008
 503 270 484 256 461 209 c 1
899 -5 m 1
 890 39 l 1
 1007 56 1043 111 1051 160 c 0
 1056 190 1052 214 1031 273 c 1
 1074 286 l 1
 1094 234 1098 188 1093 157 c 0
 1074 41 959 0 899 -5 c 1
592.53515625 408 m 0
 654.994140625 408.0859375 653.994140625 423.159179688 652 479 c 2xe47e000818
 643 762 l 1
 689 762 l 1xe47e000028
 698 480 l 2
 699 423 725 408 759 408 c 0
 822 408 821 423 819 479 c 2xe47e00001880
 808 762 l 1
 853 762 l 1xe47e000009
 864 484 l 2
 868 405 854 362 754 362 c 0
 716 362 695 379 685 400 c 1
 670 375 641 362 587 362 c 0
 539 362 503 376 489 420 c 1
 410 401 334 428 334 489 c 0
 334 548 397 597 475 610 c 1
 473 652 l 1
 518 652 l 1xe47e00500880
 527 468 l 2xe47e000808
 529.98828125 416.202148438 552.822265625 408.0625 592.53515625 408 c 0
383.98828125 -246 m 2
 522 -246 l 2
 596 -246 596 -230 615 -131 c 1
 658 -140 l 1
 653 -160 646 -189 646 -207 c 0
 646 -228.952148438 643.012695312 -245.92578125 729.43359375 -246 c 0
 791.995117188 -245.930664062 790.995117188 -230.87109375 789 -175 c 2xe47e01000a
 780 108 l 1
 826 108 l 1xe47e00000c
 835 -174 l 2
 836 -231 862 -246 896 -246 c 0
 966 -246 983 -244 991 -243 c 1
 971 -232 934 -202 934 -151 c 0
 934 -88 982 -45 1048 -45 c 0
 1066 -45 1086 -48 1103 -54 c 1
 1094 -96 l 1
 1079 -92 1062 -90 1048 -90 c 0
 1008 -90 980 -114 980 -151 c 0
 980 -199 1037 -227 1070 -226 c 1
 1087 -221 1095 -219 1138 -200 c 1
 1153 -240 l 1
 1079 -271 1006 -291 891 -291 c 0
 853 -291 832 -275 822 -254 c 1
 807 -279 778 -291 724 -291 c 0
 652 -291 632 -279 623 -255 c 1
 602 -285 574 -291 517 -291 c 2
 368 -291 l 1
 368.134765625 -289.993164062 l 1
 321.067382812 -289.630859375 285.818359375 -275.44140625 272 -233 c 1
 193 -252 117 -224 117 -164 c 0
 117 -104 180 -56 258 -43 c 1
 257 -1 l 1
 302 -1 l 1xe47e22000a40
 310 -184 l 2xe47e010008
 313 -236 336 -245 376 -245 c 0
 379.006835938 -245 381.661132812 -245.353515625 383.98828125 -246 c 2
359 156 m 0xecfe040008
 389 156 397 174 423 227 c 0
 459 297 497 315 523 315 c 0xed7e040008
 560 315 582 293 609 227 c 0
 633.890625 165.270507812 650.8515625 156.079101562 679.62109375 156.000976562 c 0
 756.392578125 156.12890625 829.161132812 180.110351562 889 221 c 1
 860 247 817 263 767 263 c 0
 748 263 737 262 717 257 c 1
 708 300 l 1
 728 306 748 309 767 309 c 0
 864 309 906 241 964 241 c 2
 976 241 l 1
 979 201 l 1
 884 201 848 111 674 111 c 0xee7e040008
 646 111 621 120 606 139 c 1
 592 114 570 103 546 103 c 0xf47e040008
 509 103 467 128 440 167 c 1
 411 116 389 111 353 111 c 0
 305 111 269 125 255 168 c 1
 176 149 100 177 100 237 c 0
 100 297 163 345 241 358 c 1
 239 400 l 1
 284 400 l 1xecfe480008
 293 217 l 2
 296 165 319 156 359 156 c 0xecfe040008
EndSplineSet
EndChar

StartChar: uniFD91
Encoding: 64913 64913 21
Width: 1541
VWidth: 800
GlyphClass: 1
Flags: HW
HStem: -403 45<491.189 584.296> -389 55<841.69 895.313 917.69 971.313> -284 45<164.298 228.993 229 378.994 379 419.296 613.759 661.998 662 877.754 936.067 1074.43 1135.5 1182.87 1183 1275.9> -267 32<466.702 517.156> -96 46<505.185 553.176> -82 46<1281.47 1383.52> 54 45<599.748 681.772> 62 45<407.95 501.983 740.369 908.651> 152 40<1011.98 1081> 214 46<819.84 961.422> 221 45<591.31 656.126> 263 46<281.753 346> 313 46.0004<641.543 754.764 815.804 921.738> 377 55<297.741 351.313> 453 55<297.741 351.313> 514 47<515.753 580> 563 27<372.704 435.671> 670 28<438.53 471.718> 757 36<701.31 734.597> 778 33<772.809 805.227>
VStem: 100 46<-30.273 216> 111 46<-231.266 69.091> 205 44<168.848 233.132> 297 55<377.69 431.313 453.69 507.313> 348 42<190.875 263 305.323 351> 353 45<158.464 263> 410 28<626.347 669.207> 439 44<420.366 484.417> 475 28<620.202 666.491> 557 45<-204.964 -96.417> 580 43<459.889 514 557.306 603> 587 45<410.398 514> 670 31<793.512 844> 733 35<891 1002> 740 31<818.19 861> 748 46<493.667 713> 757 46<370.751 650.111> 808 34<818.24 879.67> 841 55<-388.313 -334.741> 913 45<536.091 713> 917 55<-388.313 -334.741> 924 45<364.101 610.091> 1043 45<460.364 713> 1054 45<316 568.636> 1071.33 45.1143<-120.198 -37.147 38.558 115> 1156 42<60.172 221.26> 1221 46<-189.306 -96.987>
LayerCount: 2
Fore
SplineSet
1382 328 m 1x008fc2208006
 1163 264 l 1
 1159 295 l 1
 1378 359 l 1
 1382 328 l 1x008fc2208006
1385 79 m 1
 1262 43 l 1
 1262 74 l 1
 1385 110 l 1
 1385 79 l 1
372 -284 m 2xa48fc624800e
 223 -284 l 1
 223 -283.995117188 223.001953125 -283.989257812 223.001953125 -283.984375 c 1
 222.669921875 -283.995117188 222.3359375 -284 222 -284 c 0
 132 -284 113 -255 111 -188 c 2xa48fc624800e
 100 216 l 1
 146 216 l 1xa48fca208006
 157 -171 l 2
 159 -225 163 -239 227 -239 c 0
 227.680664062 -239 228.344726562 -239.018554688 228.993164062 -239.053710938 c 1
 228.993164062 -239.036132812 229 -239.017578125 229 -239 c 1
 377 -239 l 2
 377.6796875 -239 378.344726562 -239.014648438 378.994140625 -239.04296875 c 1
 378.994140625 -239.029296875 379 -239.014648438 379 -239 c 1
 393 -239 406 -239 419 -239 c 1
 425 -127 486 -50 538 -50 c 0xa88fc6208006
 574 -50 602 -84 602 -136 c 0
 602 -168 594 -203 565 -227 c 1
 594 -234 626 -239 661 -239 c 0
 661.336914062 -239 661.669921875 -239.004882812 661.998046875 -239.013671875 c 1
 661.998046875 -239.008789062 662 -239.004882812 662 -239 c 1
 810 -239 l 2
 884 -239 884 -223 903 -124 c 1
 946 -133 l 1
 942 -153 934 -182 934 -200 c 0
 934 -221.952148438 932.008789062 -238.92578125 1017.44140625 -239 c 0
 1079.99511719 -238.9296875 1078.99511719 -223.869140625 1077 -168 c 2
 1072.83886719 -37.146484375 l 1
 1047.57226562 -47.2109375 1023.02246094 -52.4150390625 1004 -54 c 1
 995 -10 l 1
 1025.69921875 -5.5390625 1050.82226562 1.537109375 1071.32519531 10.435546875 c 1
 1068 115 l 1
 1114 115 l 1
 1116.43945312 38.5576171875 l 1
 1141.01953125 60.5458984375 1152.00390625 86.521484375 1156 111 c 0
 1161 141 1157 165 1136 224 c 1
 1179 237 l 1
 1199 185 1203 139 1198 108 c 0
 1188.64160156 50.865234375 1155.99414062 11.92578125 1118.10058594 -13.4794921875 c 1
 1123 -167 l 2
 1123.98925781 -223.3671875 1149.42578125 -238.662109375 1182.87011719 -238.994140625 c 1
 1183 -238 l 1
 1253 -238 1270 -236 1278 -236 c 1
 1258 -224 1221 -195 1221 -143 c 0
 1221 -80 1269 -36 1336 -36 c 0
 1353 -36 1373 -40 1391 -45 c 1
 1381 -88 l 1
 1366 -84 1349 -82 1336 -82 c 0
 1295 -82 1267 -106 1267 -143 c 0
 1267 -191 1325 -220 1357 -219 c 1
 1375 -213 1383 -212 1425 -192 c 1
 1441 -233 l 1
 1366.53417969 -262.786132812 1294.04003906 -283.700195312 1179.47167969 -283.997070312 c 0
 1179.31445312 -283.997070312 1179.15722656 -284 1179 -284 c 0
 1178.81738281 -284 1178.63476562 -283.999023438 1178.453125 -283.999023438 c 0
 1177.96972656 -283.999023438 1177.48535156 -284 1177 -284 c 1
 1177 -283.995117188 1177.00195312 -283.990234375 1177.00195312 -283.985351562 c 0
 1140.26171875 -283.43359375 1119.82324219 -267.62890625 1110 -247 c 1
 1095 -272 1066 -284 1012 -284 c 0
 940 -284 920 -272 912 -248 c 1
 890 -278 862 -284 805 -284 c 2
 663.844726562 -284 l 2
 661.375 -284.646484375 658.74609375 -285 656 -285 c 0
 642 -285 628 -284 613 -282 c 1
 646 -332 620 -403 544 -403 c 0
 480 -403 428 -363 420 -281 c 1
 405 -283 389 -285 373 -285 c 1
 373.131835938 -283.986328125 l 1
 372.759765625 -283.995117188 372.381835938 -284 372 -284 c 2xa48fc624800e
545 -358 m 0
 565 -358 588 -348 588 -319 c 0
 588 -291 570 -267 507 -267 c 0x908fc2208006
 495 -267 481 -269 466 -273 c 1
 474 -346 518 -358 545 -358 c 0
534 -96 m 0x188fc2248006
 512 -96 468 -153 464 -235 c 1
 518 -228 557 -206 557 -141 c 0
 557 -124 551 -96 534 -96 c 0x188fc2248006
555 272 m 1
 432 236 l 1
 432 267 l 1
 555 303 l 1
 555 272 l 1
443 664 m 0
 439 661 438 656 438 651 c 0
 438 645 440 639 445 634 c 0
 449 628 455 623 462 620 c 1
 470 628 475 637 475 647 c 0x008fc2288006
 475 654 473 659 470 664 c 0
 467 668 463 670 457 670 c 0
 451 670 447 668 443 664 c 0
467 589 m 0
 443 574 412 565 374 563 c 1
 369 590 l 1
 384 591 398 592 410 595 c 0
 422 598 432 601 440 605 c 1
 431 610 424 616 418 624 c 0
 412 631 410 640 410 651 c 0
 410 664 414 675 423 684 c 0
 432 693 444 698 458 698 c 0
 472 698 483 693 491 683 c 0
 499 673 503 662 503 649 c 0
 503 624 491 604 467 589 c 0
768 891 m 1x008fc220c006
 733 891 l 1
 730 1002 l 1
 765 1002 l 1
 768 891 l 1x008fc220c006
742 766 m 0
 733 760 723 757 711 757 c 0
 694 757 683 763 678 774 c 0
 672 785 670 797 670 810 c 0
 670 815 670 820 670 825 c 0
 671 830 672 836 673 844 c 1
 704 852 l 1
 702 837 701 825 701 816 c 0
 701 801 706 793 717 793 c 0
 723 793 729 796 733 802 c 0x008fe220c006
 737 808 740 822 740 842 c 2
 740 861 l 1
 771 873 l 1
 771 834 l 2x008fe220a006
 771 827 772 822 774 818 c 0
 776 814 781 811 789 811 c 0
 797 811 802 814 804 818 c 0
 806 823 808 829 808 837 c 0
 808 844 807 851 805 858 c 0
 804 866 801 873 798 880 c 1
 827 889 l 1
 831 881 835 871 838 861 c 0
 841 851 842 842 842 834 c 0
 842 820 838 807 830 795 c 0
 822 784 810 778 794 778 c 0x008fd2209406
 780 778 769 782 760 789 c 1
 756 780 750 772 742 766 c 0
483 447 m 0x008fc2318006
 483 412 546 405 587 413 c 1
 582 514 l 1
 518 507 483 474 483 447 c 0x008fc2318006
1054 316 m 1x008fc2208016
 1043 713 l 1
 1088 713 l 1x008fc2208026
 1099 316 l 1
 1054 316 l 1x008fc2208016
869 -389 m 0x408fc2208206
 853 -389 841 -377 841 -362 c 0
 841 -347 853 -334 869 -334 c 0
 884 -334 896 -347 896 -362 c 0
 896 -377 884 -389 869 -389 c 0x408fc2208206
945 -389 m 0
 929 -389 917 -377 917 -362 c 0
 917 -347 929 -334 945 -334 c 0
 960 -334 972 -347 972 -362 c 0x408fc2208086
 972 -377 960 -389 945 -389 c 0
352 405 m 0x008fc3208006
 352 389 340 377 325 377 c 0
 310 377 297 389 297 405 c 0
 297 420 310 432 325 432 c 0
 340 432 352 420 352 405 c 0x008fc3208006
352 481 m 0
 352 465 340 453 325 453 c 0
 310 453 297 465 297 481 c 0
 297 496 310 508 325 508 c 0
 340 508 352 496 352 481 c 0
249 196 m 0
 249 161 312 153 353 161 c 1x009fc2608006
 348 263 l 1x009fc2a08006
 285 256 249 223 249 196 c 0
566 160 m 1
 591 118 626 99 650 99 c 0
 676 99 691 118 678 152 c 0
 665 185 651 222 625 221 c 0x02afc2208006
 608 221 590 207 566 160 c 1
697.5390625 359 m 0
 760.98828125 359.084960938 758.994140625 374.157226562 757 430 c 2x008fc2218806
 748 713 l 1
 794 713 l 1x008fc2209006
 803 431 l 2
 804 374 830 359 864 359 c 0
 927 359 926 374 924 430 c 2x008fc2208846
 913 713 l 1
 958 713 l 1x008fc2208106
 969 435 l 2
 973 356 959 313 859 313 c 0
 821 313 800 330 790 351 c 1
 776 326 746 313 692 313 c 0
 644 313 608 327 594 371 c 1
 515 352 439 379 439 440 c 0
 439 499 502 548 580 561 c 1
 578 603 l 1
 623 603 l 1x008fc2328046
 632 419 l 2x008fc2218006
 634.98828125 367.200195312 657.823242188 359.0625 697.5390625 359 c 0
464 107 m 0x019fc2608006
 495 107 502 125 528 178 c 0
 564 248 602 266 628 266 c 0x01afc2608006
 665 266 687 244 715 178 c 0
 740 116 756 107 785 107 c 0
 861 107 935 131 994 172 c 1
 965 198 922 214 872 214 c 0
 853 214 842 213 822 208 c 1
 813 251 l 1
 833 257 853 260 872 260 c 0
 969 260 1011 192 1069 192 c 2
 1081 192 l 1
 1085 152 l 1
 990 152 953 62 780 62 c 0x01cfc2608006
 751 62 726 71 711 90 c 1
 697 65 675 54 651 54 c 0x028fc2608006
 614 54 572 79 545 118 c 1
 516 67 495 62 458 62 c 0
 410 62 374 76 360 119 c 1
 281 100 205 128 205 188 c 0
 205 248 268 296 346 309 c 1
 345 351 l 1
 390 351 l 1x019fc2a08006
 398 168 l 2
 401 116 424 107 464 107 c 0x019fc2608006
EndSplineSet
EndChar

StartChar: uniFDC8
Encoding: 64968 64968 22
Width: 1362
VWidth: 800
GlyphClass: 1
Flags: HW
HStem: -508 45<218.986 434.994 435 584.994 585 1204.81> -357.663 44.667<312.985 346.666> -348 45<536.472 584.992 585 688.25 765.705 871.999 872 936.763> -163 44<653.859 771.359> -122 44<1064.57 1133.76> -117 54<802.406 848.719 877.406 923.719> -50 45<645.748 727.772> -42 45.0005<302.839 356.734 402.415 461.138 507.597 547.792 785.911 954.246> 48 40<1057.98 1127> 110 46<865.84 1007.42> 117 45<636.293 702> 159 46<176.753 241> 209 46.0004<496.543 609.436 670.804 776.738> 410 47<370.753 435> 653 36<556.31 589.754> 674 33<627.559 660.227>
VStem: 100 44<64.848 129.132> 170 44<-453.87 -387.589> 241 43<104.667 159 201.323 247> 248 45<54.464 159> 267 30<-218 -82> 294 44<314.747 380.417> 353 44<4 149> 363 45<-306.81 -41.65 4 96.273> 435 43<355.889 410 453.306 499> 442 45<306.398 410> 462.34 45.2571<-92.364 -41.981 4 159> 525 31<689.512 740> 585 35<787 898> 595 30<714.188 757> 603 46<389.667 609> 612 46<266.751 546.111> 663 34<714.235 775.672> 768 45<432.091 609> 779 44<-240.275 -171.208 260.101 497.8> 802 55<-108.764 -71.236> 877 55<-108.764 -71.236> 898 45<356.364 609> 909 45<212 464.636> 945 41<-290.565 -172.229>
LayerCount: 2
Fore
SplineSet
1210 -484 m 0
 1210 -494.797654828 1198.61532308 -508 1183 -508 c 2xc08cc19880
 1034 -508 l 1
 1034.01757812 -507.864257812 l 1
 1033.03125 -507.95703125 1032.02636719 -508 1031 -508 c 2
 882.0078125 -507.94140625 l 2
 881.34765625 -507.981445312 880.678710938 -508 880 -508 c 2
 731 -508 l 1
 731.017578125 -507.864257812 l 1
 730.03125 -507.95703125 729.026367188 -508 728 -508 c 2
 579.001953125 -507.986328125 l 2
 578.669921875 -507.995117188 578.3359375 -508 578 -508 c 2
 429.001953125 -507.986328125 l 2
 428.669921875 -507.995117188 428.3359375 -508 428 -508 c 2
 287 -508 l 1
 242.655998684 -511.547520105 170 -493.748303127 170 -433 c 0
 170 -377.701356195 223.989864788 -329.307845205 303.96484375 -313.318359375 c 1
 304 -313 l 2
 304.537109375 -313 305.071289062 -312.99609375 305.600585938 -312.99609375 c 0
 307.38671875 -312.649414062 309.185546875 -312.317382812 311 -312 c 1
 311.040039062 -312.912109375 l 1
 363 -311.570413019 363 -301.667848665 363 -242 c 1xc08cc19880
 357.875976562 -41.6494140625 l 1
 356.30078125 -41.8798828125 354.671875 -42 353 -42 c 0
 305 -42 269 -28 255 15 c 1
 176 -4 100 24 100 84 c 0
 100 144 163 192 241 205 c 1
 239 247 l 1
 284 247 l 1xc19ce21080
 293 64 l 2
 295.943359375 12.990234375 318.131835938 3.3583984375 356.733398438 3.009765625 c 1
 353 149 l 1
 397 149 l 1
 401.131835938 4 l 1
 461.138671875 4 l 1
 457 159 l 1
 502 159 l 1xc19cd21080
 506.31640625 4 l 1
 510 4 l 2
 512.565429688 4 514.92578125 3.7939453125 517.046875 3.3828125 c 0
 541.454101562 6.234375 550.161132812 25.4052734375 574 74 c 0
 610 144 648 162 674 162 c 0x80acd21080
 711 162 733 140 760 74 c 0
 784.890625 12.2705078125 801.8515625 3.0791015625 830.62109375 3.0009765625 c 0
 907.392578125 3.12890625 980.161132812 27.1103515625 1040 68 c 1
 1011 94 968 110 918 110 c 0
 899 110 888 109 868 104 c 1
 859 147 l 1
 879 153 899 156 918 156 c 0
 1015 156 1057 88 1115 88 c 2
 1127 88 l 1
 1130 48 l 1
 1035 48 999 -42 825 -42 c 0x81ccd21080
 797 -42 772 -33 757 -14 c 1
 743 -39 721 -50 697 -50 c 0
 660 -50 618 -25 591 14 c 1
 562.978515625 -35.279296875 541.4921875 -41.6103515625 507.596679688 -41.9814453125 c 1
 513 -236 l 1
 513 -294.902734095 526.345244658 -303 583 -303 c 0
 583.682617188 -303 584.346679688 -303.018554688 585 -303 c 0
 599.438596491 -303 638.333333333 -303 689 -284 c 1
 671.446336114 -262.545521917 649.923947579 -242.710728907 623 -222 c 0
 617.146820439 -220.048940146 609 -196.890987634 609 -186 c 0
 609 -164.337421278 665.886556004 -119 734 -119 c 0
 807.100379191 -119 823 -159.827198121 823 -183 c 0
 823 -219.732200269 796.437499744 -259.802083547 765 -286 c 1
 779.34384709 -291.737538836 814.682685951 -303 871 -303 c 0
 871.337890625 -303 871.670898438 -303.00390625 872 -303 c 0
 918.189647655 -303 945 -298.583927481 945 -255 c 0
 945 -230.698096634 930.216028814 -185.192075638 913 -140 c 1
 958 -123 l 1
 968.8 -155.4 986 -207 986 -247 c 0
 986 -290.854007176 975.361217246 -348 866 -348 c 0
 824.67203743 -348 770.09059296 -341.254355776 723 -313 c 1
 712.140192557 -318.972894094 655.286852466 -348.082019941 579.005859375 -347.955078125 c 0
 578.350585938 -347.985351562 577.682617188 -348 577 -348 c 0
 501.188502713 -348 468 -329.615305089 468 -253 c 1
 462.33984375 -41 l 1
 402.4140625 -41 l 1
 408 -237 l 2
 411.360817303 -324.381249882 388.250193991 -353.919417605 312.985351562 -357.663085938 c 1
 313 -358 l 1
 283 -362 258 -370 240 -384 c 0
 222 -397 214 -411 214 -425 c 0
 214 -436.274975401 220.963919654 -463 287 -463 c 2
 433 -463 l 2
 433.686523438 -463 434.350585938 -463.014648438 435 -463 c 2
 583 -463 l 2
 583.686523438 -463 584.350585938 -463.014648438 585 -463 c 2
 733 -463 l 2
 734.415039062 -463 735.736328125 -463.0625 736.974609375 -463.1875 c 1
 737 -463 l 1
 885 -463 l 2
 886.044921875 -463 887.0390625 -463.034179688 887.986328125 -463.102539062 c 2
 888 -463 l 1
 1036 -463 l 2
 1037.41503906 -463 1038.73632812 -463.0625 1039.97460938 -463.1875 c 1
 1040 -463 l 1
 1188 -463 l 2
 1195.53480234 -463 1210 -465.419590591 1210 -484 c 0
932 -90 m 0x848cc01088
 932 -106.192361366 917.526899414 -117 905 -117 c 0
 893.392889688 -117 877 -109.204638006 877 -90 c 0
 877 -70.796165508 893.391864567 -63 905 -63 c 0
 917.527779894 -63 932 -73.8084413131 932 -90 c 0x848cc01088
857 -90 m 0x848cc01090
 857 -106.192361366 842.526899414 -117 830 -117 c 0
 818.392889688 -117 802 -109.204638006 802 -90 c 0
 802 -70.796165508 818.391864567 -63 830 -63 c 0
 842.527779894 -63 857 -73.8084413131 857 -90 c 0x848cc01090
779 -195 m 0
 779 -194.393899573 778.745664445 -163 726 -163 c 0x908cc010a0
 701.824583881 -163 669.133454598 -172.562868646 648 -189 c 1
 671.514897966 -207.475991259 696.551664725 -231.551664725 729 -264 c 1
 741.333381169 -255.777745888 779 -227.968293388 779 -195 c 0
297 -218 m 1x808cc81080
 267 -218 l 1x808cc81080
 264 -82 l 1
 294 -82 l 1x808cc41080
 297 -218 l 1x808cc81080
1132 245 m 1
 1009 209 l 1
 1009 240 l 1
 1132 276 l 1
 1132 245 l 1
623 787 m 1
 588 787 l 1
 585 898 l 1
 620 898 l 1x808cc01880
 623 787 l 1
615 685 m 1
 610.719509212 675.368895728 597.398526104 653 566 653 c 0
 556.685534591 653 525 653 525 706 c 0
 525 716 525 716 528 740 c 5
 559 748 l 1
 557 733 556 721 556 712 c 0
 556 697 561 689 572 689 c 0
 589.89463347 689 595 709.618969907 595 738 c 2
 595 757 l 1
 625 769 l 1
 625 730 l 2x808ec01480
 625 720.17609396 627.985052731 707 644 707 c 0
 648.794871795 707 663 707 663 733 c 0
 663 740.2528141 661.726283885 755.638670936 653 776 c 1
 682 785 l 1
 689.171493132 770.657013735 697 750.329494729 697 730 c 0
 697 726.956777592 696.320146234 674 649 674 c 0x808dc01280
 635 674 624 678 615 685 c 1
338 343 m 0x808cc45080
 338 308 400 301 442 309 c 1
 437 410 l 1
 373 403 338 370 338 343 c 0x808cc45080
909 212 m 1x808cc01082
 898 609 l 1
 943 609 l 1x808cc01084
 954 212 l 1
 909 212 l 1x808cc01082
144 92 m 0
 144 57 207 49 248 57 c 1
 243 159 l 1x809cd01080
 179 152 144 119 144 92 c 0
612 56 m 1x82acc01180
 637 14 672 -5 696 -5 c 0
 722 -5 737 14 724 48 c 0
 710 81 697 118 671 117 c 0
 654 117 635 103 612 56 c 1x82acc01180
1066 -122 m 1x88ccc01080
 1057 -78 l 1
 1174 -61 1210 -6 1218 43 c 0
 1223 73 1219 97 1198 156 c 1
 1241 169 l 1
 1320.22146238 -36.9758021838 1153.4065428 -114.716121433 1066 -122 c 1x88ccc01080
552.53515625 255 m 0
 614.994140625 255.0859375 613.994140625 270.159179688 612 326 c 2x808cc05180
 603 609 l 1
 649 609 l 1x808cc01280
 658 327 l 2
 659 270 685 255 719 255 c 0
 782 255 781 270 779 326 c 2x808cc011a0
 768 609 l 1
 813 609 l 1
 824 331 l 2
 828 252 814 209 714 209 c 0
 676 209 655 226 645 247 c 1
 630 222 601 209 547 209 c 0
 499 209 463 223 449 267 c 1
 370 248 294 275 294 336 c 0
 294 395 357 444 435 457 c 1
 433 499 l 1
 478 499 l 1x808cc490c0
 487 315 l 2x808cc05080
 489.98828125 263.202148438 512.822265625 255.0625 552.53515625 255 c 0
EndSplineSet
EndChar

StartChar: uniFDC9
Encoding: 64969 64969 23
Width: 1885
VWidth: 800
GlyphClass: 1
Flags: HW
HStem: -510 45<686.788 742.998 743 892.994 893 1194 1194 1251.86 1310.39 1477.58> -377 45<761.696 928.474 1008.16 1194.9> -349 45<180.781 385.474> -309 45<560.313 625 1482.95 1585.45> -293 55<1258.69 1312.31> -224 45<467.479 535.621> -209 45<1523 1660.89> -191 45<894.542 1019.06> -121 55<1023.74 1077.31 1099.74 1153.31> -10 45<998.587 1203.13> 108 46<1513 1707.75> 116 45<1288.5 1363.77> 249 46<732.838 846.42 907.944 1014.2> 278 45<1617.81 1731.62> 355 55<1579.74 1633.31> 451 46<606.101 671> 512 27<485.704 549.385> 619 28<554.094 585.28> 634 37<796.531 831.328> 656 35<870.74 905.457>
VStem: 100 45<-266.388 -140.702> 273 30<46 191> 428 42<-268.679 -224.102> 484 43<-403.152 -338.868> 523 28<575.41 615.91> 529 44<356.349 421.05> 542 44<-3 172> 552 45<-172.81 72> 588 28<569.202 615.01> 625 43<-363.333 -309 -266.677 -221> 632 45<-413.536 -309> 671 44<396.111 451 492.44 540> 678 46<346.398 451> 698 45<-90.182 214> 709 45<-324.688 33.636> 763 33<671.51 724> 822 30<-113 32> 830 37<774 889> 837 32<698.19 742> 840 46<496 600> 849 46<306.86 548> 908 35<698.24 761.67> 916 45<69.786 205.957> 1006 45<454.273 600> 1022 43<-267.613 -196.855 302.577 468.375> 1023 55<-120.313 -66.741> 1099 55<-120.313 -66.741> 1136 45<397 600> 1147 46<252 455> 1199 43<-325.502 -194.335> 1248 42<71.488 115.753> 1258 55<-292.313 -238.741> 1394 40<202.478 262.75> 1423 45<-416.75 -324.074> 1579 55<355.687 409.259> 1719 46<-106.945 26> 1742 43<184.56 266.821>
LayerCount: 2
Fore
SplineSet
1396 462 m 1x80c38e00100042
 1273 426 l 1
 1273 457 l 1
 1396 493 l 1
 1396 462 l 1x80c38e00100042
1568 41 m 1
 1445 5 l 1
 1445 36 l 1
 1568 72 l 1
 1568 41 l 1
1187 -390 m 2
 1038.00585938 -389.955078125 l 2
 1037.3515625 -389.985351562 1036.68261719 -390 1036 -390 c 2
 887.000976562 -389.989257812 l 2
 886.670898438 -389.99609375 886.336914062 -390 886 -390 c 2
 737 -390 l 2
 689 -390 652 -376 639 -333 c 1
 622.48046875 -336.97265625 606.092773438 -338.890625 590.502929688 -338.890625 c 0
 531.5390625 -338.890625 484 -311.454101562 484 -264 c 0
 484 -204 546 -156 625 -143 c 1
 623 -101 l 1
 668 -101 l 1x90c38f04510046
 677 -284 l 2
 680 -336 702 -345 742 -345 c 0
 742.336914062 -345 742.669921875 -345.004882812 743 -345 c 2
 891 -345 l 2
 891.6796875 -345 892.344726562 -345.014648438 893 -345 c 2
 1041 -345 l 2
 1042.02929688 -345 1043.02539062 -345.033203125 1043.98632812 -345.099609375 c 2
 1044 -345 l 1
 1192 -345 l 2
 1192.6796875 -345 1193.34472656 -345.014648438 1194 -345 c 0
 1257 -345 1257 -329 1276 -230 c 1
 1319 -239 l 1
 1314 -259 1307 -288 1307 -306 c 0
 1307 -328 1316 -345 1385 -345 c 0
 1455 -345 1472 -343 1479 -342 c 1
 1459 -331 1423 -301 1423 -250 c 0
 1423 -187 1471 -144 1537 -144 c 0
 1554 -144 1574 -147 1592 -153 c 1
 1583 -195 l 1
 1568 -191 1551 -189 1537 -189 c 0
 1497 -189 1468 -213 1468 -250 c 0x90c38e02500046
 1468 -297.169921875 1524.01171875 -325.026367188 1556.31738281 -325.026367188 c 0
 1556.88574219 -325.026367188 1557.44726562 -325.017578125 1558 -325 c 1
 1576 -320 1584 -318 1627 -299 c 1
 1642 -339 l 1
 1568 -370 1495 -390 1379 -390 c 0
 1321 -390 1296 -378 1286 -353 c 1
 1264.08105469 -383.885742188 1238.19238281 -389.955078125 1189.546875 -389.955078125 c 0
 1189.36621094 -389.955078125 1189.18554688 -389.955078125 1189.00488281 -389.955078125 c 0
 1188.35058594 -389.985351562 1187.68261719 -390 1187 -390 c 2
570 739 m 0x80c3ce88100042
 558.7578125 739 551 731.2421875 551 720 c 0
 551 700.022460938 574.639648438 689.154296875 575 689 c 0
 584 697 588 706 588 716 c 0
 588 720.393554688 586.997070312 739 570 739 c 0x80c3ce88100042
571 767 m 0
 610.545898438 767 616 728.435546875 616 718 c 0
 616 663.012695312 554.491210938 635.4609375 487 632 c 1
 482 659 l 1
 498.780273438 660.119140625 529.307617188 662.154296875 553 674 c 1
 538.278320312 682.178710938 523 696.361328125 523 720 c 0
 523 745.96875 543.154296875 767 571 767 c 0
867 894 m 1x80c38e00140042
 830 894 l 1
 826 1009 l 1
 863 1009 l 1
 867 894 l 1x80c38e00140042
858 788 m 1
 853.018554688 775.547851562 839.678710938 754 807 754 c 0
 788.5 754 763 762.444335938 763 809 c 0
 763 816 763 816 767 844 c 1
 800 853 l 1
 798 838 796 825 796 815 c 0
 796 799 802 791 813 791 c 0
 833.541015625 791 835.708984375 815.879882812 837 843 c 1
 837 862 l 1
 869 874 l 1
 869 834 l 2
 869 813.09765625 878.31640625 811 888 811 c 0
 898.5234375 811 908 814.040039062 908 837 c 0
 908 839.657226562 907.666015625 859.4453125 898 882 c 1
 928 892 l 1
 935.053710938 876.12890625 943 858.23828125 943 833 c 0
 943 827.412109375 941.677734375 776 893 776 c 0x80c39e00124042
 879 776 867 780 858 788 c 1
573 503 m 0x80c38e40900042
 573 476.44921875 609.25390625 466.01171875 645.091796875 466.01171875 c 0
 656.497070312 466.01171875 667.860351562 467.068359375 678 469 c 1
 673 571 l 1
 609 564 573 531 573 503 c 0x80c38e40900042
1147 372 m 1x80c38e001000c2
 1136 720 l 1
 1181 720 l 1x80c38e00100142
 1193 372 l 1
 1147 372 l 1x80c38e001000c2
852 7 m 1x80c38e00180042
 822 7 l 1x80c38e00180042
 819 152 l 1
 849 152 l 1x80c38e00108042
 852 7 l 1x80c38e00180042
303 166 m 1
 273 166 l 1
 270 311 l 1
 300 311 l 1
 303 166 l 1
262 -229 m 0xa4c38e10100042
 240.321289062 -229 100 -224.27734375 100 -102 c 0
 100 -95.16015625 101.029296875 -56.1806640625 123 -4 c 1
 162 -20 l 1
 153.859375 -44.421875 145 -71.185546875 145 -98 c 0
 145 -177.440429688 241.973632812 -184 274 -184 c 0
 359.028320312 -184 428 -153.140625 428 -112 c 0
 428 -88.345703125 368.680664062 -72.375 345 -66 c 1
 355 -20 l 1
 375.514648438 -28.09765625 456.204101562 -59 493 -59 c 0
 540.424804688 -59 552.623046875 -52.50390625 552.623046875 -8.2841796875 c 0
 552.623046875 -2.251953125 552.395507812 4.4833984375 552 12 c 1xa4c38e90100042
 542 292 l 1
 586 292 l 1xa4c38e20100042
 597 17 l 2
 597.232421875 10.962890625 597.362304688 5.1474609375 597.362304688 -0.4453125 c 0
 597.362304688 -68.904296875 577.885742188 -104 488 -104 c 2
 467 -104 l 1
 467.051757812 -104.154296875 470 -113.62109375 470 -120 c 0
 470 -165.000976562 407.779296875 -229 262 -229 c 0xa4c38e10100042
527 -256 m 0x90c38f02100042
 527 -282.895507812 564.201171875 -293.846679688 600.487304688 -293.846679688 c 0
 611.421875 -293.846679688 622.274414062 -292.852539062 632 -291 c 1
 627 -189 l 1
 563 -196 527 -229 527 -256 c 0x90c38f02100042
1286 -173 m 0x88c38e00100052
 1270 -173 1258 -161 1258 -146 c 0
 1258 -131 1270 -118 1286 -118 c 0
 1301 -118 1313 -131 1313 -146 c 0
 1313 -161 1301 -173 1286 -173 c 0x88c38e00100052
889 -97 m 1
 918 -120 940 -141 970 -173 c 1
 1003 -152 1022 -127 1022 -103 c 0
 1022 -89 1008 -71 968 -71 c 0x89c38e00100842
 943 -71 907 -82 889 -97 c 1
1051 -1 m 0x80c38e00101042
 1036 -1 1023 11 1023 26 c 0x80c38e00100442
 1023 41 1036 54 1051 54 c 0x80c38e00101042
 1066 54 1078 41 1078 26 c 0x80c38e00100442
 1078 11 1066 -1 1051 -1 c 0x80c38e00101042
1127 -1 m 0
 1112 -1 1099 11 1099 26 c 0
 1099 41 1112 54 1127 54 c 0
 1142 54 1154 41 1154 26 c 0x80c38e00100242
 1154 11 1142 -1 1127 -1 c 0
916 238 m 0x80d38e0010206a80
 916 265 923 297 939 336 c 1
 979 321 l 1
 967 290 961 264 961 242 c 0
 961 180 1021 155 1092 155 c 0
 1178 155 1248 187 1248 227 c 0
 1248 247 1217 259 1164 274 c 1x80e38e0010206a80
 1174 320 l 1
 1251 290 1291 281 1314 281 c 0
 1366 281 1374 308 1394 391 c 1
 1434 381 l 1
 1427 355 1422 332 1422 322 c 0
 1422 301 1431 288 1467 281 c 1x80d38e0010206a80
 1515 356 1600 443 1686 443 c 0
 1747 443 1785 403 1785 350 c 0
 1785 284 1734 228 1577 228 c 0x80e78e0010206a80
 1458 228 1414 243 1400 277 c 1
 1373 239 1342 236 1308 236 c 2
 1287 236 l 1
 1289 229 1290 226 1290 220 c 0
 1290 165 1211 110 1080 110 c 0
 992 110 916 151 916 238 c 0x80d38e0010206a80
1607 475 m 0
 1592 475 1579 487 1579 502 c 0
 1579 517 1592 530 1607 530 c 0
 1622 530 1634 517 1634 502 c 0
 1634 487 1622 475 1607 475 c 0
1683 398 m 0x80e78e0010004280
 1616 398 1545 320 1513 276 c 1
 1534 275 1557 274 1587 274 c 0
 1685 274 1742 298 1742 345 c 0
 1742 369 1725 398 1683 398 c 0x80e78e0010004280
1520 -89 m 1x82c38e00100043
 1523 -44 l 1
 1537.20410156 -45.578125 1550.42089844 -46.31640625 1562.71679688 -46.31640625 c 0
 1651.69824219 -46.31640625 1692.42773438 -7.658203125 1710 31 c 0
 1718.39746094 49.7333984375 1721.78808594 66.380859375 1721.78808594 92.533203125 c 0
 1721.78808594 106.865234375 1720.77050781 124.051757812 1719 146 c 1
 1765 148 l 1
 1766.05859375 136.141601562 1766.56542969 124.8515625 1766.56542969 114.103515625 c 0
 1766.56542969 -59.873046875 1633.6875 -91.7568359375 1556.81347656 -91.7568359375 c 0
 1542.01953125 -91.7568359375 1529.29980469 -90.576171875 1520 -89 c 1x82c38e00100043
789 415 m 0x80cb8e00900042
 841.73046875 415 849.625 425.508789062 849.625 461.770507812 c 0
 849.625 468.833007812 849.326171875 476.872070312 849 486 c 2x80cb8e00908042
 840 720 l 1
 886 720 l 1x80cb8e00110042
 895 487 l 1
 895.99609375 430.196289062 922.814453125 415.103515625 956.6484375 415.000976562 c 0
 1007.79296875 415.084960938 1016.97851562 425.251953125 1016.97851562 459.704101562 c 0
 1016.97851562 467.25390625 1016.53710938 475.96875 1016 486 c 2
 1006 720 l 1
 1051 720 l 1
 1062 491 l 2
 1062.23828125 484.717773438 1062.37597656 478.663085938 1062.37597656 472.83984375 c 0
 1062.37597656 405.432617188 1043.96875 369 951 369 c 0
 913 369 892 386 882 406 c 1
 867 382 838 369 784 369 c 0
 735 369 699 383 685 426 c 1
 668.51953125 422.036132812 652.126953125 420.118164062 636.501953125 420.118164062 c 0
 577.224609375 420.118164062 529 447.725585938 529 496 c 0
 529 556 592 604 671 617 c 1
 669 660 l 1
 715 660 l 1x80cb8e41109042
 724 475 l 2
 726 423 749 415 789 415 c 0x80cb8e00900042
825 -212 m 0xd1c38e00300042
 864 -212 900 -205 930 -193 c 1
 913 -172 890 -150 864 -131 c 0
 857 -125 849 -102 849 -94 c 0
 849 -71 910 -26 976 -26 c 0
 1039 -26 1065 -58 1065 -91 c 0
 1065 -128 1044 -165 1007 -195 c 1
 1039 -207 1077 -212 1114 -212 c 0
 1179 -212 1199 -209 1199 -164 c 0
 1199 -136 1184 -90 1168 -47 c 1
 1213 -31 l 1
 1227 -67 1242 -122 1242 -155 c 0
 1242 -230 1203 -257 1109 -257 c 0
 1059 -257 1004 -246 965 -222 c 1
 924 -244 874 -257 819 -257 c 0
 730 -257 711 -228 709 -162 c 2xd1c38e00308842
 698 334 l 1
 743 334 l 1xd1c38e00500042
 754 -144 l 1
 757 -198 761 -212 825 -212 c 0xd1c38e00300042
EndSplineSet
EndChar

